ISO-10303-21;
HEADER;
/* Generated by software containing ST-Developer
 * from STEP Tools, Inc. (www.steptools.com) 
 */

FILE_DESCRIPTION(
/* description */ (''),
/* implementation_level */ '2;1');

FILE_NAME(
/* name */ 'link.step',
/* time_stamp */ '2026-07-30T17:33:12-04:00',
/* author */ (''),
/* organization */ (''),
/* preprocessor_version */ 'ST-DEVELOPER v20.1',
/* originating_system */ 'Autodesk Translation Framework v15.8.0.0',
/* authorisation */ '');

FILE_SCHEMA (('AUTOMOTIVE_DESIGN { 1 0 10303 214 3 1 1 }'));
ENDSEC;

DATA;
#10=MECHANICAL_DESIGN_GEOMETRIC_PRESENTATION_REPRESENTATION('',(#13),#999);
#11=SHAPE_REPRESENTATION_RELATIONSHIP('SRR','None',#1009,#12);
#12=ADVANCED_BREP_SHAPE_REPRESENTATION('',(#14),#998);
#13=STYLED_ITEM('',(#1019),#14);
#14=MANIFOLD_SOLID_BREP('Body9',#315);
#15=B_SPLINE_CURVE_WITH_KNOTS('',3,(#612,#613,#614,#615,#616,#617,#618,
#619,#620,#621,#622,#623,#624,#625,#626,#627,#628,#629,#630,#631,#632,#633,
#634,#635),.UNSPECIFIED.,.F.,.F.,(4,1,2,2,2,2,2,2,2,2,2,1,4),(0.,0.144548652189892,
0.289097304379783,0.433645956569675,0.532334532270307,0.631023107970938,
0.72971168367157,0.805620366448807,0.881529049226043,0.95743773200328,0.971625154668853,
0.985812577334427,1.),.UNSPECIFIED.);
#16=B_SPLINE_CURVE_WITH_KNOTS('',3,(#636,#637,#638,#639,#640,#641,#642,
#643,#644,#645,#646,#647,#648,#649,#650,#651,#652,#653,#654,#655,#656,#657,
#658,#659),.UNSPECIFIED.,.F.,.F.,(4,1,2,2,2,2,2,2,2,2,2,1,4),(0.,0.144548652189892,
0.289097304379783,0.433645956569675,0.532334532270307,0.631023107970938,
0.72971168367157,0.805620366448807,0.881529049226043,0.95743773200328,0.971625154668853,
0.985812577334427,1.),.UNSPECIFIED.);
#17=B_SPLINE_CURVE_WITH_KNOTS('',3,(#756,#757,#758,#759,#760,#761,#762,
#763,#764,#765,#766,#767,#768,#769,#770,#771,#772,#773,#774,#775,#776,#777,
#778,#779),.UNSPECIFIED.,.F.,.F.,(4,1,2,2,2,2,2,2,2,2,2,1,4),(0.,0.144548652189892,
0.289097304379783,0.433645956569675,0.532334532270307,0.631023107970938,
0.72971168367157,0.805620366448807,0.881529049226043,0.95743773200328,0.971625154668853,
0.985812577334427,1.),.UNSPECIFIED.);
#18=B_SPLINE_CURVE_WITH_KNOTS('',3,(#876,#877,#878,#879,#880,#881,#882,
#883,#884,#885,#886,#887,#888,#889,#890,#891,#892,#893,#894,#895,#896,#897,
#898,#899),.UNSPECIFIED.,.F.,.F.,(4,1,2,2,2,2,2,2,2,2,2,1,4),(0.,0.144548652189892,
0.289097304379783,0.433645956569675,0.532334532270307,0.631023107970938,
0.72971168367157,0.805620366448807,0.881529049226043,0.95743773200328,0.971625154668853,
0.985812577334427,1.),.UNSPECIFIED.);
#19=B_SPLINE_SURFACE_WITH_KNOTS('',3,3,((#516,#517,#518,#519,#520,#521,
#522,#523,#524,#525,#526,#527,#528,#529,#530,#531,#532,#533,#534,#535,#536,
#537,#538,#539),(#540,#541,#542,#543,#544,#545,#546,#547,#548,#549,#550,
#551,#552,#553,#554,#555,#556,#557,#558,#559,#560,#561,#562,#563),(#564,
#565,#566,#567,#568,#569,#570,#571,#572,#573,#574,#575,#576,#577,#578,#579,
#580,#581,#582,#583,#584,#585,#586,#587),(#588,#589,#590,#591,#592,#593,
#594,#595,#596,#597,#598,#599,#600,#601,#602,#603,#604,#605,#606,#607,#608,
#609,#610,#611)),.UNSPECIFIED.,.F.,.F.,.F.,(4,4),(4,1,2,2,2,2,2,2,2,2,2,
1,4),(0.,1.),(0.,0.144548652189892,0.289097304379783,0.433645956569675,
0.532334532270307,0.631023107970938,0.72971168367157,0.805620366448807,
0.881529049226043,0.95743773200328,0.971625154668853,0.985812577334427,
1.),.UNSPECIFIED.);
#20=B_SPLINE_SURFACE_WITH_KNOTS('',3,3,((#660,#661,#662,#663,#664,#665,
#666,#667,#668,#669,#670,#671,#672,#673,#674,#675,#676,#677,#678,#679,#680,
#681,#682,#683),(#684,#685,#686,#687,#688,#689,#690,#691,#692,#693,#694,
#695,#696,#697,#698,#699,#700,#701,#702,#703,#704,#705,#706,#707),(#708,
#709,#710,#711,#712,#713,#714,#715,#716,#717,#718,#719,#720,#721,#722,#723,
#724,#725,#726,#727,#728,#729,#730,#731),(#732,#733,#734,#735,#736,#737,
#738,#739,#740,#741,#742,#743,#744,#745,#746,#747,#748,#749,#750,#751,#752,
#753,#754,#755)),.UNSPECIFIED.,.F.,.F.,.F.,(4,4),(4,1,2,2,2,2,2,2,2,2,2,
1,4),(0.,1.),(0.,0.144548652189892,0.289097304379783,0.433645956569675,
0.532334532270307,0.631023107970938,0.72971168367157,0.805620366448807,
0.881529049226043,0.95743773200328,0.971625154668853,0.985812577334427,
1.),.UNSPECIFIED.);
#21=B_SPLINE_SURFACE_WITH_KNOTS('',3,3,((#780,#781,#782,#783,#784,#785,
#786,#787,#788,#789,#790,#791,#792,#793,#794,#795,#796,#797,#798,#799,#800,
#801,#802,#803),(#804,#805,#806,#807,#808,#809,#810,#811,#812,#813,#814,
#815,#816,#817,#818,#819,#820,#821,#822,#823,#824,#825,#826,#827),(#828,
#829,#830,#831,#832,#833,#834,#835,#836,#837,#838,#839,#840,#841,#842,#843,
#844,#845,#846,#847,#848,#849,#850,#851),(#852,#853,#854,#855,#856,#857,
#858,#859,#860,#861,#862,#863,#864,#865,#866,#867,#868,#869,#870,#871,#872,
#873,#874,#875)),.UNSPECIFIED.,.F.,.F.,.F.,(4,4),(4,1,2,2,2,2,2,2,2,2,2,
1,4),(0.,1.),(0.,0.144548652189892,0.289097304379783,0.433645956569675,
0.532334532270307,0.631023107970938,0.72971168367157,0.805620366448807,
0.881529049226043,0.95743773200328,0.971625154668853,0.985812577334427,
1.),.UNSPECIFIED.);
#22=B_SPLINE_SURFACE_WITH_KNOTS('',3,3,((#900,#901,#902,#903,#904,#905,
#906,#907,#908,#909,#910,#911,#912,#913,#914,#915,#916,#917,#918,#919,#920,
#921,#922,#923),(#924,#925,#926,#927,#928,#929,#930,#931,#932,#933,#934,
#935,#936,#937,#938,#939,#940,#941,#942,#943,#944,#945,#946,#947),(#948,
#949,#950,#951,#952,#953,#954,#955,#956,#957,#958,#959,#960,#961,#962,#963,
#964,#965,#966,#967,#968,#969,#970,#971),(#972,#973,#974,#975,#976,#977,
#978,#979,#980,#981,#982,#983,#984,#985,#986,#987,#988,#989,#990,#991,#992,
#993,#994,#995)),.UNSPECIFIED.,.F.,.F.,.F.,(4,4),(4,1,2,2,2,2,2,2,2,2,2,
1,4),(0.,1.),(0.,0.144548652189892,0.289097304379783,0.433645956569675,
0.532334532270307,0.631023107970938,0.72971168367157,0.805620366448807,
0.881529049226043,0.95743773200328,0.971625154668853,0.985812577334427,
1.),.UNSPECIFIED.);
#23=FACE_BOUND('',#72,.T.);
#24=FACE_BOUND('',#75,.T.);
#25=FACE_BOUND('',#77,.T.);
#26=FACE_BOUND('',#81,.T.);
#27=FACE_BOUND('',#85,.T.);
#28=FACE_BOUND('',#88,.T.);
#29=CIRCLE('',#332,0.325);
#30=CIRCLE('',#333,0.325);
#31=CIRCLE('',#335,0.2);
#32=CIRCLE('',#336,0.2);
#33=CIRCLE('',#338,0.25);
#34=CIRCLE('',#340,0.25);
#35=CIRCLE('',#344,0.375000000000002);
#36=CIRCLE('',#345,0.375000000000002);
#37=CIRCLE('',#347,0.2);
#38=CIRCLE('',#348,0.2);
#39=CIRCLE('',#350,0.25);
#40=CIRCLE('',#352,0.25);
#41=CYLINDRICAL_SURFACE('',#331,0.325);
#42=CYLINDRICAL_SURFACE('',#334,0.2);
#43=CYLINDRICAL_SURFACE('',#339,0.25);
#44=CYLINDRICAL_SURFACE('',#343,0.375000000000002);
#45=CYLINDRICAL_SURFACE('',#346,0.2);
#46=CYLINDRICAL_SURFACE('',#351,0.25);
#47=FACE_OUTER_BOUND('',#67,.T.);
#48=FACE_OUTER_BOUND('',#68,.T.);
#49=FACE_OUTER_BOUND('',#69,.T.);
#50=FACE_OUTER_BOUND('',#70,.T.);
#51=FACE_OUTER_BOUND('',#71,.T.);
#52=FACE_OUTER_BOUND('',#73,.T.);
#53=FACE_OUTER_BOUND('',#74,.T.);
#54=FACE_OUTER_BOUND('',#76,.T.);
#55=FACE_OUTER_BOUND('',#78,.T.);
#56=FACE_OUTER_BOUND('',#79,.T.);
#57=FACE_OUTER_BOUND('',#80,.T.);
#58=FACE_OUTER_BOUND('',#82,.T.);
#59=FACE_OUTER_BOUND('',#83,.T.);
#60=FACE_OUTER_BOUND('',#84,.T.);
#61=FACE_OUTER_BOUND('',#86,.T.);
#62=FACE_OUTER_BOUND('',#87,.T.);
#63=FACE_OUTER_BOUND('',#89,.T.);
#64=FACE_OUTER_BOUND('',#90,.T.);
#65=FACE_OUTER_BOUND('',#91,.T.);
#66=FACE_OUTER_BOUND('',#92,.T.);
#67=EDGE_LOOP('',(#205,#206,#207,#208));
#68=EDGE_LOOP('',(#209,#210,#211,#212));
#69=EDGE_LOOP('',(#213,#214,#215,#216));
#70=EDGE_LOOP('',(#217,#218,#219,#220));
#71=EDGE_LOOP('',(#221));
#72=EDGE_LOOP('',(#222));
#73=EDGE_LOOP('',(#223,#224,#225,#226));
#74=EDGE_LOOP('',(#227,#228,#229,#230));
#75=EDGE_LOOP('',(#231));
#76=EDGE_LOOP('',(#232,#233,#234,#235));
#77=EDGE_LOOP('',(#236));
#78=EDGE_LOOP('',(#237,#238,#239,#240));
#79=EDGE_LOOP('',(#241,#242,#243,#244));
#80=EDGE_LOOP('',(#245));
#81=EDGE_LOOP('',(#246));
#82=EDGE_LOOP('',(#247,#248,#249,#250));
#83=EDGE_LOOP('',(#251,#252,#253,#254));
#84=EDGE_LOOP('',(#255,#256,#257,#258));
#85=EDGE_LOOP('',(#259));
#86=EDGE_LOOP('',(#260,#261,#262,#263));
#87=EDGE_LOOP('',(#264,#265,#266,#267));
#88=EDGE_LOOP('',(#268));
#89=EDGE_LOOP('',(#269,#270,#271,#272));
#90=EDGE_LOOP('',(#273,#274,#275,#276));
#91=EDGE_LOOP('',(#277,#278,#279,#280));
#92=EDGE_LOOP('',(#281,#282,#283,#284));
#93=LINE('',#443,#117);
#94=LINE('',#445,#118);
#95=LINE('',#447,#119);
#96=LINE('',#448,#120);
#97=LINE('',#452,#121);
#98=LINE('',#454,#122);
#99=LINE('',#456,#123);
#100=LINE('',#457,#124);
#101=LINE('',#465,#125);
#102=LINE('',#473,#126);
#103=LINE('',#475,#127);
#104=LINE('',#477,#128);
#105=LINE('',#481,#129);
#106=LINE('',#485,#130);
#107=LINE('',#491,#131);
#108=LINE('',#499,#132);
#109=LINE('',#502,#133);
#110=LINE('',#504,#134);
#111=LINE('',#505,#135);
#112=LINE('',#508,#136);
#113=LINE('',#509,#137);
#114=LINE('',#512,#138);
#115=LINE('',#513,#139);
#116=LINE('',#515,#140);
#117=VECTOR('',#361,0.393700787401575);
#118=VECTOR('',#362,0.393700787401575);
#119=VECTOR('',#363,0.393700787401575);
#120=VECTOR('',#364,0.393700787401575);
#121=VECTOR('',#367,0.393700787401575);
#122=VECTOR('',#368,0.393700787401575);
#123=VECTOR('',#369,0.393700787401575);
#124=VECTOR('',#370,0.393700787401575);
#125=VECTOR('',#381,0.2);
#126=VECTOR('',#392,0.25);
#127=VECTOR('',#395,0.393700787401575);
#128=VECTOR('',#398,0.393700787401575);
#129=VECTOR('',#401,0.393700787401575);
#130=VECTOR('',#404,0.393700787401575);
#131=VECTOR('',#411,0.2);
#132=VECTOR('',#422,0.25);
#133=VECTOR('',#425,0.393700787401575);
#134=VECTOR('',#426,0.393700787401575);
#135=VECTOR('',#427,0.393700787401575);
#136=VECTOR('',#430,0.393700787401575);
#137=VECTOR('',#431,0.393700787401575);
#138=VECTOR('',#434,0.393700787401575);
#139=VECTOR('',#435,0.393700787401575);
#140=VECTOR('',#438,0.393700787401575);
#141=VERTEX_POINT('',#441);
#142=VERTEX_POINT('',#442);
#143=VERTEX_POINT('',#444);
#144=VERTEX_POINT('',#446);
#145=VERTEX_POINT('',#450);
#146=VERTEX_POINT('',#451);
#147=VERTEX_POINT('',#453);
#148=VERTEX_POINT('',#455);
#149=VERTEX_POINT('',#462);
#150=VERTEX_POINT('',#464);
#151=VERTEX_POINT('',#468);
#152=VERTEX_POINT('',#471);
#153=VERTEX_POINT('',#479);
#154=VERTEX_POINT('',#480);
#155=VERTEX_POINT('',#482);
#156=VERTEX_POINT('',#484);
#157=VERTEX_POINT('',#488);
#158=VERTEX_POINT('',#490);
#159=VERTEX_POINT('',#494);
#160=VERTEX_POINT('',#497);
#161=VERTEX_POINT('',#501);
#162=VERTEX_POINT('',#503);
#163=VERTEX_POINT('',#507);
#164=VERTEX_POINT('',#511);
#165=EDGE_CURVE('',#141,#142,#93,.T.);
#166=EDGE_CURVE('',#143,#141,#94,.T.);
#167=EDGE_CURVE('',#143,#144,#95,.T.);
#168=EDGE_CURVE('',#144,#142,#96,.T.);
#169=EDGE_CURVE('',#145,#146,#97,.T.);
#170=EDGE_CURVE('',#147,#145,#98,.T.);
#171=EDGE_CURVE('',#147,#148,#99,.T.);
#172=EDGE_CURVE('',#148,#146,#100,.T.);
#173=EDGE_CURVE('',#146,#141,#29,.T.);
#174=EDGE_CURVE('',#145,#142,#30,.T.);
#175=EDGE_CURVE('',#149,#149,#31,.T.);
#176=EDGE_CURVE('',#149,#150,#101,.T.);
#177=EDGE_CURVE('',#150,#150,#32,.T.);
#178=EDGE_CURVE('',#151,#151,#33,.T.);
#179=EDGE_CURVE('',#152,#152,#34,.T.);
#180=EDGE_CURVE('',#152,#151,#102,.T.);
#181=EDGE_CURVE('',#144,#147,#103,.T.);
#182=EDGE_CURVE('',#148,#143,#104,.T.);
#183=EDGE_CURVE('',#153,#154,#105,.T.);
#184=EDGE_CURVE('',#155,#153,#35,.T.);
#185=EDGE_CURVE('',#156,#155,#106,.T.);
#186=EDGE_CURVE('',#156,#154,#36,.T.);
#187=EDGE_CURVE('',#157,#157,#37,.T.);
#188=EDGE_CURVE('',#157,#158,#107,.T.);
#189=EDGE_CURVE('',#158,#158,#38,.T.);
#190=EDGE_CURVE('',#159,#159,#39,.T.);
#191=EDGE_CURVE('',#160,#160,#40,.T.);
#192=EDGE_CURVE('',#160,#159,#108,.T.);
#193=EDGE_CURVE('',#161,#154,#109,.T.);
#194=EDGE_CURVE('',#162,#161,#110,.T.);
#195=EDGE_CURVE('',#162,#153,#111,.T.);
#196=EDGE_CURVE('',#161,#163,#112,.T.);
#197=EDGE_CURVE('',#163,#156,#113,.T.);
#198=EDGE_CURVE('',#164,#155,#114,.T.);
#199=EDGE_CURVE('',#163,#164,#115,.T.);
#200=EDGE_CURVE('',#164,#162,#116,.T.);
#201=EDGE_CURVE('',#161,#144,#15,.T.);
#202=EDGE_CURVE('',#162,#143,#16,.T.);
#203=EDGE_CURVE('',#163,#147,#17,.T.);
#204=EDGE_CURVE('',#164,#148,#18,.T.);
#205=ORIENTED_EDGE('',*,*,#165,.F.);
#206=ORIENTED_EDGE('',*,*,#166,.F.);
#207=ORIENTED_EDGE('',*,*,#167,.T.);
#208=ORIENTED_EDGE('',*,*,#168,.T.);
#209=ORIENTED_EDGE('',*,*,#169,.F.);
#210=ORIENTED_EDGE('',*,*,#170,.F.);
#211=ORIENTED_EDGE('',*,*,#171,.T.);
#212=ORIENTED_EDGE('',*,*,#172,.T.);
#213=ORIENTED_EDGE('',*,*,#169,.T.);
#214=ORIENTED_EDGE('',*,*,#173,.T.);
#215=ORIENTED_EDGE('',*,*,#165,.T.);
#216=ORIENTED_EDGE('',*,*,#174,.F.);
#217=ORIENTED_EDGE('',*,*,#175,.F.);
#218=ORIENTED_EDGE('',*,*,#176,.T.);
#219=ORIENTED_EDGE('',*,*,#177,.T.);
#220=ORIENTED_EDGE('',*,*,#176,.F.);
#221=ORIENTED_EDGE('',*,*,#178,.F.);
#222=ORIENTED_EDGE('',*,*,#175,.T.);
#223=ORIENTED_EDGE('',*,*,#179,.F.);
#224=ORIENTED_EDGE('',*,*,#180,.T.);
#225=ORIENTED_EDGE('',*,*,#178,.T.);
#226=ORIENTED_EDGE('',*,*,#180,.F.);
#227=ORIENTED_EDGE('',*,*,#174,.T.);
#228=ORIENTED_EDGE('',*,*,#168,.F.);
#229=ORIENTED_EDGE('',*,*,#181,.T.);
#230=ORIENTED_EDGE('',*,*,#170,.T.);
#231=ORIENTED_EDGE('',*,*,#179,.T.);
#232=ORIENTED_EDGE('',*,*,#173,.F.);
#233=ORIENTED_EDGE('',*,*,#172,.F.);
#234=ORIENTED_EDGE('',*,*,#182,.T.);
#235=ORIENTED_EDGE('',*,*,#166,.T.);
#236=ORIENTED_EDGE('',*,*,#177,.F.);
#237=ORIENTED_EDGE('',*,*,#183,.F.);
#238=ORIENTED_EDGE('',*,*,#184,.F.);
#239=ORIENTED_EDGE('',*,*,#185,.F.);
#240=ORIENTED_EDGE('',*,*,#186,.T.);
#241=ORIENTED_EDGE('',*,*,#187,.F.);
#242=ORIENTED_EDGE('',*,*,#188,.T.);
#243=ORIENTED_EDGE('',*,*,#189,.T.);
#244=ORIENTED_EDGE('',*,*,#188,.F.);
#245=ORIENTED_EDGE('',*,*,#190,.F.);
#246=ORIENTED_EDGE('',*,*,#187,.T.);
#247=ORIENTED_EDGE('',*,*,#191,.F.);
#248=ORIENTED_EDGE('',*,*,#192,.T.);
#249=ORIENTED_EDGE('',*,*,#190,.T.);
#250=ORIENTED_EDGE('',*,*,#192,.F.);
#251=ORIENTED_EDGE('',*,*,#183,.T.);
#252=ORIENTED_EDGE('',*,*,#193,.F.);
#253=ORIENTED_EDGE('',*,*,#194,.F.);
#254=ORIENTED_EDGE('',*,*,#195,.T.);
#255=ORIENTED_EDGE('',*,*,#196,.F.);
#256=ORIENTED_EDGE('',*,*,#193,.T.);
#257=ORIENTED_EDGE('',*,*,#186,.F.);
#258=ORIENTED_EDGE('',*,*,#197,.F.);
#259=ORIENTED_EDGE('',*,*,#189,.F.);
#260=ORIENTED_EDGE('',*,*,#185,.T.);
#261=ORIENTED_EDGE('',*,*,#198,.F.);
#262=ORIENTED_EDGE('',*,*,#199,.F.);
#263=ORIENTED_EDGE('',*,*,#197,.T.);
#264=ORIENTED_EDGE('',*,*,#195,.F.);
#265=ORIENTED_EDGE('',*,*,#200,.F.);
#266=ORIENTED_EDGE('',*,*,#198,.T.);
#267=ORIENTED_EDGE('',*,*,#184,.T.);
#268=ORIENTED_EDGE('',*,*,#191,.T.);
#269=ORIENTED_EDGE('',*,*,#194,.T.);
#270=ORIENTED_EDGE('',*,*,#201,.T.);
#271=ORIENTED_EDGE('',*,*,#167,.F.);
#272=ORIENTED_EDGE('',*,*,#202,.F.);
#273=ORIENTED_EDGE('',*,*,#196,.T.);
#274=ORIENTED_EDGE('',*,*,#203,.T.);
#275=ORIENTED_EDGE('',*,*,#181,.F.);
#276=ORIENTED_EDGE('',*,*,#201,.F.);
#277=ORIENTED_EDGE('',*,*,#199,.T.);
#278=ORIENTED_EDGE('',*,*,#204,.T.);
#279=ORIENTED_EDGE('',*,*,#171,.F.);
#280=ORIENTED_EDGE('',*,*,#203,.F.);
#281=ORIENTED_EDGE('',*,*,#200,.T.);
#282=ORIENTED_EDGE('',*,*,#202,.T.);
#283=ORIENTED_EDGE('',*,*,#182,.F.);
#284=ORIENTED_EDGE('',*,*,#204,.F.);
#285=PLANE('',#329);
#286=PLANE('',#330);
#287=PLANE('',#337);
#288=PLANE('',#341);
#289=PLANE('',#342);
#290=PLANE('',#349);
#291=PLANE('',#353);
#292=PLANE('',#354);
#293=PLANE('',#355);
#294=PLANE('',#356);
#295=ADVANCED_FACE('',(#47),#285,.T.);
#296=ADVANCED_FACE('',(#48),#286,.T.);
#297=ADVANCED_FACE('',(#49),#41,.T.);
#298=ADVANCED_FACE('',(#50),#42,.F.);
#299=ADVANCED_FACE('',(#51,#23),#287,.T.);
#300=ADVANCED_FACE('',(#52),#43,.F.);
#301=ADVANCED_FACE('',(#53,#24),#288,.T.);
#302=ADVANCED_FACE('',(#54,#25),#289,.F.);
#303=ADVANCED_FACE('',(#55),#44,.T.);
#304=ADVANCED_FACE('',(#56),#45,.F.);
#305=ADVANCED_FACE('',(#57,#26),#290,.T.);
#306=ADVANCED_FACE('',(#58),#46,.F.);
#307=ADVANCED_FACE('',(#59),#291,.T.);
#308=ADVANCED_FACE('',(#60,#27),#292,.T.);
#309=ADVANCED_FACE('',(#61),#293,.T.);
#310=ADVANCED_FACE('',(#62,#28),#294,.T.);
#311=ADVANCED_FACE('',(#63),#19,.T.);
#312=ADVANCED_FACE('',(#64),#20,.T.);
#313=ADVANCED_FACE('',(#65),#21,.T.);
#314=ADVANCED_FACE('',(#66),#22,.T.);
#315=CLOSED_SHELL('',(#295,#296,#297,#298,#299,#300,#301,#302,#303,#304,
#305,#306,#307,#308,#309,#310,#311,#312,#313,#314));
#316=DERIVED_UNIT_ELEMENT(#318,1.);
#317=DERIVED_UNIT_ELEMENT(#1003,-3.);
#318=(
MASS_UNIT()
NAMED_UNIT(*)
SI_UNIT(.KILO.,.GRAM.)
);
#319=DERIVED_UNIT((#316,#317));
#320=MEASURE_REPRESENTATION_ITEM('density measure',
POSITIVE_RATIO_MEASURE(7850.),#319);
#321=PROPERTY_DEFINITION_REPRESENTATION(#326,#323);
#322=PROPERTY_DEFINITION_REPRESENTATION(#327,#324);
#323=REPRESENTATION('material name',(#325),#998);
#324=REPRESENTATION('density',(#320),#998);
#325=DESCRIPTIVE_REPRESENTATION_ITEM('Steel','Steel');
#326=PROPERTY_DEFINITION('material property','material name',#1011);
#327=PROPERTY_DEFINITION('material property','density of part',#1011);
#328=AXIS2_PLACEMENT_3D('',#439,#357,#358);
#329=AXIS2_PLACEMENT_3D('',#440,#359,#360);
#330=AXIS2_PLACEMENT_3D('',#449,#365,#366);
#331=AXIS2_PLACEMENT_3D('',#458,#371,#372);
#332=AXIS2_PLACEMENT_3D('',#459,#373,#374);
#333=AXIS2_PLACEMENT_3D('',#460,#375,#376);
#334=AXIS2_PLACEMENT_3D('',#461,#377,#378);
#335=AXIS2_PLACEMENT_3D('',#463,#379,#380);
#336=AXIS2_PLACEMENT_3D('',#466,#382,#383);
#337=AXIS2_PLACEMENT_3D('',#467,#384,#385);
#338=AXIS2_PLACEMENT_3D('',#469,#386,#387);
#339=AXIS2_PLACEMENT_3D('',#470,#388,#389);
#340=AXIS2_PLACEMENT_3D('',#472,#390,#391);
#341=AXIS2_PLACEMENT_3D('',#474,#393,#394);
#342=AXIS2_PLACEMENT_3D('',#476,#396,#397);
#343=AXIS2_PLACEMENT_3D('',#478,#399,#400);
#344=AXIS2_PLACEMENT_3D('',#483,#402,#403);
#345=AXIS2_PLACEMENT_3D('',#486,#405,#406);
#346=AXIS2_PLACEMENT_3D('',#487,#407,#408);
#347=AXIS2_PLACEMENT_3D('',#489,#409,#410);
#348=AXIS2_PLACEMENT_3D('',#492,#412,#413);
#349=AXIS2_PLACEMENT_3D('',#493,#414,#415);
#350=AXIS2_PLACEMENT_3D('',#495,#416,#417);
#351=AXIS2_PLACEMENT_3D('',#496,#418,#419);
#352=AXIS2_PLACEMENT_3D('',#498,#420,#421);
#353=AXIS2_PLACEMENT_3D('',#500,#423,#424);
#354=AXIS2_PLACEMENT_3D('',#506,#428,#429);
#355=AXIS2_PLACEMENT_3D('',#510,#432,#433);
#356=AXIS2_PLACEMENT_3D('',#514,#436,#437);
#357=DIRECTION('axis',(0.,0.,1.));
#358=DIRECTION('refdir',(1.,0.,0.));
#359=DIRECTION('center_axis',(0.336271139227039,0.19323377139527,0.9217279590613));
#360=DIRECTION('ref_axis',(0.46984641142264,0.813797856337924,-0.342019588171594));
#361=DIRECTION('',(0.46984641142264,0.813797856337923,-0.342019588171596));
#362=DIRECTION('',(-0.81618997212427,0.548081890425292,0.182866538195545));
#363=DIRECTION('',(0.46984641142264,0.813797856337924,-0.342019588171594));
#364=DIRECTION('',(-0.81618997212427,0.548081890425292,0.182866538195545));
#365=DIRECTION('center_axis',(-0.336271139227039,-0.19323377139527,-0.9217279590613));
#366=DIRECTION('ref_axis',(-0.46984641142264,-0.813797856337924,0.342019588171594));
#367=DIRECTION('',(-0.46984641142264,-0.813797856337923,0.342019588171596));
#368=DIRECTION('',(-0.81618997212427,0.548081890425292,0.182866538195545));
#369=DIRECTION('',(-0.46984641142264,-0.813797856337924,0.342019588171594));
#370=DIRECTION('',(-0.81618997212427,0.548081890425292,0.182866538195545));
#371=DIRECTION('center_axis',(0.46984641142264,0.813797856337923,-0.342019588171596));
#372=DIRECTION('ref_axis',(-0.866025403784439,0.499999999999999,1.53972128690632E-16));
#373=DIRECTION('center_axis',(0.46984641142264,0.813797856337923,-0.342019588171597));
#374=DIRECTION('ref_axis',(-0.866025403784439,0.5,-7.95312901088636E-18));
#375=DIRECTION('center_axis',(0.46984641142264,0.813797856337923,-0.342019588171597));
#376=DIRECTION('ref_axis',(-0.866025403784439,0.5,-3.57087046265153E-17));
#377=DIRECTION('center_axis',(0.469846411422639,0.813797856337923,-0.342019588171599));
#378=DIRECTION('ref_axis',(-0.866025403784439,0.499999999999999,2.05363770857482E-16));
#379=DIRECTION('center_axis',(-0.46984641142264,-0.813797856337923,0.342019588171597));
#380=DIRECTION('ref_axis',(-0.866025403784439,0.5,2.09447251769278E-17));
#381=DIRECTION('',(-0.469846411422639,-0.813797856337923,0.342019588171599));
#382=DIRECTION('center_axis',(-0.46984641142264,-0.813797856337923,0.342019588171597));
#383=DIRECTION('ref_axis',(-0.866025403784439,0.5,2.09447251769278E-17));
#384=DIRECTION('center_axis',(0.46984641142264,0.813797856337923,-0.342019588171597));
#385=DIRECTION('ref_axis',(-0.866025403784439,0.5,-1.31499724264809E-18));
#386=DIRECTION('center_axis',(-0.46984641142264,-0.813797856337923,0.342019588171597));
#387=DIRECTION('ref_axis',(-0.866025403784439,0.499999999999999,1.48334111832558E-16));
#388=DIRECTION('center_axis',(0.46984641142264,0.813797856337923,-0.342019588171596));
#389=DIRECTION('ref_axis',(-0.866025403784439,0.499999999999999,1.48334111832558E-16));
#390=DIRECTION('center_axis',(-0.46984641142264,-0.813797856337923,0.342019588171597));
#391=DIRECTION('ref_axis',(-0.866025403784439,0.5,-2.90705728582771E-17));
#392=DIRECTION('',(-0.46984641142264,-0.813797856337923,0.342019588171596));
#393=DIRECTION('center_axis',(0.46984641142264,0.813797856337923,-0.342019588171597));
#394=DIRECTION('ref_axis',(-0.866025403784439,0.5,-3.57087046265153E-17));
#395=DIRECTION('',(-0.336271139227041,-0.193233771395271,-0.921727959061299));
#396=DIRECTION('center_axis',(0.46984641142264,0.813797856337923,-0.342019588171597));
#397=DIRECTION('ref_axis',(-0.866025403784439,0.5,-7.95312901088638E-18));
#398=DIRECTION('',(0.336271139227041,0.193233771395271,0.921727959061299));
#399=DIRECTION('center_axis',(-0.766044443118979,0.,0.642787609686538));
#400=DIRECTION('ref_axis',(-1.81353536047644E-33,-1.,-2.16128728114445E-33));
#401=DIRECTION('',(0.766044443118979,0.,-0.642787609686538));
#402=DIRECTION('center_axis',(-0.766044443118979,1.600072864522E-32,0.642787609686538));
#403=DIRECTION('ref_axis',(-1.40708046250019E-32,-1.,8.12378283795942E-33));
#404=DIRECTION('',(-0.766044443118979,0.,0.642787609686538));
#405=DIRECTION('center_axis',(-0.766044443118979,1.600072864522E-32,0.642787609686538));
#406=DIRECTION('ref_axis',(-1.40708046250019E-32,-1.,8.12378283795942E-33));
#407=DIRECTION('center_axis',(-0.766044443118978,0.,0.64278760968654));
#408=DIRECTION('ref_axis',(-1.81353536047647E-33,-1.,-2.16128728114447E-33));
#409=DIRECTION('center_axis',(0.766044443118979,-1.600072864522E-32,-0.642787609686538));
#410=DIRECTION('ref_axis',(-1.40708046250019E-32,-1.,8.12378283795942E-33));
#411=DIRECTION('',(0.766044443118978,0.,-0.64278760968654));
#412=DIRECTION('center_axis',(0.766044443118979,-1.600072864522E-32,-0.642787609686538));
#413=DIRECTION('ref_axis',(-1.40708046250019E-32,-1.,8.12378283795942E-33));
#414=DIRECTION('center_axis',(-0.766044443118979,1.600072864522E-32,0.642787609686538));
#415=DIRECTION('ref_axis',(-1.40708046250019E-32,-1.,8.12378283795942E-33));
#416=DIRECTION('center_axis',(0.766044443118979,-1.600072864522E-32,-0.642787609686538));
#417=DIRECTION('ref_axis',(-1.81353536047644E-33,-1.,-2.16128728114445E-33));
#418=DIRECTION('center_axis',(-0.766044443118979,0.,0.642787609686538));
#419=DIRECTION('ref_axis',(-1.81353536047644E-33,-1.,-2.16128728114445E-33));
#420=DIRECTION('center_axis',(0.766044443118979,-1.600072864522E-32,-0.642787609686538));
#421=DIRECTION('ref_axis',(-1.40708046250019E-32,-1.,8.12378283795943E-33));
#422=DIRECTION('',(0.766044443118979,0.,-0.642787609686538));
#423=DIRECTION('center_axis',(0.492403876506102,-0.642787609686539,0.586824088833467));
#424=DIRECTION('ref_axis',(-0.76604444311898,-5.55111512312578E-17,0.642787609686537));
#425=DIRECTION('',(-0.413175911166536,-0.766044443118978,-0.492403876506103));
#426=DIRECTION('',(0.76604444311898,5.55111512312578E-17,-0.642787609686537));
#427=DIRECTION('',(-0.413175911166536,-0.766044443118978,-0.492403876506103));
#428=DIRECTION('center_axis',(0.766044443118978,-1.60982338570648E-15,-0.642787609686539));
#429=DIRECTION('ref_axis',(0.492403876506103,-0.642787609686539,0.586824088833466));
#430=DIRECTION('',(-0.492403876506103,0.642787609686539,-0.586824088833466));
#431=DIRECTION('',(-0.413175911166536,-0.766044443118978,-0.492403876506103));
#432=DIRECTION('center_axis',(-0.492403876506104,0.642787609686539,-0.586824088833466));
#433=DIRECTION('ref_axis',(0.766044443118979,8.32667268468867E-16,-0.642787609686538));
#434=DIRECTION('',(-0.413175911166536,-0.766044443118978,-0.492403876506103));
#435=DIRECTION('',(-0.766044443118979,-8.32667268468867E-16,0.642787609686538));
#436=DIRECTION('center_axis',(-0.766044443118978,1.36002320516582E-15,0.642787609686539));
#437=DIRECTION('ref_axis',(-0.492403876506103,0.642787609686539,-0.586824088833466));
#438=DIRECTION('',(0.492403876506103,-0.642787609686539,0.586824088833466));
#439=CARTESIAN_POINT('',(0.,0.,0.));
#440=CARTESIAN_POINT('Origin',(-1.11322051721073,1.49777724315812,1.5026809919895));
#441=CARTESIAN_POINT('',(-1.20898768067307,1.56208610480034,1.52413752815545));
#442=CARTESIAN_POINT('',(-1.09152607781741,1.76553556888482,1.43863263111255));
#443=CARTESIAN_POINT('',(-1.20898768067307,1.56208610480034,1.52413752815545));
#444=CARTESIAN_POINT('',(-1.11322051721073,1.49777724315812,1.5026809919895));
#445=CARTESIAN_POINT('',(-1.11322051721073,1.49777724315812,1.5026809919895));
#446=CARTESIAN_POINT('',(-0.995758914355072,1.7012267072426,1.41717609494661));
#447=CARTESIAN_POINT('',(-1.11322051721073,1.49777724315812,1.5026809919895));
#448=CARTESIAN_POINT('',(-0.995758914355072,1.7012267072426,1.41717609494661));
#449=CARTESIAN_POINT('Origin',(-1.16389448396859,1.60460982154496,0.956312115415956));
#450=CARTESIAN_POINT('',(-1.25966164743093,1.66891868318719,0.9777686515819));
#451=CARTESIAN_POINT('',(-1.37712325028659,1.4654692191027,1.0632735486248));
#452=CARTESIAN_POINT('',(-1.37712325028659,1.4654692191027,1.0632735486248));
#453=CARTESIAN_POINT('',(-1.16389448396859,1.60460982154496,0.956312115415956));
#454=CARTESIAN_POINT('',(-1.16389448396859,1.60460982154496,0.956312115415956));
#455=CARTESIAN_POINT('',(-1.28135608682425,1.40116035746048,1.04181701245885));
#456=CARTESIAN_POINT('',(-1.28135608682425,1.40116035746048,1.04181701245885));
#457=CARTESIAN_POINT('',(-1.28135608682425,1.40116035746048,1.04181701245885));
#458=CARTESIAN_POINT('Origin',(-1.46255004295788,1.62759541469752,1.33168062713773));
#459=CARTESIAN_POINT('Origin',(-1.46255004295788,1.62759541469752,1.33168062713773));
#460=CARTESIAN_POINT('Origin',(-1.34508844010222,1.831044878782,1.24617573009483));
#461=CARTESIAN_POINT('Origin',(-1.46255004295788,1.62759541469752,1.33168062713773));
#462=CARTESIAN_POINT('',(-1.26585264162986,1.56828530751442,1.31457964772915));
#463=CARTESIAN_POINT('Origin',(-1.43905772238675,1.66828530751442,1.31457964772915));
#464=CARTESIAN_POINT('',(-1.28934496220099,1.52759541469752,1.33168062713773));
#465=CARTESIAN_POINT('',(-1.28934496220099,1.52759541469752,1.33168062713773));
#466=CARTESIAN_POINT('Origin',(-1.46255004295788,1.62759541469752,1.33168062713773));
#467=CARTESIAN_POINT('Origin',(-1.43905772238675,1.66828530751442,1.31457964772915));
#468=CARTESIAN_POINT('',(-1.22255137144064,1.54328530751442,1.31457964772915));
#469=CARTESIAN_POINT('Origin',(-1.43905772238675,1.66828530751442,1.31457964772915));
#470=CARTESIAN_POINT('Origin',(-1.46255004295788,1.62759541469752,1.33168062713773));
#471=CARTESIAN_POINT('',(-1.12858208915611,1.706044878782,1.24617573009483));
#472=CARTESIAN_POINT('Origin',(-1.34508844010222,1.831044878782,1.24617573009483));
#473=CARTESIAN_POINT('',(-1.24604369201177,1.50259541469752,1.33168062713773));
#474=CARTESIAN_POINT('Origin',(-1.34508844010222,1.831044878782,1.24617573009483));
#475=CARTESIAN_POINT('',(-1.18911481941062,1.59011728869032,0.887182518486361));
#476=CARTESIAN_POINT('Origin',(-1.46255004295788,1.62759541469752,1.33168062713773));
#477=CARTESIAN_POINT('',(-1.30657642226628,1.38666782460584,0.972687415529258));
#478=CARTESIAN_POINT('Origin',(1.3987061727561E-15,0.,0.));
#479=CARTESIAN_POINT('',(0.0470760363510064,0.0534190286533681,0.445033992161511));
#480=CARTESIAN_POINT('',(0.238587147130751,0.0534190286533672,0.284337089739876));
#481=CARTESIAN_POINT('',(0.238587147130751,0.0534190286533667,0.284337089739876));
#482=CARTESIAN_POINT('',(-0.199125901902045,0.374812833496637,0.151621947744777));
#483=CARTESIAN_POINT('Origin',(-0.191511110779743,0.,0.160696902421635));
#484=CARTESIAN_POINT('',(-0.00761479112230071,0.374812833496637,-0.00907495467685637));
#485=CARTESIAN_POINT('',(-0.00761479112229966,0.374812833496637,-0.00907495467685707));
#486=CARTESIAN_POINT('Origin',(1.3987061727561E-15,0.,0.));
#487=CARTESIAN_POINT('Origin',(0.,0.,0.));
#488=CARTESIAN_POINT('',(-0.038302222155949,0.2,0.032139380484327));
#489=CARTESIAN_POINT('Origin',(-0.0383022221559486,0.,0.0321393804843274));
#490=CARTESIAN_POINT('',(0.,0.2,0.));
#491=CARTESIAN_POINT('',(-1.5743755774684E-17,0.2,-1.87626775054055E-17));
#492=CARTESIAN_POINT('Origin',(0.,0.,0.));
#493=CARTESIAN_POINT('Origin',(-0.0383022221559479,-1.13826538593421E-17,
0.0321393804843277));
#494=CARTESIAN_POINT('',(-0.0383022221559483,0.25,0.0321393804843274));
#495=CARTESIAN_POINT('Origin',(-0.0383022221559483,0.,0.0321393804843274));
#496=CARTESIAN_POINT('Origin',(6.99353086378051E-16,0.,3.49676543189026E-16));
#497=CARTESIAN_POINT('',(-0.191511110779744,0.25,0.160696902421635));
#498=CARTESIAN_POINT('Origin',(-0.191511110779744,0.,0.160696902421636));
#499=CARTESIAN_POINT('',(6.79673391659696E-16,0.25,3.26223196307269E-16));
#500=CARTESIAN_POINT('Origin',(0.278041935813977,0.126569763747983,0.331357475898157));
#501=CARTESIAN_POINT('',(0.278041935813978,0.126569763747983,0.331357475898157));
#502=CARTESIAN_POINT('',(0.278041935813978,0.126569763747983,0.331357475898157));
#503=CARTESIAN_POINT('',(0.0865308250342333,0.126569763747983,0.492054378319792));
#504=CARTESIAN_POINT('',(0.0865308250342329,0.126569763747983,0.492054378319791));
#505=CARTESIAN_POINT('',(0.0865308250342333,0.126569763747983,0.492054378319792));
#506=CARTESIAN_POINT('Origin',(0.0318399975609265,0.447963568591252,0.0379454314814238));
#507=CARTESIAN_POINT('',(0.0318399975609262,0.447963568591252,0.0379454314814245));
#508=CARTESIAN_POINT('',(-0.0297104870023374,0.528312019802071,-0.0354075796227606));
#509=CARTESIAN_POINT('',(0.0318399975609262,0.447963568591252,0.0379454314814245));
#510=CARTESIAN_POINT('Origin',(-0.159671113218819,0.447963568591252,0.198642333903059));
#511=CARTESIAN_POINT('',(-0.159671113218818,0.447963568591253,0.198642333903059));
#512=CARTESIAN_POINT('',(-0.159671113218818,0.447963568591253,0.198642333903059));
#513=CARTESIAN_POINT('',(-0.159671113218819,0.447963568591252,0.198642333903059));
#514=CARTESIAN_POINT('Origin',(0.0865308250342336,0.126569763747983,0.492054378319792));
#515=CARTESIAN_POINT('',(-0.221221597782082,0.528312019802071,0.125289322798875));
#516=CARTESIAN_POINT('Ctrl Pts',(0.0865308250342329,0.126569763747982,0.492054378319791));
#517=CARTESIAN_POINT('Ctrl Pts',(0.0771894614368019,0.204627052559636,0.557758057634147));
#518=CARTESIAN_POINT('Ctrl Pts',(0.0471311599664013,0.361653531319457,0.69099341542968));
#519=CARTESIAN_POINT('Ctrl Pts',(-0.00888581197299777,0.518055544316295,
0.822852797406201));
#520=CARTESIAN_POINT('Ctrl Pts',(-0.0796777069545051,0.673062001092753,
0.951530683957845));
#521=CARTESIAN_POINT('Ctrl Pts',(-0.122329805746158,0.749530304357321,1.0139458905274));
#522=CARTESIAN_POINT('Ctrl Pts',(-0.205785547854577,0.874434082491497,1.11248099531079));
#523=CARTESIAN_POINT('Ctrl Pts',(-0.243105699095525,0.924330928639068,1.15086904722475));
#524=CARTESIAN_POINT('Ctrl Pts',(-0.32532450929366,1.02114315919224,1.22320419367292));
#525=CARTESIAN_POINT('Ctrl Pts',(-0.370429942020681,1.06841576977281,1.25742397616877));
#526=CARTESIAN_POINT('Ctrl Pts',(-0.46870343829051,1.1589962171118,1.32048561169418));
#527=CARTESIAN_POINT('Ctrl Pts',(-0.521703307485328,1.20216817521354,1.34924565527032));
#528=CARTESIAN_POINT('Ctrl Pts',(-0.622503126633425,1.27434589068001,1.39458629187954));
#529=CARTESIAN_POINT('Ctrl Pts',(-0.66845613234995,1.30409129060249,1.41233049630973));
#530=CARTESIAN_POINT('Ctrl Pts',(-0.76347472037626,1.35908933483287,1.44328195673041));
#531=CARTESIAN_POINT('Ctrl Pts',(-0.812783629652985,1.38450667000563,1.4565889344162));
#532=CARTESIAN_POINT('Ctrl Pts',(-0.914776801301518,1.43046655314215,1.47861495688818));
#533=CARTESIAN_POINT('Ctrl Pts',(-0.967485534303059,1.45101402630454,1.48734074663349));
#534=CARTESIAN_POINT('Ctrl Pts',(-1.03159371633195,1.47282776839415,1.49510068098846));
#535=CARTESIAN_POINT('Ctrl Pts',(-1.04170889940509,1.47617819216732,1.4962449090896));
#536=CARTESIAN_POINT('Ctrl Pts',(-1.06201964223174,1.48268297789037,1.49836738338881));
#537=CARTESIAN_POINT('Ctrl Pts',(-1.08239503472182,1.4889877781222,1.50032310147773));
#538=CARTESIAN_POINT('Ctrl Pts',(-1.1029266226073,1.49490356698261,1.50194743983892));
#539=CARTESIAN_POINT('Ctrl Pts',(-1.11322051721073,1.49777724315812,1.5026809919895));
#540=CARTESIAN_POINT('Ctrl Pts',(0.150367861960814,0.126569763747982,0.438488744179247));
#541=CARTESIAN_POINT('Ctrl Pts',(0.141529714272226,0.208042893044467,0.505380860725128));
#542=CARTESIAN_POINT('Ctrl Pts',(0.111998034960893,0.371743110880595,0.640974418455291));
#543=CARTESIAN_POINT('Ctrl Pts',(0.0558488606605318,0.534575311141875,0.775416712641528));
#544=CARTESIAN_POINT('Ctrl Pts',(-0.0153185013690043,0.695896999323744,
0.90681363548882));
#545=CARTESIAN_POINT('Ctrl Pts',(-0.0582447295880768,0.775745315841171,
0.970893167281289));
#546=CARTESIAN_POINT('Ctrl Pts',(-0.142762178425178,0.906018636875382,1.07182354909058));
#547=CARTESIAN_POINT('Ctrl Pts',(-0.180623031872969,0.957849445719832,1.11091423039093));
#548=CARTESIAN_POINT('Ctrl Pts',(-0.264168728020419,1.05919006329432,1.18524447683148));
#549=CARTESIAN_POINT('Ctrl Pts',(-0.310079151414625,1.10876774235282,1.22046974389412));
#550=CARTESIAN_POINT('Ctrl Pts',(-0.410277659931536,1.20399916750736,1.28553738354921));
#551=CARTESIAN_POINT('Ctrl Pts',(-0.464497595522139,1.24968402547283,1.31536506628089));
#552=CARTESIAN_POINT('Ctrl Pts',(-0.567830890190985,1.32611524337826,1.36238571361914));
#553=CARTESIAN_POINT('Ctrl Pts',(-0.614854550805673,1.35746852936821,1.38066522371388));
#554=CARTESIAN_POINT('Ctrl Pts',(-0.712587627928127,1.4160506789376,1.41275375243277));
#555=CARTESIAN_POINT('Ctrl Pts',(-0.763402992722221,1.44323077253178,1.42655877028089));
#556=CARTESIAN_POINT('Ctrl Pts',(-0.86865264788018,1.49261147087055,1.44946410396805));
#557=CARTESIAN_POINT('Ctrl Pts',(-0.923102096469073,1.51480493634347,1.45857093223406));
#558=CARTESIAN_POINT('Ctrl Pts',(-0.989483927580831,1.53845013858048,1.46650557294915));
#559=CARTESIAN_POINT('Ctrl Pts',(-0.999971021552472,1.5420900827454,1.46767177398933));
#560=CARTESIAN_POINT('Ctrl Pts',(-1.02101418552898,1.54915470307234,1.4698259626331));
#561=CARTESIAN_POINT('Ctrl Pts',(-1.04212743610834,1.55601130544241,1.47180823838778));
#562=CARTESIAN_POINT('Ctrl Pts',(-1.06340002744229,1.5624596395096,1.47344629270626));
#563=CARTESIAN_POINT('Ctrl Pts',(-1.07406664959218,1.56559373118628,1.47417935964187));
#564=CARTESIAN_POINT('Ctrl Pts',(0.214204898887396,0.126569763747982,0.384923110038702));
#565=CARTESIAN_POINT('Ctrl Pts',(0.205877130844876,0.211453823733497,0.45300556180657));
#566=CARTESIAN_POINT('Ctrl Pts',(0.176858622128738,0.381838886197128,0.590954519813814));
#567=CARTESIAN_POINT('Ctrl Pts',(0.120589254022335,0.551088318737632,0.727981350711853));
#568=CARTESIAN_POINT('Ctrl Pts',(0.0490360597454881,0.718738304812599,0.862095861902267));
#569=CARTESIAN_POINT('Ctrl Pts',(0.00581457879006635,0.801985787633429,
0.927852525039052));
#570=CARTESIAN_POINT('Ctrl Pts',(-0.0797194667553298,0.937585312747149,
1.03115800969039));
#571=CARTESIAN_POINT('Ctrl Pts',(-0.118128987232813,0.991363983679968,1.07095955564363));
#572=CARTESIAN_POINT('Ctrl Pts',(-0.203023793666555,1.09724083529992,1.14728466616525));
#573=CARTESIAN_POINT('Ctrl Pts',(-0.249720982716283,1.14911262504304,1.18351045284048));
#574=CARTESIAN_POINT('Ctrl Pts',(-0.351858431581834,1.24900884217376,1.25059405546232));
#575=CARTESIAN_POINT('Ctrl Pts',(-0.407315700720704,1.29722046100812,1.28149908763195));
#576=CARTESIAN_POINT('Ctrl Pts',(-0.513137739080886,1.37786828716605,1.33017385965548));
#577=CARTESIAN_POINT('Ctrl Pts',(-0.561241788101879,1.41084320262458,1.34899905070524));
#578=CARTESIAN_POINT('Ctrl Pts',(-0.661709106419784,1.47301333785076,1.38222553910046));
#579=CARTESIAN_POINT('Ctrl Pts',(-0.714018175578005,1.50195396437418,1.39652818528737));
#580=CARTESIAN_POINT('Ctrl Pts',(-0.822530510888934,1.55475616804494,1.42031277807781));
#581=CARTESIAN_POINT('Ctrl Pts',(-0.878706829481554,1.57859010417558,1.42979623201744));
#582=CARTESIAN_POINT('Ctrl Pts',(-0.947376187523758,1.60407346163843,1.43791126865294));
#583=CARTESIAN_POINT('Ctrl Pts',(-0.958231970665412,1.60800126413319,1.43909806263798));
#584=CARTESIAN_POINT('Ctrl Pts',(-0.980009446101213,1.61562683652578,1.44128485429825));
#585=CARTESIAN_POINT('Ctrl Pts',(-1.00185919443352,1.62303443574276,1.44329306579676));
#586=CARTESIAN_POINT('Ctrl Pts',(-1.02387374005022,1.63001590985074,1.44494527194639));
#587=CARTESIAN_POINT('Ctrl Pts',(-1.03491278197363,1.63341021921444,1.44567772729424));
#588=CARTESIAN_POINT('Ctrl Pts',(0.278041935813978,0.126569763747982,0.331357475898157));
#589=CARTESIAN_POINT('Ctrl Pts',(0.2702173836803,0.214869664218328,0.400628364897551));
#590=CARTESIAN_POINT('Ctrl Pts',(0.24172549712323,0.391928465758265,0.540935522839425));
#591=CARTESIAN_POINT('Ctrl Pts',(0.185323926655864,0.567608085563211,0.680545265947179));
#592=CARTESIAN_POINT('Ctrl Pts',(0.113395265330989,0.74157330304359,0.817378813433241));
#593=CARTESIAN_POINT('Ctrl Pts',(0.069899654948148,0.828200799117279,0.884799801792947));
#594=CARTESIAN_POINT('Ctrl Pts',(-0.016696097325931,0.969169867131034,0.990500563470182));
#595=CARTESIAN_POINT('Ctrl Pts',(-0.0556463200102567,1.02488250076073,1.03100473880981));
#596=CARTESIAN_POINT('Ctrl Pts',(-0.141868012393314,1.135287739402,1.10932494932381));
#597=CARTESIAN_POINT('Ctrl Pts',(-0.189370192110226,1.18946459762305,1.14655622056584));
#598=CARTESIAN_POINT('Ctrl Pts',(-0.29343265322286,1.29401179256932,1.21564582731735));
#599=CARTESIAN_POINT('Ctrl Pts',(-0.350109988757515,1.34473631126741,1.24761849864251));
#600=CARTESIAN_POINT('Ctrl Pts',(-0.458465502638445,1.4296376398643,1.29797328139508));
#601=CARTESIAN_POINT('Ctrl Pts',(-0.507640206557601,1.46422044139029,1.31733377810939));
#602=CARTESIAN_POINT('Ctrl Pts',(-0.61082201397165,1.52997468195549,1.35169733480281));
#603=CARTESIAN_POINT('Ctrl Pts',(-0.664637538647242,1.56067806690033,1.36649802115207));
#604=CARTESIAN_POINT('Ctrl Pts',(-0.776406357467596,1.61690108577334,1.39116192515768));
#605=CARTESIAN_POINT('Ctrl Pts',(-0.834323391647568,1.64238101421451,1.40102641761801));
#606=CARTESIAN_POINT('Ctrl Pts',(-0.905266398772638,1.66969583182476,1.40931616061363));
#607=CARTESIAN_POINT('Ctrl Pts',(-0.91649409281279,1.67391315471126,1.41052492753771));
#608=CARTESIAN_POINT('Ctrl Pts',(-0.939003989398454,1.68209856170775,1.41274343354255));
#609=CARTESIAN_POINT('Ctrl Pts',(-0.961591595820045,1.69005796306297,1.41477820270681));
#610=CARTESIAN_POINT('Ctrl Pts',(-0.984347144885213,1.69757198237772,1.41644412481373));
#611=CARTESIAN_POINT('Ctrl Pts',(-0.995758914355072,1.7012267072426,1.41717609494661));
#612=CARTESIAN_POINT('Ctrl Pts',(0.278041935813978,0.126569763747983,0.331357475898157));
#613=CARTESIAN_POINT('Ctrl Pts',(0.270217383680301,0.214869664218328,0.400628364897551));
#614=CARTESIAN_POINT('Ctrl Pts',(0.241725497123231,0.391928465758266,0.540935522839425));
#615=CARTESIAN_POINT('Ctrl Pts',(0.185323926655865,0.567608085563212,0.680545265947179));
#616=CARTESIAN_POINT('Ctrl Pts',(0.11339526533099,0.74157330304359,0.817378813433241));
#617=CARTESIAN_POINT('Ctrl Pts',(0.0698996549481486,0.82820079911728,0.884799801792947));
#618=CARTESIAN_POINT('Ctrl Pts',(-0.0166960973259304,0.969169867131035,
0.990500563470182));
#619=CARTESIAN_POINT('Ctrl Pts',(-0.0556463200102562,1.02488250076073,1.03100473880981));
#620=CARTESIAN_POINT('Ctrl Pts',(-0.141868012393313,1.135287739402,1.10932494932381));
#621=CARTESIAN_POINT('Ctrl Pts',(-0.189370192110225,1.18946459762305,1.14655622056584));
#622=CARTESIAN_POINT('Ctrl Pts',(-0.293432653222859,1.29401179256932,1.21564582731735));
#623=CARTESIAN_POINT('Ctrl Pts',(-0.350109988757514,1.34473631126741,1.24761849864251));
#624=CARTESIAN_POINT('Ctrl Pts',(-0.458465502638445,1.4296376398643,1.29797328139508));
#625=CARTESIAN_POINT('Ctrl Pts',(-0.507640206557601,1.46422044139029,1.31733377810939));
#626=CARTESIAN_POINT('Ctrl Pts',(-0.610822013971649,1.52997468195549,1.35169733480281));
#627=CARTESIAN_POINT('Ctrl Pts',(-0.664637538647241,1.56067806690033,1.36649802115207));
#628=CARTESIAN_POINT('Ctrl Pts',(-0.776406357467594,1.61690108577334,1.39116192515768));
#629=CARTESIAN_POINT('Ctrl Pts',(-0.834323391647566,1.64238101421451,1.40102641761801));
#630=CARTESIAN_POINT('Ctrl Pts',(-0.905266398772637,1.66969583182476,1.40931616061363));
#631=CARTESIAN_POINT('Ctrl Pts',(-0.916494092812788,1.67391315471126,1.41052492753771));
#632=CARTESIAN_POINT('Ctrl Pts',(-0.939003989398452,1.68209856170775,1.41274343354255));
#633=CARTESIAN_POINT('Ctrl Pts',(-0.961591595820044,1.69005796306297,1.41477820270681));
#634=CARTESIAN_POINT('Ctrl Pts',(-0.984347144885212,1.69757198237772,1.41644412481373));
#635=CARTESIAN_POINT('Ctrl Pts',(-0.995758914355071,1.7012267072426,1.41717609494661));
#636=CARTESIAN_POINT('Ctrl Pts',(0.0865308250342336,0.126569763747983,0.492054378319792));
#637=CARTESIAN_POINT('Ctrl Pts',(0.0771894614368025,0.204627052559637,0.557758057634148));
#638=CARTESIAN_POINT('Ctrl Pts',(0.0471311388688339,0.361653519254442,0.690993395477338));
#639=CARTESIAN_POINT('Ctrl Pts',(-0.00888580731775335,0.518055531155159,
0.822852782804729));
#640=CARTESIAN_POINT('Ctrl Pts',(-0.079677670316501,0.673061978596505,0.95153063359164));
#641=CARTESIAN_POINT('Ctrl Pts',(-0.122329776441785,0.749530281911259,1.0139458452476));
#642=CARTESIAN_POINT('Ctrl Pts',(-0.205785582572855,0.874434074243103,1.11248097423236));
#643=CARTESIAN_POINT('Ctrl Pts',(-0.2431057332838,0.924330922055025,1.15086902941295));
#644=CARTESIAN_POINT('Ctrl Pts',(-0.325324524416386,1.02114315606537,1.22320417759757));
#645=CARTESIAN_POINT('Ctrl Pts',(-0.370429949547567,1.06841576542329,1.25742396074537));
#646=CARTESIAN_POINT('Ctrl Pts',(-0.468703423581515,1.15899620328477,1.32048559261145));
#647=CARTESIAN_POINT('Ctrl Pts',(-0.52170330038745,1.20216816165418,1.3492456372426));
#648=CARTESIAN_POINT('Ctrl Pts',(-0.622503158503191,1.27434588667241,1.39458628000864));
#649=CARTESIAN_POINT('Ctrl Pts',(-0.668456167539181,1.30409128885014,1.41233048700624));
#650=CARTESIAN_POINT('Ctrl Pts',(-0.763474745625608,1.35908933508283,1.44328195128651));
#651=CARTESIAN_POINT('Ctrl Pts',(-0.812783650647892,1.38450667107002,1.45658893110893));
#652=CARTESIAN_POINT('Ctrl Pts',(-0.914776819201033,1.43046655434566,1.47861495577912));
#653=CARTESIAN_POINT('Ctrl Pts',(-0.967485541859687,1.4510140269358,1.48734074657044));
#654=CARTESIAN_POINT('Ctrl Pts',(-1.03159371839308,1.47282776859004,1.49510068094968));
#655=CARTESIAN_POINT('Ctrl Pts',(-1.04170890140901,1.47617819235799,1.49624490906239));
#656=CARTESIAN_POINT('Ctrl Pts',(-1.0620196436394,1.48268297802543,1.4983673833695));
#657=CARTESIAN_POINT('Ctrl Pts',(-1.08239503560579,1.48898777820833,1.50032310146662));
#658=CARTESIAN_POINT('Ctrl Pts',(-1.1029266226073,1.49490356698261,1.50194743983892));
#659=CARTESIAN_POINT('Ctrl Pts',(-1.11322051721073,1.49777724315812,1.5026809919895));
#660=CARTESIAN_POINT('Ctrl Pts',(0.278041935813978,0.126569763747983,0.331357475898157));
#661=CARTESIAN_POINT('Ctrl Pts',(0.270217383680301,0.214869664218328,0.400628364897551));
#662=CARTESIAN_POINT('Ctrl Pts',(0.241725497123231,0.391928465758266,0.540935522839425));
#663=CARTESIAN_POINT('Ctrl Pts',(0.185323926655865,0.567608085563212,0.680545265947179));
#664=CARTESIAN_POINT('Ctrl Pts',(0.11339526533099,0.74157330304359,0.817378813433241));
#665=CARTESIAN_POINT('Ctrl Pts',(0.0698996549481486,0.82820079911728,0.884799801792947));
#666=CARTESIAN_POINT('Ctrl Pts',(-0.0166960973259304,0.969169867131035,
0.990500563470182));
#667=CARTESIAN_POINT('Ctrl Pts',(-0.0556463200102562,1.02488250076073,1.03100473880981));
#668=CARTESIAN_POINT('Ctrl Pts',(-0.141868012393313,1.135287739402,1.10932494932381));
#669=CARTESIAN_POINT('Ctrl Pts',(-0.189370192110225,1.18946459762305,1.14655622056584));
#670=CARTESIAN_POINT('Ctrl Pts',(-0.293432653222859,1.29401179256932,1.21564582731735));
#671=CARTESIAN_POINT('Ctrl Pts',(-0.350109988757514,1.34473631126741,1.24761849864251));
#672=CARTESIAN_POINT('Ctrl Pts',(-0.458465502638445,1.4296376398643,1.29797328139508));
#673=CARTESIAN_POINT('Ctrl Pts',(-0.507640206557601,1.46422044139029,1.31733377810939));
#674=CARTESIAN_POINT('Ctrl Pts',(-0.610822013971649,1.52997468195549,1.35169733480281));
#675=CARTESIAN_POINT('Ctrl Pts',(-0.664637538647241,1.56067806690033,1.36649802115207));
#676=CARTESIAN_POINT('Ctrl Pts',(-0.776406357467594,1.61690108577334,1.39116192515768));
#677=CARTESIAN_POINT('Ctrl Pts',(-0.834323391647566,1.64238101421451,1.40102641761801));
#678=CARTESIAN_POINT('Ctrl Pts',(-0.905266398772637,1.66969583182476,1.40931616061363));
#679=CARTESIAN_POINT('Ctrl Pts',(-0.916494092812788,1.67391315471126,1.41052492753771));
#680=CARTESIAN_POINT('Ctrl Pts',(-0.939003989398452,1.68209856170775,1.41274343354255));
#681=CARTESIAN_POINT('Ctrl Pts',(-0.961591595820044,1.69005796306297,1.41477820270681));
#682=CARTESIAN_POINT('Ctrl Pts',(-0.984347144885212,1.69757198237772,1.41644412481373));
#683=CARTESIAN_POINT('Ctrl Pts',(-0.995758914355071,1.7012267072426,1.41717609494661));
#684=CARTESIAN_POINT('Ctrl Pts',(0.195974623062961,0.233701032029073,0.23355346109258));
#685=CARTESIAN_POINT('Ctrl Pts',(0.185183122129242,0.318568073356671,0.302814623847001));
#686=CARTESIAN_POINT('Ctrl Pts',(0.150700864976475,0.488196105666736,0.442640673527329));
#687=CARTESIAN_POINT('Ctrl Pts',(0.0894076177340047,0.654446405959481,0.579635374387856));
#688=CARTESIAN_POINT('Ctrl Pts',(0.0139696314787798,0.817466179920894,0.712234124443162));
#689=CARTESIAN_POINT('Ctrl Pts',(-0.0307065587636472,0.897760013077175,
0.77667672371412));
#690=CARTESIAN_POINT('Ctrl Pts',(-0.118440647075028,1.02773301615402,0.877325974651939));
#691=CARTESIAN_POINT('Ctrl Pts',(-0.157574865616279,1.07899806697856,0.915878148974683));
#692=CARTESIAN_POINT('Ctrl Pts',(-0.243238701032057,1.17944257211402,0.989370784822382));
#693=CARTESIAN_POINT('Ctrl Pts',(-0.289844272766825,1.22819826332802,1.02387648174633));
#694=CARTESIAN_POINT('Ctrl Pts',(-0.390866891669693,1.32156743709382,1.08732033459917));
#695=CARTESIAN_POINT('Ctrl Pts',(-0.445390860355338,1.36641265096006,1.11633914673141));
#696=CARTESIAN_POINT('Ctrl Pts',(-0.548898185542519,1.44078087574874,1.16156245194259));
#697=CARTESIAN_POINT('Ctrl Pts',(-0.595656408191532,1.47089873300841,1.17884166831185));
#698=CARTESIAN_POINT('Ctrl Pts',(-0.6931713766465,1.52740463108267,1.20909683513301));
#699=CARTESIAN_POINT('Ctrl Pts',(-0.743751581136428,1.55348574173145,1.22193151487904));
#700=CARTESIAN_POINT('Ctrl Pts',(-0.848274457825194,1.60076610805569,1.24292666832083));
#701=CARTESIAN_POINT('Ctrl Pts',(-0.902183431749622,1.62193893545025,1.25107790872899));
#702=CARTESIAN_POINT('Ctrl Pts',(-0.968033284581702,1.64399766869218,1.25765503226562));
#703=CARTESIAN_POINT('Ctrl Pts',(-0.978444477167814,1.64737714959781,1.25860022626175));
#704=CARTESIAN_POINT('Ctrl Pts',(-0.999310272749274,1.65391727949996,1.26031258503505));
#705=CARTESIAN_POINT('Ctrl Pts',(-1.02023332340946,1.66024875763992,1.26185284129084));
#706=CARTESIAN_POINT('Ctrl Pts',(-1.04126471712264,1.66616553278907,1.26304880439426));
#707=CARTESIAN_POINT('Ctrl Pts',(-1.05180410422624,1.66902107867672,1.26355476843639));
#708=CARTESIAN_POINT('Ctrl Pts',(0.113907310311944,0.340832300310163,0.135749446287002));
#709=CARTESIAN_POINT('Ctrl Pts',(0.100150561721367,0.422274147023365,0.205005456869622));
#710=CARTESIAN_POINT('Ctrl Pts',(0.0596778366929829,0.584454633683342,0.344345963566885));
#711=CARTESIAN_POINT('Ctrl Pts',(-0.0065120614015166,0.741294638214814,
0.478722573617776));
#712=CARTESIAN_POINT('Ctrl Pts',(-0.0854513881351454,0.893349496394007,
0.607094698363642));
#713=CARTESIAN_POINT('Ctrl Pts',(-0.131308654514421,0.967291373482646,0.668540868891411));
#714=CARTESIAN_POINT('Ctrl Pts',(-0.220188871989705,1.08631649271267,0.764160781440439));
#715=CARTESIAN_POINT('Ctrl Pts',(-0.259511093814849,1.13312391918256,0.800754255724206));
#716=CARTESIAN_POINT('Ctrl Pts',(-0.344601829035802,1.22358752381158,0.869414450970137));
#717=CARTESIAN_POINT('Ctrl Pts',(-0.390320241595686,1.2669398145184,0.901203400399083));
#718=CARTESIAN_POINT('Ctrl Pts',(-0.488299606018995,1.34911576979185,0.958988701558643));
#719=CARTESIAN_POINT('Ctrl Pts',(-0.540663226408686,1.38806682958177,0.98504449638474));
#720=CARTESIAN_POINT('Ctrl Pts',(-0.639339423666015,1.45194257157485,1.02516434066531));
#721=CARTESIAN_POINT('Ctrl Pts',(-0.683681269719221,1.47758371019641,1.04035467000735));
#722=CARTESIAN_POINT('Ctrl Pts',(-0.775513544129584,1.5248296954095,1.06649270129922));
#723=CARTESIAN_POINT('Ctrl Pts',(-0.822868847819116,1.54629522042175,1.07736799986351));
#724=CARTESIAN_POINT('Ctrl Pts',(-0.920140506695064,1.58463088000007,1.09468964424864));
#725=CARTESIAN_POINT('Ctrl Pts',(-0.970050613189735,1.60150545782461,1.10113571098026));
#726=CARTESIAN_POINT('Ctrl Pts',(-1.03079887021127,1.61829803233212,1.10599283619841));
#727=CARTESIAN_POINT('Ctrl Pts',(-1.04039545391232,1.62084204417669,1.10667624693297));
#728=CARTESIAN_POINT('Ctrl Pts',(-1.05961612411229,1.62573545366421,1.10788132517647));
#729=CARTESIAN_POINT('Ctrl Pts',(-1.0788754015493,1.63044005366305,1.10892786559643));
#730=CARTESIAN_POINT('Ctrl Pts',(-1.09818205254462,1.63475882811656,1.10965332925524));
#731=CARTESIAN_POINT('Ctrl Pts',(-1.10784929409742,1.63681545011084,1.10993344192617));
#732=CARTESIAN_POINT('Ctrl Pts',(0.0318399975609265,0.447963568591253,0.037945431481424));
#733=CARTESIAN_POINT('Ctrl Pts',(0.0151163001703091,0.525972556161708,0.107191715819072));
#734=CARTESIAN_POINT('Ctrl Pts',(-0.0313467954537727,0.680722273591813,
0.246051114254789));
#735=CARTESIAN_POINT('Ctrl Pts',(-0.102428370323377,0.828132958611082,0.377812682058453));
#736=CARTESIAN_POINT('Ctrl Pts',(-0.184877021987355,0.969242373271311,0.501950009373563));
#737=CARTESIAN_POINT('Ctrl Pts',(-0.231914868226217,1.03685058744254,0.560417790812583));
#738=CARTESIAN_POINT('Ctrl Pts',(-0.321933421738802,1.14487964173565,0.650986192622196));
#739=CARTESIAN_POINT('Ctrl Pts',(-0.361439639420872,1.18723948540038,0.685627665889076));
#740=CARTESIAN_POINT('Ctrl Pts',(-0.445972517674546,1.2677423565236,0.749460286468713));
#741=CARTESIAN_POINT('Ctrl Pts',(-0.490794322252286,1.30567348022337,0.778523661579578));
#742=CARTESIAN_POINT('Ctrl Pts',(-0.585733844465829,1.37667141431635,0.83066320884046));
#743=CARTESIAN_POINT('Ctrl Pts',(-0.63594409800651,1.40974316927442,0.853765144473635));
#744=CARTESIAN_POINT('Ctrl Pts',(-0.729772106570089,1.46308580745929,0.888753511212817));
#745=CARTESIAN_POINT('Ctrl Pts',(-0.771697471353152,1.48426200181452,0.901862560209808));
#746=CARTESIAN_POINT('Ctrl Pts',(-0.857862906804434,1.52225964453668,0.923892201629411));
#747=CARTESIAN_POINT('Ctrl Pts',(-0.901982890308303,1.53910289525288,0.932801493590478));
#748=CARTESIAN_POINT('Ctrl Pts',(-0.992008607052663,1.56849590228242,0.946454387411791));
#749=CARTESIAN_POINT('Ctrl Pts',(-1.03791065329179,1.58106337906035,0.951187202091243));
#750=CARTESIAN_POINT('Ctrl Pts',(-1.09356575602033,1.59259986919955,0.9543317078504));
#751=CARTESIAN_POINT('Ctrl Pts',(-1.10234583826735,1.59430603906324,0.954751545657013));
#752=CARTESIAN_POINT('Ctrl Pts',(-1.11992240746311,1.59755417145642,0.955450476668974));
#753=CARTESIAN_POINT('Ctrl Pts',(-1.13751712913872,1.60063084824,0.956002504180451));
#754=CARTESIAN_POINT('Ctrl Pts',(-1.15509962478205,1.60335237852791,0.956258008835768));
#755=CARTESIAN_POINT('Ctrl Pts',(-1.16389448396859,1.60460982154496,0.956312115415956));
#756=CARTESIAN_POINT('Ctrl Pts',(0.0318399975609261,0.447963568591252,0.0379454314814248));
#757=CARTESIAN_POINT('Ctrl Pts',(0.0151163001703088,0.525972556161707,0.107191715819073));
#758=CARTESIAN_POINT('Ctrl Pts',(-0.03134677398853,0.680722282454453,0.246051140459826));
#759=CARTESIAN_POINT('Ctrl Pts',(-0.102428368979945,0.828132961826366,0.37781269213187));
#760=CARTESIAN_POINT('Ctrl Pts',(-0.184877033147711,0.969242357524861,0.501950020260949));
#761=CARTESIAN_POINT('Ctrl Pts',(-0.23191488100504,1.0368505778404,0.560417800827122));
#762=CARTESIAN_POINT('Ctrl Pts',(-0.32193341025945,1.14487965763185,0.650986215258102));
#763=CARTESIAN_POINT('Ctrl Pts',(-0.361439627970294,1.1872395007122,0.685627686991422));
#764=CARTESIAN_POINT('Ctrl Pts',(-0.445972510251291,1.26774235972636,0.749460300298444));
#765=CARTESIAN_POINT('Ctrl Pts',(-0.490794318211979,1.30567348102167,0.778523672355745));
#766=CARTESIAN_POINT('Ctrl Pts',(-0.585733848829661,1.37667141156691,0.830663214150425));
#767=CARTESIAN_POINT('Ctrl Pts',(-0.635944103696922,1.40974317015746,0.853765150570758));
#768=CARTESIAN_POINT('Ctrl Pts',(-0.729772106403668,1.4630858201955,0.888753524317397));
#769=CARTESIAN_POINT('Ctrl Pts',(-0.771697470248515,1.48426201509247,0.901862572880615));
#770=CARTESIAN_POINT('Ctrl Pts',(-0.857862905010162,1.52225965285914,0.923892210019665));
#771=CARTESIAN_POINT('Ctrl Pts',(-0.90198288849418,1.53910290188323,0.932801499828797));
#772=CARTESIAN_POINT('Ctrl Pts',(-0.992008605440741,1.56849590851791,0.946454391171103));
#773=CARTESIAN_POINT('Ctrl Pts',(-1.0379106525982,1.58106338179279,0.951187203314917));
#774=CARTESIAN_POINT('Ctrl Pts',(-1.09356575579162,1.59259986990263,0.954331708216976));
#775=CARTESIAN_POINT('Ctrl Pts',(-1.10234583804802,1.59430603975285,0.954751546002532));
#776=CARTESIAN_POINT('Ctrl Pts',(-1.11992240730518,1.59755417193826,0.955450476911804));
#777=CARTESIAN_POINT('Ctrl Pts',(-1.13751712903513,1.60063084854033,0.956002504331476));
#778=CARTESIAN_POINT('Ctrl Pts',(-1.15509962478205,1.60335237852791,0.956258008835768));
#779=CARTESIAN_POINT('Ctrl Pts',(-1.16389448396859,1.60460982154496,0.956312115415956));
#780=CARTESIAN_POINT('Ctrl Pts',(0.0318399975609261,0.447963568591252,0.0379454314814248));
#781=CARTESIAN_POINT('Ctrl Pts',(0.0151163001703088,0.525972556161707,0.107191715819073));
#782=CARTESIAN_POINT('Ctrl Pts',(-0.03134677398853,0.680722282454453,0.246051140459826));
#783=CARTESIAN_POINT('Ctrl Pts',(-0.102428368979945,0.828132961826366,0.37781269213187));
#784=CARTESIAN_POINT('Ctrl Pts',(-0.184877033147711,0.969242357524861,0.501950020260949));
#785=CARTESIAN_POINT('Ctrl Pts',(-0.23191488100504,1.0368505778404,0.560417800827122));
#786=CARTESIAN_POINT('Ctrl Pts',(-0.32193341025945,1.14487965763185,0.650986215258102));
#787=CARTESIAN_POINT('Ctrl Pts',(-0.361439627970294,1.1872395007122,0.685627686991422));
#788=CARTESIAN_POINT('Ctrl Pts',(-0.445972510251291,1.26774235972636,0.749460300298444));
#789=CARTESIAN_POINT('Ctrl Pts',(-0.490794318211979,1.30567348102167,0.778523672355745));
#790=CARTESIAN_POINT('Ctrl Pts',(-0.585733848829661,1.37667141156691,0.830663214150425));
#791=CARTESIAN_POINT('Ctrl Pts',(-0.635944103696922,1.40974317015746,0.853765150570758));
#792=CARTESIAN_POINT('Ctrl Pts',(-0.729772106403668,1.4630858201955,0.888753524317397));
#793=CARTESIAN_POINT('Ctrl Pts',(-0.771697470248515,1.48426201509247,0.901862572880615));
#794=CARTESIAN_POINT('Ctrl Pts',(-0.857862905010162,1.52225965285914,0.923892210019665));
#795=CARTESIAN_POINT('Ctrl Pts',(-0.90198288849418,1.53910290188323,0.932801499828797));
#796=CARTESIAN_POINT('Ctrl Pts',(-0.992008605440741,1.56849590851791,0.946454391171103));
#797=CARTESIAN_POINT('Ctrl Pts',(-1.0379106525982,1.58106338179279,0.951187203314917));
#798=CARTESIAN_POINT('Ctrl Pts',(-1.09356575579162,1.59259986990263,0.954331708216976));
#799=CARTESIAN_POINT('Ctrl Pts',(-1.10234583804802,1.59430603975285,0.954751546002532));
#800=CARTESIAN_POINT('Ctrl Pts',(-1.11992240730518,1.59755417193826,0.955450476911804));
#801=CARTESIAN_POINT('Ctrl Pts',(-1.13751712903513,1.60063084854033,0.956002504331476));
#802=CARTESIAN_POINT('Ctrl Pts',(-1.15509962478205,1.60335237852791,0.956258008835768));
#803=CARTESIAN_POINT('Ctrl Pts',(-1.16389448396859,1.60460982154496,0.956312115415956));
#804=CARTESIAN_POINT('Ctrl Pts',(-0.0319970393656553,0.447963568591252,
0.0915110656219695));
#805=CARTESIAN_POINT('Ctrl Pts',(-0.0492239526651155,0.522556715676877,
0.159568912728092));
#806=CARTESIAN_POINT('Ctrl Pts',(-0.096213648983022,0.670632702893315,0.296070137434214));
#807=CARTESIAN_POINT('Ctrl Pts',(-0.167163041613475,0.811613195000787,0.425248776896543));
#808=CARTESIAN_POINT('Ctrl Pts',(-0.249236238733212,0.94640735929387,0.546667068729975));
#809=CARTESIAN_POINT('Ctrl Pts',(-0.295999957163121,1.01063556635655,0.603470524073227));
#810=CARTESIAN_POINT('Ctrl Pts',(-0.384956779688849,1.11329510324797,0.691643661478309));
#811=CARTESIAN_POINT('Ctrl Pts',(-0.42392229519285,1.15372098363144,0.725582503825244));
#812=CARTESIAN_POINT('Ctrl Pts',(-0.507128291524532,1.22969545562428,0.787420017139888));
#813=CARTESIAN_POINT('Ctrl Pts',(-0.551145108818036,1.26532150844166,0.815477904630392));
#814=CARTESIAN_POINT('Ctrl Pts',(-0.644159627188634,1.33166846117136,0.865611442295393));
#815=CARTESIAN_POINT('Ctrl Pts',(-0.693149815660112,1.36222731989817,0.887645739560194));
#816=CARTESIAN_POINT('Ctrl Pts',(-0.784444342846109,1.41131646749725,0.920954102577797));
#817=CARTESIAN_POINT('Ctrl Pts',(-0.825299051792793,1.43088477632675,0.933527845476461));
#818=CARTESIAN_POINT('Ctrl Pts',(-0.908749997458296,1.46529830875441,0.95442041431731));
#819=CARTESIAN_POINT('Ctrl Pts',(-0.951363525424944,1.48037879935708,0.962831663964101));
#820=CARTESIAN_POINT('Ctrl Pts',(-1.03813275886208,1.50635099078951,0.97560524409124));
#821=CARTESIAN_POINT('Ctrl Pts',(-1.08229409043219,1.51727247175386,0.979957017714352));
#822=CARTESIAN_POINT('Ctrl Pts',(-1.13567554454274,1.5269774997163,0.982926816256285));
#823=CARTESIAN_POINT('Ctrl Pts',(-1.14408371590065,1.52839414917478,0.983324681102805));
#824=CARTESIAN_POINT('Ctrl Pts',(-1.16092786400794,1.5310824467563,0.983991897667508));
#825=CARTESIAN_POINT('Ctrl Pts',(-1.17778472764861,1.53360732122012,0.98451736742142));
#826=CARTESIAN_POINT('Ctrl Pts',(-1.19462621994705,1.53579630600092,0.984759155968426));
#827=CARTESIAN_POINT('Ctrl Pts',(-1.20304835158715,1.5367933335168,0.984813747763589));
#828=CARTESIAN_POINT('Ctrl Pts',(-0.0958340762922368,0.447963568591252,
0.145076699762514));
#829=CARTESIAN_POINT('Ctrl Pts',(-0.113571369237765,0.519145784987846,0.21194421164665));
#830=CARTESIAN_POINT('Ctrl Pts',(-0.161074260467942,0.660536936661888,0.346090015383283));
#831=CARTESIAN_POINT('Ctrl Pts',(-0.231903433849419,0.795100174967914,0.472684117872174));
#832=CARTESIAN_POINT('Ctrl Pts',(-0.313590746190071,0.923565975620006,0.591384805048049));
#833=CARTESIAN_POINT('Ctrl Pts',(-0.360059227643962,0.984395025791652,0.646511133791119));
#834=CARTESIAN_POINT('Ctrl Pts',(-0.447999542179501,1.08172844009203,0.732309201228061));
#835=CARTESIAN_POINT('Ctrl Pts',(-0.4864163899658,1.12020646136276,0.765537180909167));
#836=CARTESIAN_POINT('Ctrl Pts',(-0.568273244744783,1.19164468552692,0.825379828183667));
#837=CARTESIAN_POINT('Ctrl Pts',(-0.611503288167898,1.22497662098393,0.852437192244352));
#838=CARTESIAN_POINT('Ctrl Pts',(-0.702578844576128,1.28665875560002,0.900554746810053));
#839=CARTESIAN_POINT('Ctrl Pts',(-0.7503317129008,1.31469085995379,0.921511698739082));
#840=CARTESIAN_POINT('Ctrl Pts',(-0.839137547767786,1.35956343900566,0.953165964772678));
#841=CARTESIAN_POINT('Ctrl Pts',(-0.878911871312259,1.37751012362692,0.965194031141811));
#842=CARTESIAN_POINT('Ctrl Pts',(-0.959628557860113,1.40833566562392,0.984948638701763));
#843=CARTESIAN_POINT('Ctrl Pts',(-1.00074837405423,1.42165562168147,0.992862259530068));
#844=CARTESIAN_POINT('Ctrl Pts',(-1.08425492231691,1.44420630658519,1.00475658023431));
#845=CARTESIAN_POINT('Ctrl Pts',(-1.12668936848178,1.45348730965765,1.00873172265893));
#846=CARTESIAN_POINT('Ctrl Pts',(-1.17778328755006,1.46135417820811,1.01152112181822));
#847=CARTESIAN_POINT('Ctrl Pts',(-1.18582276965939,1.46248296930003,1.0118983936951));
#848=CARTESIAN_POINT('Ctrl Pts',(-1.2019326054459,1.4646103143627,1.01253300687304));
#849=CARTESIAN_POINT('Ctrl Pts',(-1.21805297057732,1.46658419158204,1.01303254055956));
#850=CARTESIAN_POINT('Ctrl Pts',(-1.23415250733913,1.46824003565978,1.01326017672829));
#851=CARTESIAN_POINT('Ctrl Pts',(-1.2422022192057,1.46897684548864,1.01331538011122));
#852=CARTESIAN_POINT('Ctrl Pts',(-0.159671113218818,0.447963568591252,0.198642333903059));
#853=CARTESIAN_POINT('Ctrl Pts',(-0.177911622073189,0.515729944503015,0.26432140855567));
#854=CARTESIAN_POINT('Ctrl Pts',(-0.225941135462434,0.650447357100751,0.396109012357672));
#855=CARTESIAN_POINT('Ctrl Pts',(-0.296638106482948,0.778580408142335,0.520120202636848));
#856=CARTESIAN_POINT('Ctrl Pts',(-0.377949951775572,0.900730977389015,0.636101853517075));
#857=CARTESIAN_POINT('Ctrl Pts',(-0.424144303802043,0.958180014307802,0.689563857037225));
#858=CARTESIAN_POINT('Ctrl Pts',(-0.511022911608899,1.05014388570815,0.772966647448269));
#859=CARTESIAN_POINT('Ctrl Pts',(-0.548899057188357,1.086687944282,0.805491997742988));
#860=CARTESIAN_POINT('Ctrl Pts',(-0.629429026018025,1.15359778142484,0.863339545025112));
#861=CARTESIAN_POINT('Ctrl Pts',(-0.671854078773955,1.18462464840392,0.889391424518998));
#862=CARTESIAN_POINT('Ctrl Pts',(-0.761004622935101,1.24165580520447,0.935502974955021));
#863=CARTESIAN_POINT('Ctrl Pts',(-0.80753742486399,1.2671750096945,0.955392287728517));
#864=CARTESIAN_POINT('Ctrl Pts',(-0.893809784210227,1.30779408630741,0.985366543033078));
#865=CARTESIAN_POINT('Ctrl Pts',(-0.932513452856536,1.32413288486121,0.996859303737657));
#866=CARTESIAN_POINT('Ctrl Pts',(-1.01051565030825,1.35137432151919,1.01547684299941));
#867=CARTESIAN_POINT('Ctrl Pts',(-1.050129010985,1.36293151915532,1.02289242366537));
#868=CARTESIAN_POINT('Ctrl Pts',(-1.13037907573825,1.38206138885679,1.03390743315445));
#869=CARTESIAN_POINT('Ctrl Pts',(-1.17107280631577,1.38969639961872,1.03750153705836));
#870=CARTESIAN_POINT('Ctrl Pts',(-1.21989307630118,1.39573180802178,1.04011622985753));
#871=CARTESIAN_POINT('Ctrl Pts',(-1.22756064751202,1.39657107872195,1.04047152879538));
#872=CARTESIAN_POINT('Ctrl Pts',(-1.24293806214866,1.39813858918074,1.04107442762874));
#873=CARTESIAN_POINT('Ctrl Pts',(-1.25832056919079,1.39956066426183,1.0415474036495));
#874=CARTESIAN_POINT('Ctrl Pts',(-1.27367910250413,1.4006839631328,1.04176132386095));
#875=CARTESIAN_POINT('Ctrl Pts',(-1.28135608682425,1.40116035746048,1.04181701245885));
#876=CARTESIAN_POINT('Ctrl Pts',(-0.159671113218818,0.447963568591253,0.198642333903059));
#877=CARTESIAN_POINT('Ctrl Pts',(-0.177911622073189,0.515729944503016,0.26432140855567));
#878=CARTESIAN_POINT('Ctrl Pts',(-0.225941137376814,0.650447369241684,0.39610901604321));
#879=CARTESIAN_POINT('Ctrl Pts',(-0.296638104588218,0.778580400714687,0.520120194806058));
#880=CARTESIAN_POINT('Ctrl Pts',(-0.377949922142067,0.900730910809548,0.636101834930552));
#881=CARTESIAN_POINT('Ctrl Pts',(-0.424144286664073,0.958179958904534,0.689563841416375));
#882=CARTESIAN_POINT('Ctrl Pts',(-0.511022939576631,1.05014390503846,0.772966663639505));
#883=CARTESIAN_POINT('Ctrl Pts',(-0.548899084840561,1.0866879655012,0.805492014344364));
#884=CARTESIAN_POINT('Ctrl Pts',(-0.629429034826507,1.15359778478219,0.863339555237604));
#885=CARTESIAN_POINT('Ctrl Pts',(-0.671854084246036,1.18462464548148,0.889391429919428));
#886=CARTESIAN_POINT('Ctrl Pts',(-0.761004619314252,1.24165578175343,0.935502962571739));
#887=CARTESIAN_POINT('Ctrl Pts',(-0.807537431614178,1.26717499347658,0.955392278797783));
#888=CARTESIAN_POINT('Ctrl Pts',(-0.893809822624675,1.30779410603981,0.985366558252111));
#889=CARTESIAN_POINT('Ctrl Pts',(-0.932513492681389,1.32413290871634,0.996859321755095));
#890=CARTESIAN_POINT('Ctrl Pts',(-1.01051567710463,1.35137433865396,1.01547685691736));
#891=CARTESIAN_POINT('Ctrl Pts',(-1.05012903240286,1.36293153394506,1.02289243568295));
#892=CARTESIAN_POINT('Ctrl Pts',(-1.13037909354266,1.38206140244153,1.03390744312304));
#893=CARTESIAN_POINT('Ctrl Pts',(-1.17107281368663,1.38969640557976,1.03750154126704));
#894=CARTESIAN_POINT('Ctrl Pts',(-1.21989307824678,1.3957318096134,1.04011623101607));
#895=CARTESIAN_POINT('Ctrl Pts',(-1.22756064940592,1.39657108027693,1.04047152992045));
#896=CARTESIAN_POINT('Ctrl Pts',(-1.24293806347221,1.39813859026965,1.0410744284188));
#897=CARTESIAN_POINT('Ctrl Pts',(-1.25832057001317,1.39956066494196,1.04154740414497));
#898=CARTESIAN_POINT('Ctrl Pts',(-1.27367910250413,1.4006839631328,1.04176132386095));
#899=CARTESIAN_POINT('Ctrl Pts',(-1.28135608682425,1.40116035746048,1.04181701245885));
#900=CARTESIAN_POINT('Ctrl Pts',(-0.159671113218818,0.447963568591253,0.198642333903059));
#901=CARTESIAN_POINT('Ctrl Pts',(-0.177911622073189,0.515729944503016,0.26432140855567));
#902=CARTESIAN_POINT('Ctrl Pts',(-0.225941137376814,0.650447369241684,0.39610901604321));
#903=CARTESIAN_POINT('Ctrl Pts',(-0.296638104588218,0.778580400714687,0.520120194806058));
#904=CARTESIAN_POINT('Ctrl Pts',(-0.377949922142067,0.900730910809548,0.636101834930552));
#905=CARTESIAN_POINT('Ctrl Pts',(-0.424144286664073,0.958179958904534,0.689563841416375));
#906=CARTESIAN_POINT('Ctrl Pts',(-0.511022939576631,1.05014390503846,0.772966663639505));
#907=CARTESIAN_POINT('Ctrl Pts',(-0.548899084840561,1.0866879655012,0.805492014344364));
#908=CARTESIAN_POINT('Ctrl Pts',(-0.629429034826507,1.15359778478219,0.863339555237604));
#909=CARTESIAN_POINT('Ctrl Pts',(-0.671854084246036,1.18462464548148,0.889391429919428));
#910=CARTESIAN_POINT('Ctrl Pts',(-0.761004619314252,1.24165578175343,0.935502962571739));
#911=CARTESIAN_POINT('Ctrl Pts',(-0.807537431614178,1.26717499347658,0.955392278797783));
#912=CARTESIAN_POINT('Ctrl Pts',(-0.893809822624675,1.30779410603981,0.985366558252111));
#913=CARTESIAN_POINT('Ctrl Pts',(-0.932513492681389,1.32413290871634,0.996859321755095));
#914=CARTESIAN_POINT('Ctrl Pts',(-1.01051567710463,1.35137433865396,1.01547685691736));
#915=CARTESIAN_POINT('Ctrl Pts',(-1.05012903240286,1.36293153394506,1.02289243568295));
#916=CARTESIAN_POINT('Ctrl Pts',(-1.13037909354266,1.38206140244153,1.03390744312304));
#917=CARTESIAN_POINT('Ctrl Pts',(-1.17107281368663,1.38969640557976,1.03750154126704));
#918=CARTESIAN_POINT('Ctrl Pts',(-1.21989307824678,1.3957318096134,1.04011623101607));
#919=CARTESIAN_POINT('Ctrl Pts',(-1.22756064940592,1.39657108027693,1.04047152992045));
#920=CARTESIAN_POINT('Ctrl Pts',(-1.24293806347221,1.39813859026965,1.0410744284188));
#921=CARTESIAN_POINT('Ctrl Pts',(-1.25832057001317,1.39956066494196,1.04154740414497));
#922=CARTESIAN_POINT('Ctrl Pts',(-1.27367910250413,1.4006839631328,1.04176132386095));
#923=CARTESIAN_POINT('Ctrl Pts',(-1.28135608682425,1.40116035746048,1.04181701245885));
#924=CARTESIAN_POINT('Ctrl Pts',(-0.077603800467801,0.340832300310163,0.296446348708637));
#925=CARTESIAN_POINT('Ctrl Pts',(-0.0928773605221306,0.412031535364673,
0.362135149606219));
#926=CARTESIAN_POINT('Ctrl Pts',(-0.134916505230059,0.554179729333213,0.494403865355306));
#927=CARTESIAN_POINT('Ctrl Pts',(-0.200721795666358,0.691742080318418,0.621030086365381));
#928=CARTESIAN_POINT('Ctrl Pts',(-0.278524288289857,0.824838033932244,0.741246523920631));
#929=CARTESIAN_POINT('Ctrl Pts',(-0.323538072952277,0.88862074494464,0.797686919495202));
#930=CARTESIAN_POINT('Ctrl Pts',(-0.409278389827533,0.99158075601548,0.886141252457748));
#931=CARTESIAN_POINT('Ctrl Pts',(-0.446970539234539,1.03257239928338,0.920618604179494));
#932=CARTESIAN_POINT('Ctrl Pts',(-0.528058346187764,1.10944295207017,0.983293719739028));
#933=CARTESIAN_POINT('Ctrl Pts',(-0.571380003589436,1.14589097977652,1.01207116873893));
#934=CARTESIAN_POINT('Ctrl Pts',(-0.663570380867419,1.21410013722893,1.06382845528992));
#935=CARTESIAN_POINT('Ctrl Pts',(-0.712256560016354,1.24549865378394,1.08667163070889));
#936=CARTESIAN_POINT('Ctrl Pts',(-0.803377139720601,1.29665087015537,1.1217773877046));
#937=CARTESIAN_POINT('Ctrl Pts',(-0.844497291047457,1.31745461709822,1.13535143155264));
#938=CARTESIAN_POINT('Ctrl Pts',(-0.928166314429782,1.35394438952678,1.15807735658716));
#939=CARTESIAN_POINT('Ctrl Pts',(-0.971014989913677,1.37012385911394,1.16745894195597));
#940=CARTESIAN_POINT('Ctrl Pts',(-1.05851099318506,1.39819638015918,1.18214269995989));
#941=CARTESIAN_POINT('Ctrl Pts',(-1.10321277358458,1.41013848434401,1.18745005015606));
#942=CARTESIAN_POINT('Ctrl Pts',(-1.15712619243772,1.42142997274597,1.19177735936408));
#943=CARTESIAN_POINT('Ctrl Pts',(-1.16561026505089,1.42310708539038,1.1923962311964));
#944=CARTESIAN_POINT('Ctrl Pts',(-1.18263178012139,1.42631987247743,1.19350527692629));
#945=CARTESIAN_POINT('Ctrl Pts',(-1.19967884242375,1.42936987036501,1.19447276556095));
#946=CARTESIAN_POINT('Ctrl Pts',(-1.2167615302667,1.43209041272144,1.19515664428042));
#947=CARTESIAN_POINT('Ctrl Pts',(-1.22531089695308,1.43336598602636,1.19543833896907));
#948=CARTESIAN_POINT('Ctrl Pts',(0.00446351228321631,0.233701032029073,
0.394250363514214));
#949=CARTESIAN_POINT('Ctrl Pts',(-0.00784480011425591,0.30832546169798,
0.459944316583598));
#950=CARTESIAN_POINT('Ctrl Pts',(-0.0438934932779215,0.457921159162912,
0.592698546165242));
#951=CARTESIAN_POINT('Ctrl Pts',(-0.104802116239614,0.604893851551427,0.721942891245406));
#952=CARTESIAN_POINT('Ctrl Pts',(-0.179103304168711,0.748954855473809,0.846385944601561));
#953=CARTESIAN_POINT('Ctrl Pts',(-0.222935990153581,0.819089495871154,0.905822767168776));
#954=CARTESIAN_POINT('Ctrl Pts',(-0.307530132321952,0.932997223266086,0.999306385414118));
#955=CARTESIAN_POINT('Ctrl Pts',(-0.345034278889822,0.978446488272848,1.03574243957782));
#956=CARTESIAN_POINT('Ctrl Pts',(-0.426695213055129,1.06529798877739,1.10325001309615));
#957=CARTESIAN_POINT('Ctrl Pts',(-0.470904030204167,1.10714943112825,1.13474422192587));
#958=CARTESIAN_POINT('Ctrl Pts',(-0.566137662028349,1.18655184780927,1.19216009989327));
#959=CARTESIAN_POINT('Ctrl Pts',(-0.616984171985274,1.22384450134682,1.21796628533149));
#960=CARTESIAN_POINT('Ctrl Pts',(-0.712935841407265,1.28548912255685,1.25817545055615));
#961=CARTESIAN_POINT('Ctrl Pts',(-0.756472369173112,1.31076958046826,1.27383837720869));
#962=CARTESIAN_POINT('Ctrl Pts',(-0.845824108300459,1.35651928421001,1.30068145161671));
#963=CARTESIAN_POINT('Ctrl Pts',(-0.891897693137079,1.37731434590114,1.3120224248359));
#964=CARTESIAN_POINT('Ctrl Pts',(-0.986644919558632,1.41433157662801,1.33037969894226));
#965=CARTESIAN_POINT('Ctrl Pts',(-1.03534558196174,1.43057194817155,1.33739223768142));
#966=CARTESIAN_POINT('Ctrl Pts',(-1.09436060420215,1.44712960545747,1.34343955260168));
#967=CARTESIAN_POINT('Ctrl Pts',(-1.10365928576404,1.44964218724454,1.34432020778643));
#968=CARTESIAN_POINT('Ctrl Pts',(-1.12232592699022,1.45450169581764,1.345936534862));
#969=CARTESIAN_POINT('Ctrl Pts',(-1.14103676319521,1.45917857278528,1.34739774005064));
#970=CARTESIAN_POINT('Ctrl Pts',(-1.15984419484472,1.46349711739396,1.34855211941944));
#971=CARTESIAN_POINT('Ctrl Pts',(-1.16926570708191,1.46557161459224,1.34905966547929));
#972=CARTESIAN_POINT('Ctrl Pts',(0.0865308250342336,0.126569763747983,0.492054378319792));
#973=CARTESIAN_POINT('Ctrl Pts',(0.0771894614368025,0.204627052559637,0.557758057634148));
#974=CARTESIAN_POINT('Ctrl Pts',(0.0471311388688339,0.361653519254442,0.690993395477338));
#975=CARTESIAN_POINT('Ctrl Pts',(-0.00888580731775335,0.518055531155159,
0.822852782804729));
#976=CARTESIAN_POINT('Ctrl Pts',(-0.079677670316501,0.673061978596505,0.95153063359164));
#977=CARTESIAN_POINT('Ctrl Pts',(-0.122329776441785,0.749530281911259,1.0139458452476));
#978=CARTESIAN_POINT('Ctrl Pts',(-0.205785582572855,0.874434074243103,1.11248097423236));
#979=CARTESIAN_POINT('Ctrl Pts',(-0.2431057332838,0.924330922055025,1.15086902941295));
#980=CARTESIAN_POINT('Ctrl Pts',(-0.325324524416386,1.02114315606537,1.22320417759757));
#981=CARTESIAN_POINT('Ctrl Pts',(-0.370429949547567,1.06841576542329,1.25742396074537));
#982=CARTESIAN_POINT('Ctrl Pts',(-0.468703423581515,1.15899620328477,1.32048559261145));
#983=CARTESIAN_POINT('Ctrl Pts',(-0.52170330038745,1.20216816165418,1.3492456372426));
#984=CARTESIAN_POINT('Ctrl Pts',(-0.622503158503191,1.27434588667241,1.39458628000864));
#985=CARTESIAN_POINT('Ctrl Pts',(-0.668456167539181,1.30409128885014,1.41233048700624));
#986=CARTESIAN_POINT('Ctrl Pts',(-0.763474745625608,1.35908933508283,1.44328195128651));
#987=CARTESIAN_POINT('Ctrl Pts',(-0.812783650647892,1.38450667107002,1.45658893110893));
#988=CARTESIAN_POINT('Ctrl Pts',(-0.914776819201033,1.43046655434566,1.47861495577912));
#989=CARTESIAN_POINT('Ctrl Pts',(-0.967485541859687,1.4510140269358,1.48734074657044));
#990=CARTESIAN_POINT('Ctrl Pts',(-1.03159371839308,1.47282776859004,1.49510068094968));
#991=CARTESIAN_POINT('Ctrl Pts',(-1.04170890140901,1.47617819235799,1.49624490906239));
#992=CARTESIAN_POINT('Ctrl Pts',(-1.0620196436394,1.48268297802543,1.4983673833695));
#993=CARTESIAN_POINT('Ctrl Pts',(-1.08239503560579,1.48898777820833,1.50032310146662));
#994=CARTESIAN_POINT('Ctrl Pts',(-1.1029266226073,1.49490356698261,1.50194743983892));
#995=CARTESIAN_POINT('Ctrl Pts',(-1.11322051721073,1.49777724315812,1.5026809919895));
#996=UNCERTAINTY_MEASURE_WITH_UNIT(LENGTH_MEASURE(0.000393700787401575),
#1001,'DISTANCE_ACCURACY_VALUE',
'Maximum model space distance between geometric entities at asserted c
onnectivities');
#997=UNCERTAINTY_MEASURE_WITH_UNIT(LENGTH_MEASURE(0.000393700787401575),
#1001,'DISTANCE_ACCURACY_VALUE',
'Maximum model space distance between geometric entities at asserted c
onnectivities');
#998=(
GEOMETRIC_REPRESENTATION_CONTEXT(3)
GLOBAL_UNCERTAINTY_ASSIGNED_CONTEXT((#996))
GLOBAL_UNIT_ASSIGNED_CONTEXT((#1001,#1005,#1006))
REPRESENTATION_CONTEXT('','3D')
);
#999=(
GEOMETRIC_REPRESENTATION_CONTEXT(3)
GLOBAL_UNCERTAINTY_ASSIGNED_CONTEXT((#997))
GLOBAL_UNIT_ASSIGNED_CONTEXT((#1001,#1005,#1006))
REPRESENTATION_CONTEXT('','3D')
);
#1000=DIMENSIONAL_EXPONENTS(1.,0.,0.,0.,0.,0.,0.);
#1001=(
CONVERSION_BASED_UNIT('inch',#1004)
LENGTH_UNIT()
NAMED_UNIT(#1000)
);
#1002=(
LENGTH_UNIT()
NAMED_UNIT(*)
SI_UNIT(.MILLI.,.METRE.)
);
#1003=(
LENGTH_UNIT()
NAMED_UNIT(*)
SI_UNIT($,.METRE.)
);
#1004=LENGTH_MEASURE_WITH_UNIT(LENGTH_MEASURE(25.4),#1002);
#1005=(
NAMED_UNIT(*)
PLANE_ANGLE_UNIT()
SI_UNIT($,.RADIAN.)
);
#1006=(
NAMED_UNIT(*)
SI_UNIT($,.STERADIAN.)
SOLID_ANGLE_UNIT()
);
#1007=SHAPE_DEFINITION_REPRESENTATION(#1008,#1009);
#1008=PRODUCT_DEFINITION_SHAPE('',$,#1011);
#1009=SHAPE_REPRESENTATION('',(#328),#998);
#1010=PRODUCT_DEFINITION_CONTEXT('part definition',#1015,'design');
#1011=PRODUCT_DEFINITION('link','link v1',#1012,#1010);
#1012=PRODUCT_DEFINITION_FORMATION('',$,#1017);
#1013=PRODUCT_RELATED_PRODUCT_CATEGORY('link v1','link v1',(#1017));
#1014=APPLICATION_PROTOCOL_DEFINITION('international standard',
'automotive_design',2009,#1015);
#1015=APPLICATION_CONTEXT(
'Core Data for Automotive Mechanical Design Process');
#1016=PRODUCT_CONTEXT('part definition',#1015,'mechanical');
#1017=PRODUCT('link','link v1',$,(#1016));
#1018=PRESENTATION_STYLE_ASSIGNMENT((#1020));
#1019=PRESENTATION_STYLE_ASSIGNMENT((#1021));
#1020=SURFACE_STYLE_USAGE(.BOTH.,#1022);
#1021=SURFACE_STYLE_USAGE(.BOTH.,#1023);
#1022=SURFACE_SIDE_STYLE('',(#1024));
#1023=SURFACE_SIDE_STYLE('',(#1025));
#1024=SURFACE_STYLE_FILL_AREA(#1026);
#1025=SURFACE_STYLE_FILL_AREA(#1027);
#1026=FILL_AREA_STYLE('Steel - Satin',(#1028));
#1027=FILL_AREA_STYLE('Plastic - Glossy (White)',(#1029));
#1028=FILL_AREA_STYLE_COLOUR('Steel - Satin',#1030);
#1029=FILL_AREA_STYLE_COLOUR('Plastic - Glossy (White)',#1031);
#1030=COLOUR_RGB('Steel - Satin',0.627450980392157,0.627450980392157,0.627450980392157);
#1031=COLOUR_RGB('Plastic - Glossy (White)',0.964705882352941,0.964705882352941,
0.952941176470588);
ENDSEC;
END-ISO-10303-21;
