ISO-10303-21;
HEADER;
/* Generated by software containing ST-Developer
 * from STEP Tools, Inc. (www.steptools.com) 
 */

FILE_DESCRIPTION(
/* description */ (''),
/* implementation_level */ '2;1');

FILE_NAME(
/* name */ 'output_disk2.step',
/* time_stamp */ '2026-07-30T17:33:26-04:00',
/* author */ (''),
/* organization */ (''),
/* preprocessor_version */ 'ST-DEVELOPER v20.1',
/* originating_system */ 'Autodesk Translation Framework v15.8.0.0',
/* authorisation */ '');

FILE_SCHEMA (('AUTOMOTIVE_DESIGN { 1 0 10303 214 3 1 1 }'));
ENDSEC;

DATA;
#10=MECHANICAL_DESIGN_GEOMETRIC_PRESENTATION_REPRESENTATION('',(#13),#1182);
#11=SHAPE_REPRESENTATION_RELATIONSHIP('SRR','None',#1192,#12);
#12=ADVANCED_BREP_SHAPE_REPRESENTATION('',(#14),#1181);
#13=STYLED_ITEM('',(#1202),#14);
#14=MANIFOLD_SOLID_BREP('Body1',#694);
#15=CYLINDRICAL_SURFACE('',#718,0.25);
#16=CYLINDRICAL_SURFACE('',#720,0.375);
#17=CYLINDRICAL_SURFACE('',#723,2.);
#18=CYLINDRICAL_SURFACE('',#726,0.1);
#19=CYLINDRICAL_SURFACE('',#731,0.1);
#20=CYLINDRICAL_SURFACE('',#736,0.1);
#21=CYLINDRICAL_SURFACE('',#741,1.24212598425197);
#22=CYLINDRICAL_SURFACE('',#746,1.24212598425197);
#23=CYLINDRICAL_SURFACE('',#749,1.24212598425197);
#24=CYLINDRICAL_SURFACE('',#753,1.8);
#25=CYLINDRICAL_SURFACE('',#757,0.05);
#26=CYLINDRICAL_SURFACE('',#760,1.8);
#27=CYLINDRICAL_SURFACE('',#763,0.05);
#28=CYLINDRICAL_SURFACE('',#765,1.8);
#29=CYLINDRICAL_SURFACE('',#769,0.841771653543307);
#30=CYLINDRICAL_SURFACE('',#772,0.0499999999999999);
#31=CYLINDRICAL_SURFACE('',#776,0.2);
#32=FACE_BOUND('',#129,.T.);
#33=FACE_BOUND('',#136,.T.);
#34=FACE_BOUND('',#139,.T.);
#35=FACE_BOUND('',#142,.T.);
#36=FACE_BOUND('',#160,.T.);
#37=FACE_BOUND('',#161,.T.);
#38=FACE_BOUND('',#162,.T.);
#39=FACE_BOUND('',#163,.T.);
#40=FACE_BOUND('',#164,.T.);
#41=FACE_BOUND('',#165,.T.);
#42=FACE_BOUND('',#166,.T.);
#43=FACE_BOUND('',#168,.T.);
#44=FACE_BOUND('',#169,.T.);
#45=FACE_BOUND('',#170,.T.);
#46=FACE_BOUND('',#171,.T.);
#47=FACE_BOUND('',#172,.T.);
#48=FACE_BOUND('',#173,.T.);
#49=FACE_BOUND('',#174,.T.);
#50=FACE_BOUND('',#177,.T.);
#51=FACE_BOUND('',#179,.T.);
#52=CIRCLE('',#716,0.375);
#53=CIRCLE('',#717,0.25);
#54=CIRCLE('',#719,0.25);
#55=CIRCLE('',#721,0.375);
#56=CIRCLE('',#724,2.);
#57=CIRCLE('',#725,2.);
#58=CIRCLE('',#727,0.1);
#59=CIRCLE('',#728,0.1);
#60=CIRCLE('',#730,0.0499999999999999);
#61=CIRCLE('',#732,0.1);
#62=CIRCLE('',#733,0.1);
#63=CIRCLE('',#735,0.05);
#64=CIRCLE('',#737,0.1);
#65=CIRCLE('',#738,0.1);
#66=CIRCLE('',#740,0.05);
#67=CIRCLE('',#742,1.24212598425197);
#68=CIRCLE('',#743,1.24212598425197);
#69=CIRCLE('',#747,1.24212598425197);
#70=CIRCLE('',#748,1.24212598425197);
#71=CIRCLE('',#750,1.24212598425197);
#72=CIRCLE('',#751,1.24212598425197);
#73=CIRCLE('',#754,1.8);
#74=CIRCLE('',#755,1.8);
#75=CIRCLE('',#758,0.05);
#76=CIRCLE('',#761,1.8);
#77=CIRCLE('',#762,1.8);
#78=CIRCLE('',#764,0.05);
#79=CIRCLE('',#766,1.8);
#80=CIRCLE('',#767,1.8);
#81=CIRCLE('',#770,0.841771653543307);
#82=CIRCLE('',#771,0.841771653543307);
#83=CIRCLE('',#773,0.0499999999999999);
#84=CIRCLE('',#777,0.2);
#85=CIRCLE('',#778,0.2);
#86=FACE_OUTER_BOUND('',#123,.T.);
#87=FACE_OUTER_BOUND('',#124,.T.);
#88=FACE_OUTER_BOUND('',#125,.T.);
#89=FACE_OUTER_BOUND('',#126,.T.);
#90=FACE_OUTER_BOUND('',#127,.T.);
#91=FACE_OUTER_BOUND('',#128,.T.);
#92=FACE_OUTER_BOUND('',#130,.T.);
#93=FACE_OUTER_BOUND('',#131,.T.);
#94=FACE_OUTER_BOUND('',#132,.T.);
#95=FACE_OUTER_BOUND('',#133,.T.);
#96=FACE_OUTER_BOUND('',#134,.T.);
#97=FACE_OUTER_BOUND('',#135,.T.);
#98=FACE_OUTER_BOUND('',#137,.T.);
#99=FACE_OUTER_BOUND('',#138,.T.);
#100=FACE_OUTER_BOUND('',#140,.T.);
#101=FACE_OUTER_BOUND('',#141,.T.);
#102=FACE_OUTER_BOUND('',#143,.T.);
#103=FACE_OUTER_BOUND('',#144,.T.);
#104=FACE_OUTER_BOUND('',#145,.T.);
#105=FACE_OUTER_BOUND('',#146,.T.);
#106=FACE_OUTER_BOUND('',#147,.T.);
#107=FACE_OUTER_BOUND('',#148,.T.);
#108=FACE_OUTER_BOUND('',#149,.T.);
#109=FACE_OUTER_BOUND('',#150,.T.);
#110=FACE_OUTER_BOUND('',#151,.T.);
#111=FACE_OUTER_BOUND('',#152,.T.);
#112=FACE_OUTER_BOUND('',#153,.T.);
#113=FACE_OUTER_BOUND('',#154,.T.);
#114=FACE_OUTER_BOUND('',#155,.T.);
#115=FACE_OUTER_BOUND('',#156,.T.);
#116=FACE_OUTER_BOUND('',#157,.T.);
#117=FACE_OUTER_BOUND('',#158,.T.);
#118=FACE_OUTER_BOUND('',#159,.T.);
#119=FACE_OUTER_BOUND('',#167,.T.);
#120=FACE_OUTER_BOUND('',#175,.T.);
#121=FACE_OUTER_BOUND('',#176,.T.);
#122=FACE_OUTER_BOUND('',#178,.T.);
#123=EDGE_LOOP('',(#451,#452,#453,#454,#455,#456));
#124=EDGE_LOOP('',(#457,#458,#459,#460));
#125=EDGE_LOOP('',(#461,#462,#463,#464));
#126=EDGE_LOOP('',(#465,#466,#467,#468));
#127=EDGE_LOOP('',(#469,#470,#471,#472,#473,#474,#475,#476,#477));
#128=EDGE_LOOP('',(#478,#479,#480,#481));
#129=EDGE_LOOP('',(#482));
#130=EDGE_LOOP('',(#483,#484,#485,#486));
#131=EDGE_LOOP('',(#487,#488,#489,#490));
#132=EDGE_LOOP('',(#491,#492,#493,#494,#495,#496,#497,#498,#499));
#133=EDGE_LOOP('',(#500,#501,#502,#503,#504,#505));
#134=EDGE_LOOP('',(#506,#507,#508,#509));
#135=EDGE_LOOP('',(#510));
#136=EDGE_LOOP('',(#511));
#137=EDGE_LOOP('',(#512,#513,#514,#515));
#138=EDGE_LOOP('',(#516));
#139=EDGE_LOOP('',(#517));
#140=EDGE_LOOP('',(#518,#519,#520,#521));
#141=EDGE_LOOP('',(#522));
#142=EDGE_LOOP('',(#523));
#143=EDGE_LOOP('',(#524,#525,#526,#527));
#144=EDGE_LOOP('',(#528,#529,#530,#531));
#145=EDGE_LOOP('',(#532,#533,#534,#535));
#146=EDGE_LOOP('',(#536,#537,#538,#539));
#147=EDGE_LOOP('',(#540,#541,#542,#543));
#148=EDGE_LOOP('',(#544,#545,#546,#547));
#149=EDGE_LOOP('',(#548,#549,#550,#551));
#150=EDGE_LOOP('',(#552,#553,#554,#555));
#151=EDGE_LOOP('',(#556,#557,#558,#559));
#152=EDGE_LOOP('',(#560,#561,#562,#563));
#153=EDGE_LOOP('',(#564,#565,#566,#567));
#154=EDGE_LOOP('',(#568,#569,#570,#571));
#155=EDGE_LOOP('',(#572,#573,#574,#575));
#156=EDGE_LOOP('',(#576,#577,#578,#579));
#157=EDGE_LOOP('',(#580,#581,#582,#583));
#158=EDGE_LOOP('',(#584,#585,#586,#587));
#159=EDGE_LOOP('',(#588,#589,#590,#591));
#160=EDGE_LOOP('',(#592));
#161=EDGE_LOOP('',(#593));
#162=EDGE_LOOP('',(#594,#595,#596,#597));
#163=EDGE_LOOP('',(#598));
#164=EDGE_LOOP('',(#599,#600,#601,#602));
#165=EDGE_LOOP('',(#603));
#166=EDGE_LOOP('',(#604,#605,#606,#607));
#167=EDGE_LOOP('',(#608,#609));
#168=EDGE_LOOP('',(#610));
#169=EDGE_LOOP('',(#611,#612,#613,#614));
#170=EDGE_LOOP('',(#615,#616,#617,#618));
#171=EDGE_LOOP('',(#619,#620,#621,#622));
#172=EDGE_LOOP('',(#623));
#173=EDGE_LOOP('',(#624));
#174=EDGE_LOOP('',(#625));
#175=EDGE_LOOP('',(#626,#627,#628,#629));
#176=EDGE_LOOP('',(#630));
#177=EDGE_LOOP('',(#631));
#178=EDGE_LOOP('',(#632,#633,#634,#635));
#179=EDGE_LOOP('',(#636));
#180=LINE('',#992,#237);
#181=LINE('',#996,#238);
#182=LINE('',#998,#239);
#183=LINE('',#999,#240);
#184=LINE('',#1002,#241);
#185=LINE('',#1004,#242);
#186=LINE('',#1005,#243);
#187=LINE('',#1009,#244);
#188=LINE('',#1011,#245);
#189=LINE('',#1013,#246);
#190=LINE('',#1014,#247);
#191=LINE('',#1017,#248);
#192=LINE('',#1019,#249);
#193=LINE('',#1020,#250);
#194=LINE('',#1023,#251);
#195=LINE('',#1024,#252);
#196=LINE('',#1026,#253);
#197=LINE('',#1028,#254);
#198=LINE('',#1029,#255);
#199=LINE('',#1033,#256);
#200=LINE('',#1038,#257);
#201=LINE('',#1043,#258);
#202=LINE('',#1045,#259);
#203=LINE('',#1047,#260);
#204=LINE('',#1048,#261);
#205=LINE('',#1056,#262);
#206=LINE('',#1065,#263);
#207=LINE('',#1074,#264);
#208=LINE('',#1084,#265);
#209=LINE('',#1087,#266);
#210=LINE('',#1090,#267);
#211=LINE('',#1092,#268);
#212=LINE('',#1093,#269);
#213=LINE('',#1097,#270);
#214=LINE('',#1099,#271);
#215=LINE('',#1101,#272);
#216=LINE('',#1102,#273);
#217=LINE('',#1107,#274);
#218=LINE('',#1114,#275);
#219=LINE('',#1117,#276);
#220=LINE('',#1120,#277);
#221=LINE('',#1122,#278);
#222=LINE('',#1123,#279);
#223=LINE('',#1128,#280);
#224=LINE('',#1131,#281);
#225=LINE('',#1132,#282);
#226=LINE('',#1135,#283);
#227=LINE('',#1139,#284);
#228=LINE('',#1141,#285);
#229=LINE('',#1142,#286);
#230=LINE('',#1148,#287);
#231=LINE('',#1154,#288);
#232=LINE('',#1157,#289);
#233=LINE('',#1158,#290);
#234=LINE('',#1163,#291);
#235=LINE('',#1167,#292);
#236=LINE('',#1175,#293);
#237=VECTOR('',#787,0.393700787401575);
#238=VECTOR('',#790,0.393700787401575);
#239=VECTOR('',#791,0.393700787401575);
#240=VECTOR('',#792,0.393700787401575);
#241=VECTOR('',#795,0.393700787401575);
#242=VECTOR('',#796,0.393700787401575);
#243=VECTOR('',#797,0.393700787401575);
#244=VECTOR('',#800,0.393700787401575);
#245=VECTOR('',#801,0.393700787401575);
#246=VECTOR('',#802,0.393700787401575);
#247=VECTOR('',#803,0.393700787401575);
#248=VECTOR('',#806,0.393700787401575);
#249=VECTOR('',#807,0.393700787401575);
#250=VECTOR('',#808,0.393700787401575);
#251=VECTOR('',#811,0.393700787401575);
#252=VECTOR('',#812,0.393700787401575);
#253=VECTOR('',#813,0.393700787401575);
#254=VECTOR('',#814,0.393700787401575);
#255=VECTOR('',#815,0.393700787401575);
#256=VECTOR('',#820,0.393700787401575);
#257=VECTOR('',#825,0.25);
#258=VECTOR('',#832,0.393700787401575);
#259=VECTOR('',#835,0.393700787401575);
#260=VECTOR('',#836,0.393700787401575);
#261=VECTOR('',#837,0.393700787401575);
#262=VECTOR('',#848,0.1);
#263=VECTOR('',#859,0.1);
#264=VECTOR('',#870,0.1);
#265=VECTOR('',#881,0.393700787401575);
#266=VECTOR('',#884,0.393700787401575);
#267=VECTOR('',#887,0.393700787401575);
#268=VECTOR('',#888,0.393700787401575);
#269=VECTOR('',#889,0.393700787401575);
#270=VECTOR('',#892,0.393700787401575);
#271=VECTOR('',#893,0.393700787401575);
#272=VECTOR('',#894,0.393700787401575);
#273=VECTOR('',#895,0.393700787401575);
#274=VECTOR('',#900,0.393700787401575);
#275=VECTOR('',#907,0.393700787401575);
#276=VECTOR('',#910,0.393700787401575);
#277=VECTOR('',#913,0.393700787401575);
#278=VECTOR('',#914,0.393700787401575);
#279=VECTOR('',#915,0.393700787401575);
#280=VECTOR('',#920,0.393700787401575);
#281=VECTOR('',#925,0.393700787401575);
#282=VECTOR('',#926,0.393700787401575);
#283=VECTOR('',#929,0.05);
#284=VECTOR('',#934,0.393700787401575);
#285=VECTOR('',#935,0.393700787401575);
#286=VECTOR('',#936,0.393700787401575);
#287=VECTOR('',#945,0.05);
#288=VECTOR('',#952,0.393700787401575);
#289=VECTOR('',#957,0.393700787401575);
#290=VECTOR('',#958,0.393700787401575);
#291=VECTOR('',#963,0.841771653543307);
#292=VECTOR('',#968,0.0499999999999999);
#293=VECTOR('',#979,0.2);
#294=ELLIPSE('',#709,2.82842712474619,2.);
#295=ELLIPSE('',#710,2.82842712474619,2.);
#296=VERTEX_POINT('',#988);
#297=VERTEX_POINT('',#989);
#298=VERTEX_POINT('',#991);
#299=VERTEX_POINT('',#993);
#300=VERTEX_POINT('',#995);
#301=VERTEX_POINT('',#997);
#302=VERTEX_POINT('',#1001);
#303=VERTEX_POINT('',#1003);
#304=VERTEX_POINT('',#1007);
#305=VERTEX_POINT('',#1008);
#306=VERTEX_POINT('',#1010);
#307=VERTEX_POINT('',#1012);
#308=VERTEX_POINT('',#1016);
#309=VERTEX_POINT('',#1018);
#310=VERTEX_POINT('',#1022);
#311=VERTEX_POINT('',#1025);
#312=VERTEX_POINT('',#1027);
#313=VERTEX_POINT('',#1031);
#314=VERTEX_POINT('',#1034);
#315=VERTEX_POINT('',#1037);
#316=VERTEX_POINT('',#1041);
#317=VERTEX_POINT('',#1046);
#318=VERTEX_POINT('',#1053);
#319=VERTEX_POINT('',#1055);
#320=VERTEX_POINT('',#1059);
#321=VERTEX_POINT('',#1062);
#322=VERTEX_POINT('',#1064);
#323=VERTEX_POINT('',#1068);
#324=VERTEX_POINT('',#1071);
#325=VERTEX_POINT('',#1073);
#326=VERTEX_POINT('',#1077);
#327=VERTEX_POINT('',#1080);
#328=VERTEX_POINT('',#1081);
#329=VERTEX_POINT('',#1083);
#330=VERTEX_POINT('',#1085);
#331=VERTEX_POINT('',#1089);
#332=VERTEX_POINT('',#1091);
#333=VERTEX_POINT('',#1095);
#334=VERTEX_POINT('',#1096);
#335=VERTEX_POINT('',#1098);
#336=VERTEX_POINT('',#1100);
#337=VERTEX_POINT('',#1104);
#338=VERTEX_POINT('',#1106);
#339=VERTEX_POINT('',#1110);
#340=VERTEX_POINT('',#1111);
#341=VERTEX_POINT('',#1113);
#342=VERTEX_POINT('',#1115);
#343=VERTEX_POINT('',#1119);
#344=VERTEX_POINT('',#1121);
#345=VERTEX_POINT('',#1125);
#346=VERTEX_POINT('',#1127);
#347=VERTEX_POINT('',#1134);
#348=VERTEX_POINT('',#1138);
#349=VERTEX_POINT('',#1140);
#350=VERTEX_POINT('',#1147);
#351=VERTEX_POINT('',#1151);
#352=VERTEX_POINT('',#1153);
#353=VERTEX_POINT('',#1160);
#354=VERTEX_POINT('',#1162);
#355=VERTEX_POINT('',#1166);
#356=VERTEX_POINT('',#1172);
#357=VERTEX_POINT('',#1174);
#358=EDGE_CURVE('',#296,#297,#294,.F.);
#359=EDGE_CURVE('',#296,#298,#180,.T.);
#360=EDGE_CURVE('',#298,#299,#295,.T.);
#361=EDGE_CURVE('',#299,#300,#181,.T.);
#362=EDGE_CURVE('',#300,#301,#182,.T.);
#363=EDGE_CURVE('',#297,#301,#183,.F.);
#364=EDGE_CURVE('',#300,#302,#184,.T.);
#365=EDGE_CURVE('',#302,#303,#185,.T.);
#366=EDGE_CURVE('',#301,#303,#186,.T.);
#367=EDGE_CURVE('',#304,#305,#187,.T.);
#368=EDGE_CURVE('',#305,#306,#188,.T.);
#369=EDGE_CURVE('',#306,#307,#189,.T.);
#370=EDGE_CURVE('',#307,#304,#190,.T.);
#371=EDGE_CURVE('',#305,#308,#191,.T.);
#372=EDGE_CURVE('',#308,#309,#192,.T.);
#373=EDGE_CURVE('',#306,#309,#193,.T.);
#374=EDGE_CURVE('',#304,#310,#194,.T.);
#375=EDGE_CURVE('',#297,#310,#195,.T.);
#376=EDGE_CURVE('',#303,#311,#196,.T.);
#377=EDGE_CURVE('',#311,#312,#197,.T.);
#378=EDGE_CURVE('',#308,#312,#198,.T.);
#379=EDGE_CURVE('',#312,#313,#52,.T.);
#380=EDGE_CURVE('',#313,#309,#199,.T.);
#381=EDGE_CURVE('',#314,#314,#53,.T.);
#382=EDGE_CURVE('',#314,#315,#200,.T.);
#383=EDGE_CURVE('',#315,#315,#54,.T.);
#384=EDGE_CURVE('',#311,#316,#55,.T.);
#385=EDGE_CURVE('',#316,#313,#201,.T.);
#386=EDGE_CURVE('',#302,#316,#202,.T.);
#387=EDGE_CURVE('',#299,#317,#203,.F.);
#388=EDGE_CURVE('',#317,#307,#204,.T.);
#389=EDGE_CURVE('',#310,#317,#56,.T.);
#390=EDGE_CURVE('',#298,#296,#57,.F.);
#391=EDGE_CURVE('',#318,#318,#58,.T.);
#392=EDGE_CURVE('',#318,#319,#205,.T.);
#393=EDGE_CURVE('',#319,#319,#59,.T.);
#394=EDGE_CURVE('',#320,#320,#60,.T.);
#395=EDGE_CURVE('',#321,#321,#61,.T.);
#396=EDGE_CURVE('',#321,#322,#206,.T.);
#397=EDGE_CURVE('',#322,#322,#62,.T.);
#398=EDGE_CURVE('',#323,#323,#63,.T.);
#399=EDGE_CURVE('',#324,#324,#64,.T.);
#400=EDGE_CURVE('',#324,#325,#207,.T.);
#401=EDGE_CURVE('',#325,#325,#65,.T.);
#402=EDGE_CURVE('',#326,#326,#66,.T.);
#403=EDGE_CURVE('',#327,#328,#67,.F.);
#404=EDGE_CURVE('',#329,#328,#208,.T.);
#405=EDGE_CURVE('',#329,#330,#68,.T.);
#406=EDGE_CURVE('',#330,#327,#209,.T.);
#407=EDGE_CURVE('',#328,#331,#210,.F.);
#408=EDGE_CURVE('',#332,#331,#211,.T.);
#409=EDGE_CURVE('',#332,#329,#212,.T.);
#410=EDGE_CURVE('',#333,#334,#213,.F.);
#411=EDGE_CURVE('',#335,#334,#214,.T.);
#412=EDGE_CURVE('',#335,#336,#215,.T.);
#413=EDGE_CURVE('',#336,#333,#216,.T.);
#414=EDGE_CURVE('',#334,#337,#69,.F.);
#415=EDGE_CURVE('',#338,#337,#217,.T.);
#416=EDGE_CURVE('',#338,#335,#70,.T.);
#417=EDGE_CURVE('',#339,#340,#71,.F.);
#418=EDGE_CURVE('',#341,#340,#218,.T.);
#419=EDGE_CURVE('',#341,#342,#72,.T.);
#420=EDGE_CURVE('',#342,#339,#219,.T.);
#421=EDGE_CURVE('',#340,#343,#220,.F.);
#422=EDGE_CURVE('',#344,#343,#221,.T.);
#423=EDGE_CURVE('',#344,#341,#222,.T.);
#424=EDGE_CURVE('',#331,#345,#73,.F.);
#425=EDGE_CURVE('',#346,#345,#223,.T.);
#426=EDGE_CURVE('',#346,#332,#74,.T.);
#427=EDGE_CURVE('',#345,#327,#224,.F.);
#428=EDGE_CURVE('',#330,#346,#225,.T.);
#429=EDGE_CURVE('',#323,#347,#226,.T.);
#430=EDGE_CURVE('',#347,#347,#75,.T.);
#431=EDGE_CURVE('',#337,#348,#227,.F.);
#432=EDGE_CURVE('',#349,#348,#228,.T.);
#433=EDGE_CURVE('',#349,#338,#229,.T.);
#434=EDGE_CURVE('',#348,#333,#76,.F.);
#435=EDGE_CURVE('',#336,#349,#77,.T.);
#436=EDGE_CURVE('',#326,#350,#230,.T.);
#437=EDGE_CURVE('',#350,#350,#78,.T.);
#438=EDGE_CURVE('',#343,#351,#79,.F.);
#439=EDGE_CURVE('',#352,#351,#231,.T.);
#440=EDGE_CURVE('',#352,#344,#80,.T.);
#441=EDGE_CURVE('',#351,#339,#232,.F.);
#442=EDGE_CURVE('',#342,#352,#233,.T.);
#443=EDGE_CURVE('',#353,#353,#81,.F.);
#444=EDGE_CURVE('',#353,#354,#234,.T.);
#445=EDGE_CURVE('',#354,#354,#82,.T.);
#446=EDGE_CURVE('',#320,#355,#235,.T.);
#447=EDGE_CURVE('',#355,#355,#83,.T.);
#448=EDGE_CURVE('',#356,#356,#84,.T.);
#449=EDGE_CURVE('',#356,#357,#236,.T.);
#450=EDGE_CURVE('',#357,#357,#85,.T.);
#451=ORIENTED_EDGE('',*,*,#358,.F.);
#452=ORIENTED_EDGE('',*,*,#359,.T.);
#453=ORIENTED_EDGE('',*,*,#360,.T.);
#454=ORIENTED_EDGE('',*,*,#361,.T.);
#455=ORIENTED_EDGE('',*,*,#362,.T.);
#456=ORIENTED_EDGE('',*,*,#363,.F.);
#457=ORIENTED_EDGE('',*,*,#362,.F.);
#458=ORIENTED_EDGE('',*,*,#364,.T.);
#459=ORIENTED_EDGE('',*,*,#365,.T.);
#460=ORIENTED_EDGE('',*,*,#366,.F.);
#461=ORIENTED_EDGE('',*,*,#367,.T.);
#462=ORIENTED_EDGE('',*,*,#368,.T.);
#463=ORIENTED_EDGE('',*,*,#369,.T.);
#464=ORIENTED_EDGE('',*,*,#370,.T.);
#465=ORIENTED_EDGE('',*,*,#368,.F.);
#466=ORIENTED_EDGE('',*,*,#371,.T.);
#467=ORIENTED_EDGE('',*,*,#372,.T.);
#468=ORIENTED_EDGE('',*,*,#373,.F.);
#469=ORIENTED_EDGE('',*,*,#367,.F.);
#470=ORIENTED_EDGE('',*,*,#374,.T.);
#471=ORIENTED_EDGE('',*,*,#375,.F.);
#472=ORIENTED_EDGE('',*,*,#363,.T.);
#473=ORIENTED_EDGE('',*,*,#366,.T.);
#474=ORIENTED_EDGE('',*,*,#376,.T.);
#475=ORIENTED_EDGE('',*,*,#377,.T.);
#476=ORIENTED_EDGE('',*,*,#378,.F.);
#477=ORIENTED_EDGE('',*,*,#371,.F.);
#478=ORIENTED_EDGE('',*,*,#372,.F.);
#479=ORIENTED_EDGE('',*,*,#378,.T.);
#480=ORIENTED_EDGE('',*,*,#379,.T.);
#481=ORIENTED_EDGE('',*,*,#380,.T.);
#482=ORIENTED_EDGE('',*,*,#381,.T.);
#483=ORIENTED_EDGE('',*,*,#381,.F.);
#484=ORIENTED_EDGE('',*,*,#382,.T.);
#485=ORIENTED_EDGE('',*,*,#383,.F.);
#486=ORIENTED_EDGE('',*,*,#382,.F.);
#487=ORIENTED_EDGE('',*,*,#384,.T.);
#488=ORIENTED_EDGE('',*,*,#385,.T.);
#489=ORIENTED_EDGE('',*,*,#379,.F.);
#490=ORIENTED_EDGE('',*,*,#377,.F.);
#491=ORIENTED_EDGE('',*,*,#369,.F.);
#492=ORIENTED_EDGE('',*,*,#373,.T.);
#493=ORIENTED_EDGE('',*,*,#380,.F.);
#494=ORIENTED_EDGE('',*,*,#385,.F.);
#495=ORIENTED_EDGE('',*,*,#386,.F.);
#496=ORIENTED_EDGE('',*,*,#364,.F.);
#497=ORIENTED_EDGE('',*,*,#361,.F.);
#498=ORIENTED_EDGE('',*,*,#387,.T.);
#499=ORIENTED_EDGE('',*,*,#388,.T.);
#500=ORIENTED_EDGE('',*,*,#375,.T.);
#501=ORIENTED_EDGE('',*,*,#389,.T.);
#502=ORIENTED_EDGE('',*,*,#387,.F.);
#503=ORIENTED_EDGE('',*,*,#360,.F.);
#504=ORIENTED_EDGE('',*,*,#390,.T.);
#505=ORIENTED_EDGE('',*,*,#358,.T.);
#506=ORIENTED_EDGE('',*,*,#391,.F.);
#507=ORIENTED_EDGE('',*,*,#392,.T.);
#508=ORIENTED_EDGE('',*,*,#393,.T.);
#509=ORIENTED_EDGE('',*,*,#392,.F.);
#510=ORIENTED_EDGE('',*,*,#393,.F.);
#511=ORIENTED_EDGE('',*,*,#394,.F.);
#512=ORIENTED_EDGE('',*,*,#395,.F.);
#513=ORIENTED_EDGE('',*,*,#396,.T.);
#514=ORIENTED_EDGE('',*,*,#397,.T.);
#515=ORIENTED_EDGE('',*,*,#396,.F.);
#516=ORIENTED_EDGE('',*,*,#397,.F.);
#517=ORIENTED_EDGE('',*,*,#398,.F.);
#518=ORIENTED_EDGE('',*,*,#399,.F.);
#519=ORIENTED_EDGE('',*,*,#400,.T.);
#520=ORIENTED_EDGE('',*,*,#401,.T.);
#521=ORIENTED_EDGE('',*,*,#400,.F.);
#522=ORIENTED_EDGE('',*,*,#401,.F.);
#523=ORIENTED_EDGE('',*,*,#402,.F.);
#524=ORIENTED_EDGE('',*,*,#403,.T.);
#525=ORIENTED_EDGE('',*,*,#404,.F.);
#526=ORIENTED_EDGE('',*,*,#405,.T.);
#527=ORIENTED_EDGE('',*,*,#406,.T.);
#528=ORIENTED_EDGE('',*,*,#407,.T.);
#529=ORIENTED_EDGE('',*,*,#408,.F.);
#530=ORIENTED_EDGE('',*,*,#409,.T.);
#531=ORIENTED_EDGE('',*,*,#404,.T.);
#532=ORIENTED_EDGE('',*,*,#410,.T.);
#533=ORIENTED_EDGE('',*,*,#411,.F.);
#534=ORIENTED_EDGE('',*,*,#412,.T.);
#535=ORIENTED_EDGE('',*,*,#413,.T.);
#536=ORIENTED_EDGE('',*,*,#414,.T.);
#537=ORIENTED_EDGE('',*,*,#415,.F.);
#538=ORIENTED_EDGE('',*,*,#416,.T.);
#539=ORIENTED_EDGE('',*,*,#411,.T.);
#540=ORIENTED_EDGE('',*,*,#417,.T.);
#541=ORIENTED_EDGE('',*,*,#418,.F.);
#542=ORIENTED_EDGE('',*,*,#419,.T.);
#543=ORIENTED_EDGE('',*,*,#420,.T.);
#544=ORIENTED_EDGE('',*,*,#421,.T.);
#545=ORIENTED_EDGE('',*,*,#422,.F.);
#546=ORIENTED_EDGE('',*,*,#423,.T.);
#547=ORIENTED_EDGE('',*,*,#418,.T.);
#548=ORIENTED_EDGE('',*,*,#424,.T.);
#549=ORIENTED_EDGE('',*,*,#425,.F.);
#550=ORIENTED_EDGE('',*,*,#426,.T.);
#551=ORIENTED_EDGE('',*,*,#408,.T.);
#552=ORIENTED_EDGE('',*,*,#427,.T.);
#553=ORIENTED_EDGE('',*,*,#406,.F.);
#554=ORIENTED_EDGE('',*,*,#428,.T.);
#555=ORIENTED_EDGE('',*,*,#425,.T.);
#556=ORIENTED_EDGE('',*,*,#398,.T.);
#557=ORIENTED_EDGE('',*,*,#429,.T.);
#558=ORIENTED_EDGE('',*,*,#430,.T.);
#559=ORIENTED_EDGE('',*,*,#429,.F.);
#560=ORIENTED_EDGE('',*,*,#431,.T.);
#561=ORIENTED_EDGE('',*,*,#432,.F.);
#562=ORIENTED_EDGE('',*,*,#433,.T.);
#563=ORIENTED_EDGE('',*,*,#415,.T.);
#564=ORIENTED_EDGE('',*,*,#434,.T.);
#565=ORIENTED_EDGE('',*,*,#413,.F.);
#566=ORIENTED_EDGE('',*,*,#435,.T.);
#567=ORIENTED_EDGE('',*,*,#432,.T.);
#568=ORIENTED_EDGE('',*,*,#402,.T.);
#569=ORIENTED_EDGE('',*,*,#436,.T.);
#570=ORIENTED_EDGE('',*,*,#437,.T.);
#571=ORIENTED_EDGE('',*,*,#436,.F.);
#572=ORIENTED_EDGE('',*,*,#438,.T.);
#573=ORIENTED_EDGE('',*,*,#439,.F.);
#574=ORIENTED_EDGE('',*,*,#440,.T.);
#575=ORIENTED_EDGE('',*,*,#422,.T.);
#576=ORIENTED_EDGE('',*,*,#441,.T.);
#577=ORIENTED_EDGE('',*,*,#420,.F.);
#578=ORIENTED_EDGE('',*,*,#442,.T.);
#579=ORIENTED_EDGE('',*,*,#439,.T.);
#580=ORIENTED_EDGE('',*,*,#443,.T.);
#581=ORIENTED_EDGE('',*,*,#444,.T.);
#582=ORIENTED_EDGE('',*,*,#445,.T.);
#583=ORIENTED_EDGE('',*,*,#444,.F.);
#584=ORIENTED_EDGE('',*,*,#394,.T.);
#585=ORIENTED_EDGE('',*,*,#446,.T.);
#586=ORIENTED_EDGE('',*,*,#447,.T.);
#587=ORIENTED_EDGE('',*,*,#446,.F.);
#588=ORIENTED_EDGE('',*,*,#370,.F.);
#589=ORIENTED_EDGE('',*,*,#388,.F.);
#590=ORIENTED_EDGE('',*,*,#389,.F.);
#591=ORIENTED_EDGE('',*,*,#374,.F.);
#592=ORIENTED_EDGE('',*,*,#447,.F.);
#593=ORIENTED_EDGE('',*,*,#445,.F.);
#594=ORIENTED_EDGE('',*,*,#423,.F.);
#595=ORIENTED_EDGE('',*,*,#440,.F.);
#596=ORIENTED_EDGE('',*,*,#442,.F.);
#597=ORIENTED_EDGE('',*,*,#419,.F.);
#598=ORIENTED_EDGE('',*,*,#437,.F.);
#599=ORIENTED_EDGE('',*,*,#416,.F.);
#600=ORIENTED_EDGE('',*,*,#433,.F.);
#601=ORIENTED_EDGE('',*,*,#435,.F.);
#602=ORIENTED_EDGE('',*,*,#412,.F.);
#603=ORIENTED_EDGE('',*,*,#430,.F.);
#604=ORIENTED_EDGE('',*,*,#409,.F.);
#605=ORIENTED_EDGE('',*,*,#426,.F.);
#606=ORIENTED_EDGE('',*,*,#428,.F.);
#607=ORIENTED_EDGE('',*,*,#405,.F.);
#608=ORIENTED_EDGE('',*,*,#359,.F.);
#609=ORIENTED_EDGE('',*,*,#390,.F.);
#610=ORIENTED_EDGE('',*,*,#443,.F.);
#611=ORIENTED_EDGE('',*,*,#438,.F.);
#612=ORIENTED_EDGE('',*,*,#421,.F.);
#613=ORIENTED_EDGE('',*,*,#417,.F.);
#614=ORIENTED_EDGE('',*,*,#441,.F.);
#615=ORIENTED_EDGE('',*,*,#431,.F.);
#616=ORIENTED_EDGE('',*,*,#414,.F.);
#617=ORIENTED_EDGE('',*,*,#410,.F.);
#618=ORIENTED_EDGE('',*,*,#434,.F.);
#619=ORIENTED_EDGE('',*,*,#424,.F.);
#620=ORIENTED_EDGE('',*,*,#407,.F.);
#621=ORIENTED_EDGE('',*,*,#403,.F.);
#622=ORIENTED_EDGE('',*,*,#427,.F.);
#623=ORIENTED_EDGE('',*,*,#399,.T.);
#624=ORIENTED_EDGE('',*,*,#395,.T.);
#625=ORIENTED_EDGE('',*,*,#391,.T.);
#626=ORIENTED_EDGE('',*,*,#448,.F.);
#627=ORIENTED_EDGE('',*,*,#449,.T.);
#628=ORIENTED_EDGE('',*,*,#450,.T.);
#629=ORIENTED_EDGE('',*,*,#449,.F.);
#630=ORIENTED_EDGE('',*,*,#383,.T.);
#631=ORIENTED_EDGE('',*,*,#448,.T.);
#632=ORIENTED_EDGE('',*,*,#365,.F.);
#633=ORIENTED_EDGE('',*,*,#386,.T.);
#634=ORIENTED_EDGE('',*,*,#384,.F.);
#635=ORIENTED_EDGE('',*,*,#376,.F.);
#636=ORIENTED_EDGE('',*,*,#450,.F.);
#637=PLANE('',#708);
#638=PLANE('',#711);
#639=PLANE('',#712);
#640=PLANE('',#713);
#641=PLANE('',#714);
#642=PLANE('',#715);
#643=PLANE('',#722);
#644=PLANE('',#729);
#645=PLANE('',#734);
#646=PLANE('',#739);
#647=PLANE('',#744);
#648=PLANE('',#745);
#649=PLANE('',#752);
#650=PLANE('',#756);
#651=PLANE('',#759);
#652=PLANE('',#768);
#653=PLANE('',#774);
#654=PLANE('',#775);
#655=PLANE('',#779);
#656=PLANE('',#780);
#657=ADVANCED_FACE('',(#86),#637,.T.);
#658=ADVANCED_FACE('',(#87),#638,.T.);
#659=ADVANCED_FACE('',(#88),#639,.T.);
#660=ADVANCED_FACE('',(#89),#640,.T.);
#661=ADVANCED_FACE('',(#90),#641,.T.);
#662=ADVANCED_FACE('',(#91,#32),#642,.T.);
#663=ADVANCED_FACE('',(#92),#15,.F.);
#664=ADVANCED_FACE('',(#93),#16,.T.);
#665=ADVANCED_FACE('',(#94),#643,.T.);
#666=ADVANCED_FACE('',(#95),#17,.T.);
#667=ADVANCED_FACE('',(#96),#18,.F.);
#668=ADVANCED_FACE('',(#97,#33),#644,.T.);
#669=ADVANCED_FACE('',(#98),#19,.F.);
#670=ADVANCED_FACE('',(#99,#34),#645,.T.);
#671=ADVANCED_FACE('',(#100),#20,.F.);
#672=ADVANCED_FACE('',(#101,#35),#646,.T.);
#673=ADVANCED_FACE('',(#102),#21,.T.);
#674=ADVANCED_FACE('',(#103),#647,.T.);
#675=ADVANCED_FACE('',(#104),#648,.T.);
#676=ADVANCED_FACE('',(#105),#22,.T.);
#677=ADVANCED_FACE('',(#106),#23,.T.);
#678=ADVANCED_FACE('',(#107),#649,.T.);
#679=ADVANCED_FACE('',(#108),#24,.F.);
#680=ADVANCED_FACE('',(#109),#650,.T.);
#681=ADVANCED_FACE('',(#110),#25,.F.);
#682=ADVANCED_FACE('',(#111),#651,.T.);
#683=ADVANCED_FACE('',(#112),#26,.F.);
#684=ADVANCED_FACE('',(#113),#27,.F.);
#685=ADVANCED_FACE('',(#114),#28,.F.);
#686=ADVANCED_FACE('',(#115),#652,.T.);
#687=ADVANCED_FACE('',(#116),#29,.F.);
#688=ADVANCED_FACE('',(#117),#30,.F.);
#689=ADVANCED_FACE('',(#118,#36,#37,#38,#39,#40,#41,#42),#653,.F.);
#690=ADVANCED_FACE('',(#119,#43,#44,#45,#46,#47,#48,#49),#654,.T.);
#691=ADVANCED_FACE('',(#120),#31,.F.);
#692=ADVANCED_FACE('',(#121,#50),#655,.T.);
#693=ADVANCED_FACE('',(#122,#51),#656,.F.);
#694=CLOSED_SHELL('',(#657,#658,#659,#660,#661,#662,#663,#664,#665,#666,
#667,#668,#669,#670,#671,#672,#673,#674,#675,#676,#677,#678,#679,#680,#681,
#682,#683,#684,#685,#686,#687,#688,#689,#690,#691,#692,#693));
#695=DERIVED_UNIT_ELEMENT(#697,1.);
#696=DERIVED_UNIT_ELEMENT(#1186,-3.);
#697=(
MASS_UNIT()
NAMED_UNIT(*)
SI_UNIT(.KILO.,.GRAM.)
);
#698=DERIVED_UNIT((#695,#696));
#699=MEASURE_REPRESENTATION_ITEM('density measure',
POSITIVE_RATIO_MEASURE(7850.),#698);
#700=PROPERTY_DEFINITION_REPRESENTATION(#705,#702);
#701=PROPERTY_DEFINITION_REPRESENTATION(#706,#703);
#702=REPRESENTATION('material name',(#704),#1181);
#703=REPRESENTATION('density',(#699),#1181);
#704=DESCRIPTIVE_REPRESENTATION_ITEM('Steel','Steel');
#705=PROPERTY_DEFINITION('material property','material name',#1194);
#706=PROPERTY_DEFINITION('material property','density of part',#1194);
#707=AXIS2_PLACEMENT_3D('',#986,#781,#782);
#708=AXIS2_PLACEMENT_3D('',#987,#783,#784);
#709=AXIS2_PLACEMENT_3D('',#990,#785,#786);
#710=AXIS2_PLACEMENT_3D('',#994,#788,#789);
#711=AXIS2_PLACEMENT_3D('',#1000,#793,#794);
#712=AXIS2_PLACEMENT_3D('',#1006,#798,#799);
#713=AXIS2_PLACEMENT_3D('',#1015,#804,#805);
#714=AXIS2_PLACEMENT_3D('',#1021,#809,#810);
#715=AXIS2_PLACEMENT_3D('',#1030,#816,#817);
#716=AXIS2_PLACEMENT_3D('',#1032,#818,#819);
#717=AXIS2_PLACEMENT_3D('',#1035,#821,#822);
#718=AXIS2_PLACEMENT_3D('',#1036,#823,#824);
#719=AXIS2_PLACEMENT_3D('',#1039,#826,#827);
#720=AXIS2_PLACEMENT_3D('',#1040,#828,#829);
#721=AXIS2_PLACEMENT_3D('',#1042,#830,#831);
#722=AXIS2_PLACEMENT_3D('',#1044,#833,#834);
#723=AXIS2_PLACEMENT_3D('',#1049,#838,#839);
#724=AXIS2_PLACEMENT_3D('',#1050,#840,#841);
#725=AXIS2_PLACEMENT_3D('',#1051,#842,#843);
#726=AXIS2_PLACEMENT_3D('',#1052,#844,#845);
#727=AXIS2_PLACEMENT_3D('',#1054,#846,#847);
#728=AXIS2_PLACEMENT_3D('',#1057,#849,#850);
#729=AXIS2_PLACEMENT_3D('',#1058,#851,#852);
#730=AXIS2_PLACEMENT_3D('',#1060,#853,#854);
#731=AXIS2_PLACEMENT_3D('',#1061,#855,#856);
#732=AXIS2_PLACEMENT_3D('',#1063,#857,#858);
#733=AXIS2_PLACEMENT_3D('',#1066,#860,#861);
#734=AXIS2_PLACEMENT_3D('',#1067,#862,#863);
#735=AXIS2_PLACEMENT_3D('',#1069,#864,#865);
#736=AXIS2_PLACEMENT_3D('',#1070,#866,#867);
#737=AXIS2_PLACEMENT_3D('',#1072,#868,#869);
#738=AXIS2_PLACEMENT_3D('',#1075,#871,#872);
#739=AXIS2_PLACEMENT_3D('',#1076,#873,#874);
#740=AXIS2_PLACEMENT_3D('',#1078,#875,#876);
#741=AXIS2_PLACEMENT_3D('',#1079,#877,#878);
#742=AXIS2_PLACEMENT_3D('',#1082,#879,#880);
#743=AXIS2_PLACEMENT_3D('',#1086,#882,#883);
#744=AXIS2_PLACEMENT_3D('',#1088,#885,#886);
#745=AXIS2_PLACEMENT_3D('',#1094,#890,#891);
#746=AXIS2_PLACEMENT_3D('',#1103,#896,#897);
#747=AXIS2_PLACEMENT_3D('',#1105,#898,#899);
#748=AXIS2_PLACEMENT_3D('',#1108,#901,#902);
#749=AXIS2_PLACEMENT_3D('',#1109,#903,#904);
#750=AXIS2_PLACEMENT_3D('',#1112,#905,#906);
#751=AXIS2_PLACEMENT_3D('',#1116,#908,#909);
#752=AXIS2_PLACEMENT_3D('',#1118,#911,#912);
#753=AXIS2_PLACEMENT_3D('',#1124,#916,#917);
#754=AXIS2_PLACEMENT_3D('',#1126,#918,#919);
#755=AXIS2_PLACEMENT_3D('',#1129,#921,#922);
#756=AXIS2_PLACEMENT_3D('',#1130,#923,#924);
#757=AXIS2_PLACEMENT_3D('',#1133,#927,#928);
#758=AXIS2_PLACEMENT_3D('',#1136,#930,#931);
#759=AXIS2_PLACEMENT_3D('',#1137,#932,#933);
#760=AXIS2_PLACEMENT_3D('',#1143,#937,#938);
#761=AXIS2_PLACEMENT_3D('',#1144,#939,#940);
#762=AXIS2_PLACEMENT_3D('',#1145,#941,#942);
#763=AXIS2_PLACEMENT_3D('',#1146,#943,#944);
#764=AXIS2_PLACEMENT_3D('',#1149,#946,#947);
#765=AXIS2_PLACEMENT_3D('',#1150,#948,#949);
#766=AXIS2_PLACEMENT_3D('',#1152,#950,#951);
#767=AXIS2_PLACEMENT_3D('',#1155,#953,#954);
#768=AXIS2_PLACEMENT_3D('',#1156,#955,#956);
#769=AXIS2_PLACEMENT_3D('',#1159,#959,#960);
#770=AXIS2_PLACEMENT_3D('',#1161,#961,#962);
#771=AXIS2_PLACEMENT_3D('',#1164,#964,#965);
#772=AXIS2_PLACEMENT_3D('',#1165,#966,#967);
#773=AXIS2_PLACEMENT_3D('',#1168,#969,#970);
#774=AXIS2_PLACEMENT_3D('',#1169,#971,#972);
#775=AXIS2_PLACEMENT_3D('',#1170,#973,#974);
#776=AXIS2_PLACEMENT_3D('',#1171,#975,#976);
#777=AXIS2_PLACEMENT_3D('',#1173,#977,#978);
#778=AXIS2_PLACEMENT_3D('',#1176,#980,#981);
#779=AXIS2_PLACEMENT_3D('',#1177,#982,#983);
#780=AXIS2_PLACEMENT_3D('',#1178,#984,#985);
#781=DIRECTION('axis',(0.,0.,1.));
#782=DIRECTION('refdir',(1.,0.,0.));
#783=DIRECTION('center_axis',(-0.707106781186548,-9.43689570931383E-16,
0.707106781186547));
#784=DIRECTION('ref_axis',(-0.447213595499958,0.774596669241484,-0.447213595499957));
#785=DIRECTION('center_axis',(-0.707106781186548,-9.43689570931383E-16,
0.707106781186547));
#786=DIRECTION('ref_axis',(0.707106781186547,1.05084928337103E-15,0.707106781186548));
#787=DIRECTION('',(1.27675647831893E-15,-1.,0.));
#788=DIRECTION('center_axis',(-0.707106781186548,-9.43689570931383E-16,
0.707106781186547));
#789=DIRECTION('ref_axis',(0.707106781186547,1.05084928337103E-15,0.707106781186548));
#790=DIRECTION('',(0.707106781186547,7.16093850883226E-15,0.707106781186548));
#791=DIRECTION('',(-1.27675647831893E-15,1.,0.));
#792=DIRECTION('',(-0.707106781186547,7.32747196252603E-15,-0.707106781186548));
#793=DIRECTION('center_axis',(-1.,-1.27675647831893E-15,0.));
#794=DIRECTION('ref_axis',(1.27675647831893E-15,-1.,0.));
#795=DIRECTION('',(0.,0.,1.));
#796=DIRECTION('',(-1.27675647831893E-15,1.,-1.6442092779E-15));
#797=DIRECTION('',(0.,0.,1.));
#798=DIRECTION('center_axis',(0.707106781186548,4.44089209850063E-16,-0.707106781186548));
#799=DIRECTION('ref_axis',(0.447213595499958,-0.774596669241484,0.447213595499957));
#800=DIRECTION('',(0.707106781186548,-7.32747196252603E-15,0.707106781186547));
#801=DIRECTION('',(5.55111512312578E-16,-1.,0.));
#802=DIRECTION('',(-0.707106781186548,-7.21644966006352E-15,-0.707106781186547));
#803=DIRECTION('',(-5.55111512312578E-16,1.,0.));
#804=DIRECTION('center_axis',(1.,5.55111512312578E-16,0.));
#805=DIRECTION('ref_axis',(-5.55111512312578E-16,1.,0.));
#806=DIRECTION('',(0.,0.,1.));
#807=DIRECTION('',(5.55111512312578E-16,-1.,1.46812035065763E-15));
#808=DIRECTION('',(0.,0.,1.));
#809=DIRECTION('center_axis',(1.03805852802452E-14,1.,0.));
#810=DIRECTION('ref_axis',(-1.,1.03805852802452E-14,0.));
#811=DIRECTION('',(-1.,1.03805852802452E-14,0.));
#812=DIRECTION('',(0.,0.,-1.));
#813=DIRECTION('',(0.642787609686538,-1.49880108324396E-15,0.766044443118979));
#814=DIRECTION('',(0.766044443118979,-5.55111512312578E-16,-0.642787609686538));
#815=DIRECTION('',(0.642787609686538,-1.49880108324396E-15,0.766044443118979));
#816=DIRECTION('center_axis',(0.766044443118979,-5.55111512312578E-16,-0.642787609686538));
#817=DIRECTION('ref_axis',(8.32667268468867E-16,1.,4.03323208164608E-17));
#818=DIRECTION('center_axis',(0.76604444311898,-6.66133814775094E-16,-0.642787609686537));
#819=DIRECTION('ref_axis',(8.15911934107726E-16,1.,4.03323208164608E-17));
#820=DIRECTION('',(-0.642787609686537,-3.33066907387547E-16,-0.76604444311898));
#821=DIRECTION('center_axis',(-0.76604444311898,6.66133814775094E-16,0.642787609686537));
#822=DIRECTION('ref_axis',(7.86772222175308E-16,1.,4.03323208164608E-17));
#823=DIRECTION('center_axis',(0.766044443118979,-4.9960036108132E-16,-0.642787609686538));
#824=DIRECTION('ref_axis',(7.86772222175308E-16,1.,4.03323208164608E-17));
#825=DIRECTION('',(-0.766044443118979,4.9960036108132E-16,0.642787609686538));
#826=DIRECTION('center_axis',(0.76604444311898,-6.66133814775094E-16,-0.642787609686537));
#827=DIRECTION('ref_axis',(7.86772222175308E-16,1.,4.03323208164608E-17));
#828=DIRECTION('center_axis',(0.766044443118979,-4.9960036108132E-16,-0.642787609686538));
#829=DIRECTION('ref_axis',(0.642787609686538,-5.0032882271937E-17,0.766044443118979));
#830=DIRECTION('center_axis',(0.76604444311898,-5.55111512312578E-16,-0.642787609686537));
#831=DIRECTION('ref_axis',(8.15911934107726E-16,1.,4.03323208164608E-17));
#832=DIRECTION('',(0.766044443118979,-5.55111512312578E-16,-0.642787609686538));
#833=DIRECTION('center_axis',(1.01030295240889E-14,-1.,0.));
#834=DIRECTION('ref_axis',(1.,1.01030295240889E-14,0.));
#835=DIRECTION('',(0.642787609686537,3.33066907387547E-16,0.76604444311898));
#836=DIRECTION('',(0.,0.,1.));
#837=DIRECTION('',(1.,1.01030295240889E-14,0.));
#838=DIRECTION('center_axis',(0.,0.,1.));
#839=DIRECTION('ref_axis',(-1.,-1.74838271594513E-16,0.));
#840=DIRECTION('center_axis',(0.,0.,1.));
#841=DIRECTION('ref_axis',(0.5,-0.866025403784439,0.));
#842=DIRECTION('center_axis',(0.,0.,1.));
#843=DIRECTION('ref_axis',(0.5,-0.866025403784439,0.));
#844=DIRECTION('center_axis',(0.,0.,-1.));
#845=DIRECTION('ref_axis',(0.5,-0.866025403784439,0.));
#846=DIRECTION('center_axis',(0.,0.,-1.));
#847=DIRECTION('ref_axis',(0.5,-0.866025403784439,0.));
#848=DIRECTION('',(0.,0.,-1.));
#849=DIRECTION('center_axis',(0.,0.,-1.));
#850=DIRECTION('ref_axis',(0.5,-0.866025403784439,0.));
#851=DIRECTION('center_axis',(0.,0.,1.));
#852=DIRECTION('ref_axis',(-0.5,0.866025403784439,0.));
#853=DIRECTION('center_axis',(0.,0.,1.));
#854=DIRECTION('ref_axis',(0.5,-0.866025403784439,0.));
#855=DIRECTION('center_axis',(0.,0.,-1.));
#856=DIRECTION('ref_axis',(0.5,-0.866025403784439,0.));
#857=DIRECTION('center_axis',(0.,0.,-1.));
#858=DIRECTION('ref_axis',(0.5,-0.866025403784439,0.));
#859=DIRECTION('',(0.,0.,-1.));
#860=DIRECTION('center_axis',(0.,0.,-1.));
#861=DIRECTION('ref_axis',(0.5,-0.866025403784439,0.));
#862=DIRECTION('center_axis',(0.,0.,1.));
#863=DIRECTION('ref_axis',(-0.5,0.866025403784439,0.));
#864=DIRECTION('center_axis',(0.,0.,1.));
#865=DIRECTION('ref_axis',(0.5,-0.866025403784439,0.));
#866=DIRECTION('center_axis',(0.,0.,-1.));
#867=DIRECTION('ref_axis',(0.5,-0.866025403784439,0.));
#868=DIRECTION('center_axis',(0.,0.,-1.));
#869=DIRECTION('ref_axis',(0.5,-0.866025403784439,0.));
#870=DIRECTION('',(0.,0.,-1.));
#871=DIRECTION('center_axis',(0.,0.,-1.));
#872=DIRECTION('ref_axis',(0.5,-0.866025403784439,0.));
#873=DIRECTION('center_axis',(0.,0.,1.));
#874=DIRECTION('ref_axis',(-0.5,0.866025403784439,0.));
#875=DIRECTION('center_axis',(0.,0.,1.));
#876=DIRECTION('ref_axis',(0.5,-0.866025403784439,0.));
#877=DIRECTION('center_axis',(0.,0.,1.));
#878=DIRECTION('ref_axis',(0.236634473316279,0.971598747445841,0.));
#879=DIRECTION('center_axis',(0.,0.,1.));
#880=DIRECTION('ref_axis',(0.236634473316279,0.971598747445841,0.));
#881=DIRECTION('',(0.,0.,1.));
#882=DIRECTION('center_axis',(0.,0.,1.));
#883=DIRECTION('ref_axis',(0.236634473316279,0.971598747445841,0.));
#884=DIRECTION('',(0.,0.,1.));
#885=DIRECTION('center_axis',(-0.866025403784438,0.5,0.));
#886=DIRECTION('ref_axis',(-0.5,-0.866025403784439,0.));
#887=DIRECTION('',(-0.5,-0.866025403784439,0.));
#888=DIRECTION('',(0.,0.,1.));
#889=DIRECTION('',(-0.5,-0.866025403784439,0.));
#890=DIRECTION('center_axis',(-0.866025403784439,-0.5,0.));
#891=DIRECTION('ref_axis',(0.5,-0.866025403784439,0.));
#892=DIRECTION('',(0.5,-0.866025403784439,0.));
#893=DIRECTION('',(0.,0.,1.));
#894=DIRECTION('',(0.5,-0.866025403784439,0.));
#895=DIRECTION('',(0.,0.,1.));
#896=DIRECTION('center_axis',(0.,0.,1.));
#897=DIRECTION('ref_axis',(-0.959746434231379,-0.280867908419871,0.));
#898=DIRECTION('center_axis',(0.,0.,1.));
#899=DIRECTION('ref_axis',(-0.959746434231379,-0.280867908419871,0.));
#900=DIRECTION('',(0.,0.,1.));
#901=DIRECTION('center_axis',(0.,0.,1.));
#902=DIRECTION('ref_axis',(-0.959746434231379,-0.280867908419871,0.));
#903=DIRECTION('center_axis',(0.,0.,1.));
#904=DIRECTION('ref_axis',(0.7231119609151,-0.690730839025969,0.));
#905=DIRECTION('center_axis',(0.,0.,1.));
#906=DIRECTION('ref_axis',(0.7231119609151,-0.690730839025969,0.));
#907=DIRECTION('',(0.,0.,1.));
#908=DIRECTION('center_axis',(0.,0.,1.));
#909=DIRECTION('ref_axis',(0.7231119609151,-0.690730839025969,0.));
#910=DIRECTION('',(0.,0.,1.));
#911=DIRECTION('center_axis',(0.866025403784439,0.5,0.));
#912=DIRECTION('ref_axis',(-0.5,0.866025403784439,0.));
#913=DIRECTION('',(-0.5,0.866025403784439,0.));
#914=DIRECTION('',(0.,0.,1.));
#915=DIRECTION('',(-0.5,0.866025403784439,0.));
#916=DIRECTION('center_axis',(0.,0.,1.));
#917=DIRECTION('ref_axis',(-0.5,0.866025403784439,0.));
#918=DIRECTION('center_axis',(0.,0.,-1.));
#919=DIRECTION('ref_axis',(0.5,-0.866025403784439,0.));
#920=DIRECTION('',(0.,0.,1.));
#921=DIRECTION('center_axis',(0.,0.,-1.));
#922=DIRECTION('ref_axis',(0.5,-0.866025403784439,0.));
#923=DIRECTION('center_axis',(1.66533453693773E-16,1.,0.));
#924=DIRECTION('ref_axis',(-1.,1.66533453693773E-16,0.));
#925=DIRECTION('',(-1.,1.66533453693773E-16,0.));
#926=DIRECTION('',(-1.,1.66533453693773E-16,0.));
#927=DIRECTION('center_axis',(0.,0.,1.));
#928=DIRECTION('ref_axis',(0.5,-0.866025403784439,0.));
#929=DIRECTION('',(0.,0.,-1.));
#930=DIRECTION('center_axis',(0.,0.,-1.));
#931=DIRECTION('ref_axis',(0.5,-0.866025403784439,0.));
#932=DIRECTION('center_axis',(-2.22044604925031E-16,-1.,0.));
#933=DIRECTION('ref_axis',(1.,-2.22044604925031E-16,0.));
#934=DIRECTION('',(1.,-2.22044604925031E-16,0.));
#935=DIRECTION('',(0.,0.,1.));
#936=DIRECTION('',(1.,-2.22044604925031E-16,0.));
#937=DIRECTION('center_axis',(0.,0.,1.));
#938=DIRECTION('ref_axis',(0.5,-0.866025403784439,0.));
#939=DIRECTION('center_axis',(0.,0.,-1.));
#940=DIRECTION('ref_axis',(0.5,-0.866025403784439,0.));
#941=DIRECTION('center_axis',(0.,0.,-1.));
#942=DIRECTION('ref_axis',(0.5,-0.866025403784439,0.));
#943=DIRECTION('center_axis',(0.,0.,1.));
#944=DIRECTION('ref_axis',(0.5,-0.866025403784439,0.));
#945=DIRECTION('',(0.,0.,-1.));
#946=DIRECTION('center_axis',(0.,0.,-1.));
#947=DIRECTION('ref_axis',(0.5,-0.866025403784439,0.));
#948=DIRECTION('center_axis',(0.,0.,1.));
#949=DIRECTION('ref_axis',(0.5,-0.866025403784439,0.));
#950=DIRECTION('center_axis',(0.,0.,-1.));
#951=DIRECTION('ref_axis',(0.5,-0.866025403784439,0.));
#952=DIRECTION('',(0.,0.,1.));
#953=DIRECTION('center_axis',(0.,0.,-1.));
#954=DIRECTION('ref_axis',(0.5,-0.866025403784439,0.));
#955=DIRECTION('center_axis',(0.866025403784439,-0.5,0.));
#956=DIRECTION('ref_axis',(0.5,0.866025403784439,0.));
#957=DIRECTION('',(0.5,0.866025403784439,0.));
#958=DIRECTION('',(0.5,0.866025403784439,0.));
#959=DIRECTION('center_axis',(0.,0.,1.));
#960=DIRECTION('ref_axis',(0.5,-0.866025403784439,0.));
#961=DIRECTION('center_axis',(0.,0.,-1.));
#962=DIRECTION('ref_axis',(0.5,-0.866025403784439,0.));
#963=DIRECTION('',(0.,0.,-1.));
#964=DIRECTION('center_axis',(0.,0.,-1.));
#965=DIRECTION('ref_axis',(0.5,-0.866025403784439,0.));
#966=DIRECTION('center_axis',(0.,0.,1.));
#967=DIRECTION('ref_axis',(0.5,-0.866025403784439,0.));
#968=DIRECTION('',(0.,0.,-1.));
#969=DIRECTION('center_axis',(0.,0.,-1.));
#970=DIRECTION('ref_axis',(0.5,-0.866025403784439,0.));
#971=DIRECTION('center_axis',(0.,0.,1.));
#972=DIRECTION('ref_axis',(0.5,-0.866025403784439,0.));
#973=DIRECTION('center_axis',(0.,0.,1.));
#974=DIRECTION('ref_axis',(-0.5,0.866025403784439,0.));
#975=DIRECTION('center_axis',(0.766044443118978,-5.55111512312578E-16,-0.64278760968654));
#976=DIRECTION('ref_axis',(8.74191357972564E-16,1.,4.03323208164608E-17));
#977=DIRECTION('center_axis',(-0.76604444311898,6.66133814775094E-16,0.642787609686537));
#978=DIRECTION('ref_axis',(8.74191357972564E-16,1.,4.03323208164608E-17));
#979=DIRECTION('',(-0.766044443118978,5.55111512312578E-16,0.64278760968654));
#980=DIRECTION('center_axis',(-0.76604444311898,5.55111512312578E-16,0.642787609686537));
#981=DIRECTION('ref_axis',(8.74191357972564E-16,1.,4.03323208164608E-17));
#982=DIRECTION('center_axis',(0.76604444311898,-6.66133814775094E-16,-0.642787609686537));
#983=DIRECTION('ref_axis',(8.32667268468867E-16,1.,4.03323208164608E-17));
#984=DIRECTION('center_axis',(0.76604444311898,-5.55111512312578E-16,-0.642787609686537));
#985=DIRECTION('ref_axis',(8.32667268468867E-16,1.,4.03323208164608E-17));
#986=CARTESIAN_POINT('',(0.,0.,0.));
#987=CARTESIAN_POINT('Origin',(2.0375,0.150000000000017,0.445570866141733));
#988=CARTESIAN_POINT('',(1.975,0.315238005322973,0.383070866141733));
#989=CARTESIAN_POINT('',(1.97737199332851,0.300000000000034,0.385442859470248));
#990=CARTESIAN_POINT('Origin',(0.,0.,-1.59192913385827));
#991=CARTESIAN_POINT('',(1.975,-0.315238005322967,0.383070866141733));
#992=CARTESIAN_POINT('',(1.975,0.150000000000017,0.383070866141733));
#993=CARTESIAN_POINT('',(1.97737199332851,-0.300000000000034,0.385442859470248));
#994=CARTESIAN_POINT('Origin',(0.,0.,-1.59192913385827));
#995=CARTESIAN_POINT('',(2.1,-0.300000000000033,0.508070866141732));
#996=CARTESIAN_POINT('',(1.91107528179669,-0.300000000000035,0.319146147938429));
#997=CARTESIAN_POINT('',(2.1,0.300000000000033,0.508070866141732));
#998=CARTESIAN_POINT('',(2.1,0.150000000000018,0.508070866141732));
#999=CARTESIAN_POINT('',(2.00423228346457,0.300000000000033,0.4123031496063));
#1000=CARTESIAN_POINT('Origin',(2.1,0.300000000000033,0.383070866141733));
#1001=CARTESIAN_POINT('',(2.1,-0.300000000000033,1.56614173228347));
#1002=CARTESIAN_POINT('',(2.1,-0.300000000000033,0.383070866141733));
#1003=CARTESIAN_POINT('',(2.1,0.300000000000033,1.56614173228347));
#1004=CARTESIAN_POINT('',(2.1,0.150000000000018,1.56614173228347));
#1005=CARTESIAN_POINT('',(2.1,0.300000000000033,0.383070866141733));
#1006=CARTESIAN_POINT('Origin',(2.25,-0.150000000000014,0.1));
#1007=CARTESIAN_POINT('',(2.15,0.300000000000032,0.));
#1008=CARTESIAN_POINT('',(2.35,0.30000000000003,0.2));
#1009=CARTESIAN_POINT('',(2.25,0.300000000000031,0.100000000000001));
#1010=CARTESIAN_POINT('',(2.35,-0.30000000000003,0.2));
#1011=CARTESIAN_POINT('',(2.35,-0.150000000000014,0.2));
#1012=CARTESIAN_POINT('',(2.15,-0.300000000000032,0.));
#1013=CARTESIAN_POINT('',(2.15684299833213,-0.300000000000032,0.00684299833212886));
#1014=CARTESIAN_POINT('',(2.15,-0.150000000000014,0.));
#1015=CARTESIAN_POINT('Origin',(2.35,-0.30000000000003,0.));
#1016=CARTESIAN_POINT('',(2.35,0.300000000000031,1.47514917371691));
#1017=CARTESIAN_POINT('',(2.35,0.30000000000003,0.));
#1018=CARTESIAN_POINT('',(2.35,-0.300000000000034,1.47514917371691));
#1019=CARTESIAN_POINT('',(2.35,-0.150000000000015,1.47514917371691));
#1020=CARTESIAN_POINT('',(2.35,-0.30000000000003,0.383070866141733));
#1021=CARTESIAN_POINT('Origin',(2.35,0.30000000000003,0.));
#1022=CARTESIAN_POINT('',(1.97737199332851,0.300000000000034,0.));
#1023=CARTESIAN_POINT('',(2.25684299833213,0.300000000000031,0.));
#1024=CARTESIAN_POINT('',(1.97737199332851,0.300000000000034,0.));
#1025=CARTESIAN_POINT('',(2.27676659266383,0.30000000000003,1.77680395414121));
#1026=CARTESIAN_POINT('',(2.1,0.300000000000031,1.56614173228346));
#1027=CARTESIAN_POINT('',(2.46827770344357,0.300000000000031,1.61610705171958));
#1028=CARTESIAN_POINT('',(2.27676659266383,0.30000000000003,1.77680395414121));
#1029=CARTESIAN_POINT('',(2.29151111077974,0.300000000000031,1.40544482986182));
#1030=CARTESIAN_POINT('Origin',(2.57273069001761,-1.57354444435062E-15,
1.74058927372638));
#1031=CARTESIAN_POINT('',(2.46827770344357,-0.300000000000034,1.61610705171958));
#1032=CARTESIAN_POINT('Origin',(2.61290491562301,-1.74838271594513E-15,
1.78846705142131));
#1033=CARTESIAN_POINT('',(2.29151111077974,-0.300000000000034,1.40544482986182));
#1034=CARTESIAN_POINT('',(2.61290491562301,-0.250000000000002,1.78846705142131));
#1035=CARTESIAN_POINT('Origin',(2.61290491562301,-1.74838271594513E-15,
1.78846705142131));
#1036=CARTESIAN_POINT('Origin',(2.42139380484327,-1.3987061727561E-15,1.94916395384295));
#1037=CARTESIAN_POINT('',(2.45969602699922,-0.250000000000002,1.91702457335862));
#1038=CARTESIAN_POINT('',(2.42139380484327,-0.250000000000001,1.94916395384295));
#1039=CARTESIAN_POINT('Origin',(2.45969602699922,-1.57354444435062E-15,
1.91702457335862));
#1040=CARTESIAN_POINT('Origin',(2.42139380484327,-1.3987061727561E-15,1.94916395384295));
#1041=CARTESIAN_POINT('',(2.27676659266382,-0.300000000000034,1.77680395414121));
#1042=CARTESIAN_POINT('Origin',(2.42139380484327,-1.3987061727561E-15,1.94916395384295));
#1043=CARTESIAN_POINT('',(2.27676659266382,-0.300000000000034,1.77680395414121));
#1044=CARTESIAN_POINT('Origin',(1.97737199332851,-0.300000000000034,0.));
#1045=CARTESIAN_POINT('',(2.1,-0.300000000000035,1.56614173228346));
#1046=CARTESIAN_POINT('',(1.97737199332851,-0.300000000000034,0.));
#1047=CARTESIAN_POINT('',(1.97737199332851,-0.300000000000034,0.));
#1048=CARTESIAN_POINT('',(2.07052899499638,-0.300000000000033,0.));
#1049=CARTESIAN_POINT('Origin',(0.,0.,0.));
#1050=CARTESIAN_POINT('Origin',(0.,0.,0.));
#1051=CARTESIAN_POINT('Origin',(0.,0.,0.383070866141733));
#1052=CARTESIAN_POINT('Origin',(-0.52097440944882,0.902354146608546,0.383070866141733));
#1053=CARTESIAN_POINT('',(-0.57097440944882,0.988956686986989,0.383070866141733));
#1054=CARTESIAN_POINT('Origin',(-0.52097440944882,0.902354146608546,0.383070866141733));
#1055=CARTESIAN_POINT('',(-0.57097440944882,0.988956686986989,0.258070866141733));
#1056=CARTESIAN_POINT('',(-0.57097440944882,0.988956686986989,0.383070866141733));
#1057=CARTESIAN_POINT('Origin',(-0.52097440944882,0.902354146608546,0.258070866141733));
#1058=CARTESIAN_POINT('Origin',(-0.130243602362204,0.225588536652136,0.258070866141733));
#1059=CARTESIAN_POINT('',(-0.54597440944882,0.945655416797767,0.258070866141733));
#1060=CARTESIAN_POINT('Origin',(-0.52097440944882,0.902354146608546,0.258070866141733));
#1061=CARTESIAN_POINT('Origin',(-0.520974409448818,-0.902354146608546,0.383070866141733));
#1062=CARTESIAN_POINT('',(-0.570974409448818,-0.815751606230102,0.383070866141733));
#1063=CARTESIAN_POINT('Origin',(-0.520974409448818,-0.902354146608546,0.383070866141733));
#1064=CARTESIAN_POINT('',(-0.570974409448818,-0.815751606230102,0.258070866141733));
#1065=CARTESIAN_POINT('',(-0.570974409448818,-0.815751606230102,0.383070866141733));
#1066=CARTESIAN_POINT('Origin',(-0.520974409448818,-0.902354146608546,0.258070866141733));
#1067=CARTESIAN_POINT('Origin',(-0.130243602362204,0.225588536652136,0.258070866141733));
#1068=CARTESIAN_POINT('',(-0.545974409448818,-0.859052876419324,0.258070866141733));
#1069=CARTESIAN_POINT('Origin',(-0.520974409448818,-0.902354146608546,0.258070866141733));
#1070=CARTESIAN_POINT('Origin',(1.04194881889764,1.13644876536433E-15,0.383070866141733));
#1071=CARTESIAN_POINT('',(0.991948818897638,0.086602540378445,0.383070866141733));
#1072=CARTESIAN_POINT('Origin',(1.04194881889764,1.13644876536433E-15,0.383070866141733));
#1073=CARTESIAN_POINT('',(0.991948818897638,0.086602540378445,0.258070866141733));
#1074=CARTESIAN_POINT('',(0.991948818897638,0.086602540378445,0.383070866141733));
#1075=CARTESIAN_POINT('Origin',(1.04194881889764,1.13644876536433E-15,0.258070866141733));
#1076=CARTESIAN_POINT('Origin',(-0.130243602362204,0.225588536652136,0.258070866141733));
#1077=CARTESIAN_POINT('',(1.01694881889764,0.043301270189223,0.258070866141733));
#1078=CARTESIAN_POINT('Origin',(1.04194881889764,1.13644876536433E-15,0.258070866141733));
#1079=CARTESIAN_POINT('Origin',(0.,0.,0.));
#1080=CARTESIAN_POINT('',(-1.19212598425197,0.348873327190826,0.383070866141733));
#1081=CARTESIAN_POINT('',(0.29392982807593,1.20684805046915,0.383070866141733));
#1082=CARTESIAN_POINT('Origin',(0.,0.,0.383070866141733));
#1083=CARTESIAN_POINT('',(0.29392982807593,1.20684805046915,0.));
#1084=CARTESIAN_POINT('',(0.29392982807593,1.20684805046915,0.));
#1085=CARTESIAN_POINT('',(-1.19212598425197,0.348873327190826,0.));
#1086=CARTESIAN_POINT('Origin',(0.,0.,0.));
#1087=CARTESIAN_POINT('',(-1.19212598425197,0.348873327190826,0.));
#1088=CARTESIAN_POINT('Origin',(0.580800497327572,1.70372262481428,0.));
#1089=CARTESIAN_POINT('',(0.580800497327572,1.70372262481428,0.383070866141733));
#1090=CARTESIAN_POINT('',(0.139333666638758,0.939079644204844,0.383070866141733));
#1091=CARTESIAN_POINT('',(0.580800497327572,1.70372262481428,0.));
#1092=CARTESIAN_POINT('',(0.580800497327572,1.70372262481428,0.));
#1093=CARTESIAN_POINT('',(0.29392982807593,1.20684805046915,0.));
#1094=CARTESIAN_POINT('Origin',(0.293929828075929,-1.20684805046915,0.));
#1095=CARTESIAN_POINT('',(0.580800497327571,-1.70372262481428,0.383070866141733));
#1096=CARTESIAN_POINT('',(0.293929828075929,-1.20684805046915,0.383070866141733));
#1097=CARTESIAN_POINT('',(-0.00410166798706283,-0.690642357032279,0.383070866141733));
#1098=CARTESIAN_POINT('',(0.293929828075929,-1.20684805046915,0.));
#1099=CARTESIAN_POINT('',(0.293929828075929,-1.20684805046915,0.));
#1100=CARTESIAN_POINT('',(0.580800497327571,-1.70372262481428,0.));
#1101=CARTESIAN_POINT('',(0.293929828075929,-1.20684805046915,0.));
#1102=CARTESIAN_POINT('',(0.580800497327571,-1.70372262481428,0.));
#1103=CARTESIAN_POINT('Origin',(0.,0.,0.));
#1104=CARTESIAN_POINT('',(-1.19212598425197,-0.348873327190825,0.383070866141733));
#1105=CARTESIAN_POINT('Origin',(0.,0.,0.383070866141733));
#1106=CARTESIAN_POINT('',(-1.19212598425197,-0.348873327190825,0.));
#1107=CARTESIAN_POINT('',(-1.19212598425197,-0.348873327190825,0.));
#1108=CARTESIAN_POINT('Origin',(0.,0.,0.));
#1109=CARTESIAN_POINT('Origin',(0.,0.,0.));
#1110=CARTESIAN_POINT('',(0.89819615617604,0.85797472327832,0.383070866141733));
#1111=CARTESIAN_POINT('',(0.89819615617604,-0.85797472327832,0.383070866141733));
#1112=CARTESIAN_POINT('Origin',(0.,0.,0.383070866141733));
#1113=CARTESIAN_POINT('',(0.89819615617604,-0.85797472327832,0.));
#1114=CARTESIAN_POINT('',(0.89819615617604,-0.85797472327832,0.));
#1115=CARTESIAN_POINT('',(0.89819615617604,0.85797472327832,0.));
#1116=CARTESIAN_POINT('Origin',(0.,0.,0.));
#1117=CARTESIAN_POINT('',(0.89819615617604,0.85797472327832,0.));
#1118=CARTESIAN_POINT('Origin',(1.18506682542768,-1.35484929762345,0.));
#1119=CARTESIAN_POINT('',(1.18506682542768,-1.35484929762345,0.383070866141733));
#1120=CARTESIAN_POINT('',(0.743599994738868,-0.590206317014019,0.383070866141733));
#1121=CARTESIAN_POINT('',(1.18506682542768,-1.35484929762345,0.));
#1122=CARTESIAN_POINT('',(1.18506682542768,-1.35484929762345,0.));
#1123=CARTESIAN_POINT('',(0.89819615617604,-0.85797472327832,0.));
#1124=CARTESIAN_POINT('Origin',(0.,0.,0.));
#1125=CARTESIAN_POINT('',(-1.76586732275525,0.348873327190826,0.383070866141733));
#1126=CARTESIAN_POINT('Origin',(0.,0.,0.383070866141733));
#1127=CARTESIAN_POINT('',(-1.76586732275525,0.348873327190826,0.));
#1128=CARTESIAN_POINT('',(-1.76586732275525,0.348873327190826,0.));
#1129=CARTESIAN_POINT('Origin',(0.,0.,0.));
#1130=CARTESIAN_POINT('Origin',(-1.19212598425197,0.348873327190826,0.));
#1131=CARTESIAN_POINT('',(-0.596062992125984,0.348873327190826,0.383070866141733));
#1132=CARTESIAN_POINT('',(-1.19212598425197,0.348873327190826,0.));
#1133=CARTESIAN_POINT('Origin',(-0.520974409448818,-0.902354146608546,0.));
#1134=CARTESIAN_POINT('',(-0.545974409448818,-0.859052876419324,0.));
#1135=CARTESIAN_POINT('',(-0.545974409448818,-0.859052876419324,0.));
#1136=CARTESIAN_POINT('Origin',(-0.520974409448818,-0.902354146608546,0.));
#1137=CARTESIAN_POINT('Origin',(-1.76586732275525,-0.348873327190825,0.));
#1138=CARTESIAN_POINT('',(-1.76586732275525,-0.348873327190825,0.383070866141733));
#1139=CARTESIAN_POINT('',(-0.882933661377626,-0.348873327190825,0.383070866141733));
#1140=CARTESIAN_POINT('',(-1.76586732275525,-0.348873327190825,0.));
#1141=CARTESIAN_POINT('',(-1.76586732275525,-0.348873327190825,0.));
#1142=CARTESIAN_POINT('',(-1.19212598425197,-0.348873327190825,0.));
#1143=CARTESIAN_POINT('Origin',(0.,0.,0.));
#1144=CARTESIAN_POINT('Origin',(0.,0.,0.383070866141733));
#1145=CARTESIAN_POINT('Origin',(0.,0.,0.));
#1146=CARTESIAN_POINT('Origin',(1.04194881889764,1.13644876536433E-15,0.));
#1147=CARTESIAN_POINT('',(1.01694881889764,0.043301270189223,0.));
#1148=CARTESIAN_POINT('',(1.01694881889764,0.0433012701892231,0.));
#1149=CARTESIAN_POINT('Origin',(1.04194881889764,1.13644876536433E-15,0.));
#1150=CARTESIAN_POINT('Origin',(0.,0.,0.));
#1151=CARTESIAN_POINT('',(1.18506682542768,1.35484929762345,0.383070866141733));
#1152=CARTESIAN_POINT('Origin',(0.,0.,0.383070866141733));
#1153=CARTESIAN_POINT('',(1.18506682542768,1.35484929762345,0.));
#1154=CARTESIAN_POINT('',(1.18506682542768,1.35484929762345,0.));
#1155=CARTESIAN_POINT('Origin',(0.,0.,0.));
#1156=CARTESIAN_POINT('Origin',(0.89819615617604,0.85797472327832,0.));
#1157=CARTESIAN_POINT('',(0.600164660113048,0.341769029841453,0.383070866141733));
#1158=CARTESIAN_POINT('',(0.89819615617604,0.85797472327832,0.));
#1159=CARTESIAN_POINT('Origin',(0.,0.,0.));
#1160=CARTESIAN_POINT('',(-0.420885826771653,0.728995636154137,0.383070866141733));
#1161=CARTESIAN_POINT('Origin',(0.,0.,0.383070866141733));
#1162=CARTESIAN_POINT('',(-0.420885826771653,0.728995636154137,0.));
#1163=CARTESIAN_POINT('',(-0.420885826771653,0.728995636154137,0.));
#1164=CARTESIAN_POINT('Origin',(0.,0.,0.));
#1165=CARTESIAN_POINT('Origin',(-0.52097440944882,0.902354146608546,0.));
#1166=CARTESIAN_POINT('',(-0.54597440944882,0.945655416797767,0.));
#1167=CARTESIAN_POINT('',(-0.54597440944882,0.945655416797767,0.));
#1168=CARTESIAN_POINT('Origin',(-0.52097440944882,0.902354146608546,0.));
#1169=CARTESIAN_POINT('Origin',(0.,0.,0.));
#1170=CARTESIAN_POINT('Origin',(0.,0.,0.383070866141733));
#1171=CARTESIAN_POINT('Origin',(2.42139380484327,-1.3987061727561E-15,1.94916395384295));
#1172=CARTESIAN_POINT('',(2.45969602699922,-0.200000000000002,1.91702457335862));
#1173=CARTESIAN_POINT('Origin',(2.45969602699922,-1.57354444435062E-15,
1.91702457335862));
#1174=CARTESIAN_POINT('',(2.42139380484327,-0.200000000000002,1.94916395384295));
#1175=CARTESIAN_POINT('',(2.42139380484327,-0.200000000000001,1.94916395384295));
#1176=CARTESIAN_POINT('Origin',(2.42139380484327,-1.3987061727561E-15,1.94916395384295));
#1177=CARTESIAN_POINT('Origin',(2.45969602699922,-1.57354444435062E-15,
1.91702457335862));
#1178=CARTESIAN_POINT('Origin',(2.42139380484327,-1.3987061727561E-15,1.94916395384295));
#1179=UNCERTAINTY_MEASURE_WITH_UNIT(LENGTH_MEASURE(0.000393700787401575),
#1184,'DISTANCE_ACCURACY_VALUE',
'Maximum model space distance between geometric entities at asserted c
onnectivities');
#1180=UNCERTAINTY_MEASURE_WITH_UNIT(LENGTH_MEASURE(0.000393700787401575),
#1184,'DISTANCE_ACCURACY_VALUE',
'Maximum model space distance between geometric entities at asserted c
onnectivities');
#1181=(
GEOMETRIC_REPRESENTATION_CONTEXT(3)
GLOBAL_UNCERTAINTY_ASSIGNED_CONTEXT((#1179))
GLOBAL_UNIT_ASSIGNED_CONTEXT((#1184,#1188,#1189))
REPRESENTATION_CONTEXT('','3D')
);
#1182=(
GEOMETRIC_REPRESENTATION_CONTEXT(3)
GLOBAL_UNCERTAINTY_ASSIGNED_CONTEXT((#1180))
GLOBAL_UNIT_ASSIGNED_CONTEXT((#1184,#1188,#1189))
REPRESENTATION_CONTEXT('','3D')
);
#1183=DIMENSIONAL_EXPONENTS(1.,0.,0.,0.,0.,0.,0.);
#1184=(
CONVERSION_BASED_UNIT('inch',#1187)
LENGTH_UNIT()
NAMED_UNIT(#1183)
);
#1185=(
LENGTH_UNIT()
NAMED_UNIT(*)
SI_UNIT(.MILLI.,.METRE.)
);
#1186=(
LENGTH_UNIT()
NAMED_UNIT(*)
SI_UNIT($,.METRE.)
);
#1187=LENGTH_MEASURE_WITH_UNIT(LENGTH_MEASURE(25.4),#1185);
#1188=(
NAMED_UNIT(*)
PLANE_ANGLE_UNIT()
SI_UNIT($,.RADIAN.)
);
#1189=(
NAMED_UNIT(*)
SI_UNIT($,.STERADIAN.)
SOLID_ANGLE_UNIT()
);
#1190=SHAPE_DEFINITION_REPRESENTATION(#1191,#1192);
#1191=PRODUCT_DEFINITION_SHAPE('',$,#1194);
#1192=SHAPE_REPRESENTATION('',(#707),#1181);
#1193=PRODUCT_DEFINITION_CONTEXT('part definition',#1198,'design');
#1194=PRODUCT_DEFINITION('output_disk2','output_disk2 v1',#1195,#1193);
#1195=PRODUCT_DEFINITION_FORMATION('',$,#1200);
#1196=PRODUCT_RELATED_PRODUCT_CATEGORY('output_disk2 v1',
'output_disk2 v1',(#1200));
#1197=APPLICATION_PROTOCOL_DEFINITION('international standard',
'automotive_design',2009,#1198);
#1198=APPLICATION_CONTEXT(
'Core Data for Automotive Mechanical Design Process');
#1199=PRODUCT_CONTEXT('part definition',#1198,'mechanical');
#1200=PRODUCT('output_disk2','output_disk2 v1',$,(#1199));
#1201=PRESENTATION_STYLE_ASSIGNMENT((#1203));
#1202=PRESENTATION_STYLE_ASSIGNMENT((#1204));
#1203=SURFACE_STYLE_USAGE(.BOTH.,#1205);
#1204=SURFACE_STYLE_USAGE(.BOTH.,#1206);
#1205=SURFACE_SIDE_STYLE('',(#1207));
#1206=SURFACE_SIDE_STYLE('',(#1208));
#1207=SURFACE_STYLE_FILL_AREA(#1209);
#1208=SURFACE_STYLE_FILL_AREA(#1210);
#1209=FILL_AREA_STYLE('Steel - Satin',(#1211));
#1210=FILL_AREA_STYLE('Plastic - Glossy (Black)',(#1212));
#1211=FILL_AREA_STYLE_COLOUR('Steel - Satin',#1213);
#1212=FILL_AREA_STYLE_COLOUR('Plastic - Glossy (Black)',#1214);
#1213=COLOUR_RGB('Steel - Satin',0.627450980392157,0.627450980392157,0.627450980392157);
#1214=COLOUR_RGB('Plastic - Glossy (Black)',0.0980392156862745,0.0980392156862745,
0.0980392156862745);
ENDSEC;
END-ISO-10303-21;
