ISO-10303-21;
HEADER;
/* Generated by software containing ST-Developer
 * from STEP Tools, Inc. (www.steptools.com) 
 */

FILE_DESCRIPTION(
/* description */ (''),
/* implementation_level */ '2;1');

FILE_NAME(
/* name */ 'output_disk1.step',
/* time_stamp */ '2026-07-30T17:33:20-04:00',
/* author */ (''),
/* organization */ (''),
/* preprocessor_version */ 'ST-DEVELOPER v20.1',
/* originating_system */ 'Autodesk Translation Framework v15.8.0.0',
/* authorisation */ '');

FILE_SCHEMA (('AUTOMOTIVE_DESIGN { 1 0 10303 214 3 1 1 }'));
ENDSEC;

DATA;
#10=MECHANICAL_DESIGN_GEOMETRIC_PRESENTATION_REPRESENTATION('',(#13),#1207);
#11=SHAPE_REPRESENTATION_RELATIONSHIP('SRR','None',#1217,#12);
#12=ADVANCED_BREP_SHAPE_REPRESENTATION('',(#14),#1206);
#13=STYLED_ITEM('',(#1227),#14);
#14=MANIFOLD_SOLID_BREP('Body1',#708);
#15=CONICAL_SURFACE('',#742,0.622125984251968,0.785398163397449);
#16=FACE_BOUND('',#133,.T.);
#17=FACE_BOUND('',#135,.T.);
#18=FACE_BOUND('',#139,.T.);
#19=FACE_BOUND('',#144,.T.);
#20=FACE_BOUND('',#145,.T.);
#21=FACE_BOUND('',#146,.T.);
#22=FACE_BOUND('',#147,.T.);
#23=FACE_BOUND('',#148,.T.);
#24=FACE_BOUND('',#149,.T.);
#25=FACE_BOUND('',#150,.T.);
#26=FACE_BOUND('',#154,.T.);
#27=FACE_BOUND('',#157,.T.);
#28=FACE_BOUND('',#160,.T.);
#29=FACE_BOUND('',#177,.T.);
#30=FACE_BOUND('',#178,.T.);
#31=FACE_BOUND('',#179,.T.);
#32=FACE_BOUND('',#180,.T.);
#33=FACE_BOUND('',#181,.T.);
#34=FACE_BOUND('',#182,.T.);
#35=FACE_BOUND('',#183,.T.);
#36=CIRCLE('',#730,0.2);
#37=CIRCLE('',#731,0.2);
#38=CIRCLE('',#733,0.25);
#39=CIRCLE('',#735,0.375);
#40=CIRCLE('',#736,0.25);
#41=CIRCLE('',#739,0.375);
#42=CIRCLE('',#743,0.497125984251968);
#43=CIRCLE('',#744,0.747125984251969);
#44=CIRCLE('',#746,0.497125984251968);
#45=CIRCLE('',#748,2.);
#46=CIRCLE('',#749,0.1);
#47=CIRCLE('',#750,0.1);
#48=CIRCLE('',#751,0.1);
#49=CIRCLE('',#752,1.24212598425197);
#50=CIRCLE('',#753,1.8);
#51=CIRCLE('',#754,1.8);
#52=CIRCLE('',#755,1.24212598425197);
#53=CIRCLE('',#756,1.8);
#54=CIRCLE('',#757,1.24212598425197);
#55=CIRCLE('',#759,2.);
#56=CIRCLE('',#761,0.1);
#57=CIRCLE('',#763,0.0499999999999999);
#58=CIRCLE('',#765,0.1);
#59=CIRCLE('',#767,0.05);
#60=CIRCLE('',#769,0.1);
#61=CIRCLE('',#771,0.05);
#62=CIRCLE('',#774,1.24212598425197);
#63=CIRCLE('',#776,1.24212598425197);
#64=CIRCLE('',#779,1.24212598425197);
#65=CIRCLE('',#783,1.8);
#66=CIRCLE('',#785,1.8);
#67=CIRCLE('',#788,0.05);
#68=CIRCLE('',#790,0.05);
#69=CIRCLE('',#792,0.0499999999999999);
#70=CIRCLE('',#794,1.8);
#71=CYLINDRICAL_SURFACE('',#729,0.2);
#72=CYLINDRICAL_SURFACE('',#737,0.25);
#73=CYLINDRICAL_SURFACE('',#738,0.375);
#74=CYLINDRICAL_SURFACE('',#745,0.497125984251968);
#75=CYLINDRICAL_SURFACE('',#758,2.);
#76=CYLINDRICAL_SURFACE('',#760,0.1);
#77=CYLINDRICAL_SURFACE('',#764,0.1);
#78=CYLINDRICAL_SURFACE('',#768,0.1);
#79=CYLINDRICAL_SURFACE('',#773,1.24212598425197);
#80=CYLINDRICAL_SURFACE('',#775,1.24212598425197);
#81=CYLINDRICAL_SURFACE('',#778,1.24212598425197);
#82=CYLINDRICAL_SURFACE('',#782,1.8);
#83=CYLINDRICAL_SURFACE('',#784,1.8);
#84=CYLINDRICAL_SURFACE('',#787,0.05);
#85=CYLINDRICAL_SURFACE('',#789,0.05);
#86=CYLINDRICAL_SURFACE('',#791,0.0499999999999999);
#87=CYLINDRICAL_SURFACE('',#793,1.8);
#88=FACE_OUTER_BOUND('',#126,.T.);
#89=FACE_OUTER_BOUND('',#127,.T.);
#90=FACE_OUTER_BOUND('',#128,.T.);
#91=FACE_OUTER_BOUND('',#129,.T.);
#92=FACE_OUTER_BOUND('',#130,.T.);
#93=FACE_OUTER_BOUND('',#131,.T.);
#94=FACE_OUTER_BOUND('',#132,.T.);
#95=FACE_OUTER_BOUND('',#134,.T.);
#96=FACE_OUTER_BOUND('',#136,.T.);
#97=FACE_OUTER_BOUND('',#137,.T.);
#98=FACE_OUTER_BOUND('',#138,.T.);
#99=FACE_OUTER_BOUND('',#140,.T.);
#100=FACE_OUTER_BOUND('',#141,.T.);
#101=FACE_OUTER_BOUND('',#142,.T.);
#102=FACE_OUTER_BOUND('',#143,.T.);
#103=FACE_OUTER_BOUND('',#151,.T.);
#104=FACE_OUTER_BOUND('',#152,.T.);
#105=FACE_OUTER_BOUND('',#153,.T.);
#106=FACE_OUTER_BOUND('',#155,.T.);
#107=FACE_OUTER_BOUND('',#156,.T.);
#108=FACE_OUTER_BOUND('',#158,.T.);
#109=FACE_OUTER_BOUND('',#159,.T.);
#110=FACE_OUTER_BOUND('',#161,.T.);
#111=FACE_OUTER_BOUND('',#162,.T.);
#112=FACE_OUTER_BOUND('',#163,.T.);
#113=FACE_OUTER_BOUND('',#164,.T.);
#114=FACE_OUTER_BOUND('',#165,.T.);
#115=FACE_OUTER_BOUND('',#166,.T.);
#116=FACE_OUTER_BOUND('',#167,.T.);
#117=FACE_OUTER_BOUND('',#168,.T.);
#118=FACE_OUTER_BOUND('',#169,.T.);
#119=FACE_OUTER_BOUND('',#170,.T.);
#120=FACE_OUTER_BOUND('',#171,.T.);
#121=FACE_OUTER_BOUND('',#172,.T.);
#122=FACE_OUTER_BOUND('',#173,.T.);
#123=FACE_OUTER_BOUND('',#174,.T.);
#124=FACE_OUTER_BOUND('',#175,.T.);
#125=FACE_OUTER_BOUND('',#176,.T.);
#126=EDGE_LOOP('',(#460,#461,#462,#463,#464,#465));
#127=EDGE_LOOP('',(#466,#467,#468,#469));
#128=EDGE_LOOP('',(#470,#471,#472,#473));
#129=EDGE_LOOP('',(#474,#475,#476,#477));
#130=EDGE_LOOP('',(#478,#479,#480,#481,#482,#483,#484,#485,#486));
#131=EDGE_LOOP('',(#487,#488,#489,#490));
#132=EDGE_LOOP('',(#491));
#133=EDGE_LOOP('',(#492));
#134=EDGE_LOOP('',(#493,#494,#495,#496));
#135=EDGE_LOOP('',(#497));
#136=EDGE_LOOP('',(#498,#499,#500,#501));
#137=EDGE_LOOP('',(#502,#503,#504,#505));
#138=EDGE_LOOP('',(#506,#507,#508,#509));
#139=EDGE_LOOP('',(#510));
#140=EDGE_LOOP('',(#511,#512,#513,#514,#515,#516,#517,#518,#519));
#141=EDGE_LOOP('',(#520,#521,#522,#523));
#142=EDGE_LOOP('',(#524,#525,#526,#527));
#143=EDGE_LOOP('',(#528,#529));
#144=EDGE_LOOP('',(#530));
#145=EDGE_LOOP('',(#531));
#146=EDGE_LOOP('',(#532));
#147=EDGE_LOOP('',(#533,#534,#535,#536));
#148=EDGE_LOOP('',(#537,#538,#539,#540));
#149=EDGE_LOOP('',(#541,#542,#543,#544));
#150=EDGE_LOOP('',(#545));
#151=EDGE_LOOP('',(#546,#547,#548,#549,#550,#551));
#152=EDGE_LOOP('',(#552,#553,#554,#555));
#153=EDGE_LOOP('',(#556));
#154=EDGE_LOOP('',(#557));
#155=EDGE_LOOP('',(#558,#559,#560,#561));
#156=EDGE_LOOP('',(#562));
#157=EDGE_LOOP('',(#563));
#158=EDGE_LOOP('',(#564,#565,#566,#567));
#159=EDGE_LOOP('',(#568));
#160=EDGE_LOOP('',(#569));
#161=EDGE_LOOP('',(#570,#571,#572,#573));
#162=EDGE_LOOP('',(#574,#575,#576,#577));
#163=EDGE_LOOP('',(#578,#579,#580,#581));
#164=EDGE_LOOP('',(#582,#583,#584,#585));
#165=EDGE_LOOP('',(#586,#587,#588,#589));
#166=EDGE_LOOP('',(#590,#591,#592,#593));
#167=EDGE_LOOP('',(#594,#595,#596,#597));
#168=EDGE_LOOP('',(#598,#599,#600,#601));
#169=EDGE_LOOP('',(#602,#603,#604,#605));
#170=EDGE_LOOP('',(#606,#607,#608,#609));
#171=EDGE_LOOP('',(#610,#611,#612,#613));
#172=EDGE_LOOP('',(#614,#615,#616,#617));
#173=EDGE_LOOP('',(#618,#619,#620,#621));
#174=EDGE_LOOP('',(#622,#623,#624,#625));
#175=EDGE_LOOP('',(#626,#627,#628,#629));
#176=EDGE_LOOP('',(#630,#631,#632,#633));
#177=EDGE_LOOP('',(#634,#635,#636,#637));
#178=EDGE_LOOP('',(#638));
#179=EDGE_LOOP('',(#639));
#180=EDGE_LOOP('',(#640));
#181=EDGE_LOOP('',(#641,#642,#643,#644));
#182=EDGE_LOOP('',(#645,#646,#647,#648));
#183=EDGE_LOOP('',(#649));
#184=LINE('',#1013,#242);
#185=LINE('',#1017,#243);
#186=LINE('',#1019,#244);
#187=LINE('',#1020,#245);
#188=LINE('',#1023,#246);
#189=LINE('',#1025,#247);
#190=LINE('',#1026,#248);
#191=LINE('',#1030,#249);
#192=LINE('',#1032,#250);
#193=LINE('',#1034,#251);
#194=LINE('',#1035,#252);
#195=LINE('',#1038,#253);
#196=LINE('',#1040,#254);
#197=LINE('',#1041,#255);
#198=LINE('',#1044,#256);
#199=LINE('',#1045,#257);
#200=LINE('',#1047,#258);
#201=LINE('',#1049,#259);
#202=LINE('',#1050,#260);
#203=LINE('',#1055,#261);
#204=LINE('',#1063,#262);
#205=LINE('',#1067,#263);
#206=LINE('',#1071,#264);
#207=LINE('',#1073,#265);
#208=LINE('',#1076,#266);
#209=LINE('',#1077,#267);
#210=LINE('',#1082,#268);
#211=LINE('',#1086,#269);
#212=LINE('',#1098,#270);
#213=LINE('',#1102,#271);
#214=LINE('',#1108,#272);
#215=LINE('',#1111,#273);
#216=LINE('',#1116,#274);
#217=LINE('',#1119,#275);
#218=LINE('',#1124,#276);
#219=LINE('',#1131,#277);
#220=LINE('',#1138,#278);
#221=LINE('',#1145,#279);
#222=LINE('',#1147,#280);
#223=LINE('',#1148,#281);
#224=LINE('',#1151,#282);
#225=LINE('',#1155,#283);
#226=LINE('',#1158,#284);
#227=LINE('',#1161,#285);
#228=LINE('',#1162,#286);
#229=LINE('',#1165,#287);
#230=LINE('',#1168,#288);
#231=LINE('',#1171,#289);
#232=LINE('',#1172,#290);
#233=LINE('',#1175,#291);
#234=LINE('',#1176,#292);
#235=LINE('',#1181,#293);
#236=LINE('',#1184,#294);
#237=LINE('',#1187,#295);
#238=LINE('',#1191,#296);
#239=LINE('',#1195,#297);
#240=LINE('',#1199,#298);
#241=LINE('',#1202,#299);
#242=VECTOR('',#803,0.393700787401575);
#243=VECTOR('',#806,0.393700787401575);
#244=VECTOR('',#807,0.393700787401575);
#245=VECTOR('',#808,0.393700787401575);
#246=VECTOR('',#811,0.393700787401575);
#247=VECTOR('',#812,0.393700787401575);
#248=VECTOR('',#813,0.393700787401575);
#249=VECTOR('',#816,0.393700787401575);
#250=VECTOR('',#817,0.393700787401575);
#251=VECTOR('',#818,0.393700787401575);
#252=VECTOR('',#819,0.393700787401575);
#253=VECTOR('',#822,0.393700787401575);
#254=VECTOR('',#823,0.393700787401575);
#255=VECTOR('',#824,0.393700787401575);
#256=VECTOR('',#827,0.393700787401575);
#257=VECTOR('',#828,0.393700787401575);
#258=VECTOR('',#829,0.393700787401575);
#259=VECTOR('',#830,0.393700787401575);
#260=VECTOR('',#831,0.393700787401575);
#261=VECTOR('',#836,0.2);
#262=VECTOR('',#847,0.393700787401575);
#263=VECTOR('',#852,0.25);
#264=VECTOR('',#857,0.393700787401575);
#265=VECTOR('',#860,0.393700787401575);
#266=VECTOR('',#863,0.393700787401575);
#267=VECTOR('',#864,0.393700787401575);
#268=VECTOR('',#869,0.622125984251969);
#269=VECTOR('',#874,0.497125984251968);
#270=VECTOR('',#887,0.393700787401575);
#271=VECTOR('',#890,0.393700787401575);
#272=VECTOR('',#895,0.393700787401575);
#273=VECTOR('',#898,0.393700787401575);
#274=VECTOR('',#901,0.393700787401575);
#275=VECTOR('',#904,0.393700787401575);
#276=VECTOR('',#911,0.1);
#277=VECTOR('',#920,0.1);
#278=VECTOR('',#929,0.1);
#279=VECTOR('',#938,0.393700787401575);
#280=VECTOR('',#939,0.393700787401575);
#281=VECTOR('',#940,0.393700787401575);
#282=VECTOR('',#943,0.393700787401575);
#283=VECTOR('',#948,0.393700787401575);
#284=VECTOR('',#951,0.393700787401575);
#285=VECTOR('',#954,0.393700787401575);
#286=VECTOR('',#955,0.393700787401575);
#287=VECTOR('',#958,0.393700787401575);
#288=VECTOR('',#961,0.393700787401575);
#289=VECTOR('',#964,0.393700787401575);
#290=VECTOR('',#965,0.393700787401575);
#291=VECTOR('',#968,0.393700787401575);
#292=VECTOR('',#969,0.393700787401575);
#293=VECTOR('',#976,0.393700787401575);
#294=VECTOR('',#981,0.393700787401575);
#295=VECTOR('',#984,0.05);
#296=VECTOR('',#989,0.05);
#297=VECTOR('',#994,0.0499999999999999);
#298=VECTOR('',#999,0.393700787401575);
#299=VECTOR('',#1004,0.393700787401575);
#300=ELLIPSE('',#723,2.82842712474619,2.);
#301=ELLIPSE('',#724,2.82842712474619,2.);
#302=VERTEX_POINT('',#1009);
#303=VERTEX_POINT('',#1010);
#304=VERTEX_POINT('',#1012);
#305=VERTEX_POINT('',#1014);
#306=VERTEX_POINT('',#1016);
#307=VERTEX_POINT('',#1018);
#308=VERTEX_POINT('',#1022);
#309=VERTEX_POINT('',#1024);
#310=VERTEX_POINT('',#1028);
#311=VERTEX_POINT('',#1029);
#312=VERTEX_POINT('',#1031);
#313=VERTEX_POINT('',#1033);
#314=VERTEX_POINT('',#1037);
#315=VERTEX_POINT('',#1039);
#316=VERTEX_POINT('',#1043);
#317=VERTEX_POINT('',#1046);
#318=VERTEX_POINT('',#1048);
#319=VERTEX_POINT('',#1052);
#320=VERTEX_POINT('',#1054);
#321=VERTEX_POINT('',#1058);
#322=VERTEX_POINT('',#1061);
#323=VERTEX_POINT('',#1064);
#324=VERTEX_POINT('',#1069);
#325=VERTEX_POINT('',#1075);
#326=VERTEX_POINT('',#1079);
#327=VERTEX_POINT('',#1081);
#328=VERTEX_POINT('',#1085);
#329=VERTEX_POINT('',#1090);
#330=VERTEX_POINT('',#1092);
#331=VERTEX_POINT('',#1094);
#332=VERTEX_POINT('',#1096);
#333=VERTEX_POINT('',#1097);
#334=VERTEX_POINT('',#1099);
#335=VERTEX_POINT('',#1101);
#336=VERTEX_POINT('',#1104);
#337=VERTEX_POINT('',#1105);
#338=VERTEX_POINT('',#1107);
#339=VERTEX_POINT('',#1109);
#340=VERTEX_POINT('',#1112);
#341=VERTEX_POINT('',#1113);
#342=VERTEX_POINT('',#1115);
#343=VERTEX_POINT('',#1117);
#344=VERTEX_POINT('',#1123);
#345=VERTEX_POINT('',#1127);
#346=VERTEX_POINT('',#1130);
#347=VERTEX_POINT('',#1134);
#348=VERTEX_POINT('',#1137);
#349=VERTEX_POINT('',#1141);
#350=VERTEX_POINT('',#1144);
#351=VERTEX_POINT('',#1146);
#352=VERTEX_POINT('',#1150);
#353=VERTEX_POINT('',#1154);
#354=VERTEX_POINT('',#1156);
#355=VERTEX_POINT('',#1160);
#356=VERTEX_POINT('',#1164);
#357=VERTEX_POINT('',#1166);
#358=VERTEX_POINT('',#1170);
#359=VERTEX_POINT('',#1174);
#360=VERTEX_POINT('',#1180);
#361=VERTEX_POINT('',#1186);
#362=VERTEX_POINT('',#1190);
#363=VERTEX_POINT('',#1194);
#364=VERTEX_POINT('',#1198);
#365=EDGE_CURVE('',#302,#303,#300,.F.);
#366=EDGE_CURVE('',#302,#304,#184,.T.);
#367=EDGE_CURVE('',#304,#305,#301,.T.);
#368=EDGE_CURVE('',#305,#306,#185,.T.);
#369=EDGE_CURVE('',#306,#307,#186,.T.);
#370=EDGE_CURVE('',#303,#307,#187,.F.);
#371=EDGE_CURVE('',#306,#308,#188,.T.);
#372=EDGE_CURVE('',#308,#309,#189,.T.);
#373=EDGE_CURVE('',#307,#309,#190,.T.);
#374=EDGE_CURVE('',#310,#311,#191,.T.);
#375=EDGE_CURVE('',#311,#312,#192,.T.);
#376=EDGE_CURVE('',#312,#313,#193,.T.);
#377=EDGE_CURVE('',#313,#310,#194,.T.);
#378=EDGE_CURVE('',#311,#314,#195,.T.);
#379=EDGE_CURVE('',#314,#315,#196,.T.);
#380=EDGE_CURVE('',#312,#315,#197,.T.);
#381=EDGE_CURVE('',#310,#316,#198,.T.);
#382=EDGE_CURVE('',#303,#316,#199,.T.);
#383=EDGE_CURVE('',#309,#317,#200,.T.);
#384=EDGE_CURVE('',#317,#318,#201,.T.);
#385=EDGE_CURVE('',#314,#318,#202,.T.);
#386=EDGE_CURVE('',#319,#319,#36,.T.);
#387=EDGE_CURVE('',#319,#320,#203,.T.);
#388=EDGE_CURVE('',#320,#320,#37,.T.);
#389=EDGE_CURVE('',#321,#321,#38,.T.);
#390=EDGE_CURVE('',#318,#322,#39,.T.);
#391=EDGE_CURVE('',#322,#315,#204,.T.);
#392=EDGE_CURVE('',#323,#323,#40,.T.);
#393=EDGE_CURVE('',#323,#321,#205,.T.);
#394=EDGE_CURVE('',#317,#324,#41,.T.);
#395=EDGE_CURVE('',#324,#322,#206,.T.);
#396=EDGE_CURVE('',#308,#324,#207,.T.);
#397=EDGE_CURVE('',#305,#325,#208,.F.);
#398=EDGE_CURVE('',#325,#313,#209,.T.);
#399=EDGE_CURVE('',#326,#326,#42,.T.);
#400=EDGE_CURVE('',#326,#327,#210,.T.);
#401=EDGE_CURVE('',#327,#327,#43,.T.);
#402=EDGE_CURVE('',#326,#328,#211,.T.);
#403=EDGE_CURVE('',#328,#328,#44,.T.);
#404=EDGE_CURVE('',#304,#302,#45,.F.);
#405=EDGE_CURVE('',#329,#329,#46,.T.);
#406=EDGE_CURVE('',#330,#330,#47,.T.);
#407=EDGE_CURVE('',#331,#331,#48,.T.);
#408=EDGE_CURVE('',#332,#333,#212,.F.);
#409=EDGE_CURVE('',#334,#332,#49,.F.);
#410=EDGE_CURVE('',#335,#334,#213,.F.);
#411=EDGE_CURVE('',#333,#335,#50,.F.);
#412=EDGE_CURVE('',#336,#337,#51,.F.);
#413=EDGE_CURVE('',#338,#336,#214,.F.);
#414=EDGE_CURVE('',#339,#338,#52,.F.);
#415=EDGE_CURVE('',#337,#339,#215,.F.);
#416=EDGE_CURVE('',#340,#341,#53,.F.);
#417=EDGE_CURVE('',#342,#340,#216,.F.);
#418=EDGE_CURVE('',#343,#342,#54,.F.);
#419=EDGE_CURVE('',#341,#343,#217,.F.);
#420=EDGE_CURVE('',#316,#325,#55,.T.);
#421=EDGE_CURVE('',#329,#344,#218,.T.);
#422=EDGE_CURVE('',#344,#344,#56,.T.);
#423=EDGE_CURVE('',#345,#345,#57,.T.);
#424=EDGE_CURVE('',#330,#346,#219,.T.);
#425=EDGE_CURVE('',#346,#346,#58,.T.);
#426=EDGE_CURVE('',#347,#347,#59,.T.);
#427=EDGE_CURVE('',#331,#348,#220,.T.);
#428=EDGE_CURVE('',#348,#348,#60,.T.);
#429=EDGE_CURVE('',#349,#349,#61,.T.);
#430=EDGE_CURVE('',#350,#334,#221,.T.);
#431=EDGE_CURVE('',#350,#351,#222,.T.);
#432=EDGE_CURVE('',#351,#335,#223,.T.);
#433=EDGE_CURVE('',#352,#332,#224,.T.);
#434=EDGE_CURVE('',#352,#350,#62,.T.);
#435=EDGE_CURVE('',#353,#338,#225,.T.);
#436=EDGE_CURVE('',#353,#354,#63,.T.);
#437=EDGE_CURVE('',#354,#339,#226,.T.);
#438=EDGE_CURVE('',#355,#336,#227,.T.);
#439=EDGE_CURVE('',#355,#353,#228,.T.);
#440=EDGE_CURVE('',#356,#342,#229,.T.);
#441=EDGE_CURVE('',#356,#357,#64,.T.);
#442=EDGE_CURVE('',#357,#343,#230,.T.);
#443=EDGE_CURVE('',#358,#340,#231,.T.);
#444=EDGE_CURVE('',#358,#356,#232,.T.);
#445=EDGE_CURVE('',#359,#333,#233,.T.);
#446=EDGE_CURVE('',#359,#352,#234,.T.);
#447=EDGE_CURVE('',#351,#359,#65,.T.);
#448=EDGE_CURVE('',#360,#337,#235,.T.);
#449=EDGE_CURVE('',#360,#355,#66,.T.);
#450=EDGE_CURVE('',#354,#360,#236,.T.);
#451=EDGE_CURVE('',#349,#361,#237,.T.);
#452=EDGE_CURVE('',#361,#361,#67,.T.);
#453=EDGE_CURVE('',#347,#362,#238,.T.);
#454=EDGE_CURVE('',#362,#362,#68,.T.);
#455=EDGE_CURVE('',#345,#363,#239,.T.);
#456=EDGE_CURVE('',#363,#363,#69,.T.);
#457=EDGE_CURVE('',#364,#341,#240,.T.);
#458=EDGE_CURVE('',#364,#358,#70,.T.);
#459=EDGE_CURVE('',#357,#364,#241,.T.);
#460=ORIENTED_EDGE('',*,*,#365,.F.);
#461=ORIENTED_EDGE('',*,*,#366,.T.);
#462=ORIENTED_EDGE('',*,*,#367,.T.);
#463=ORIENTED_EDGE('',*,*,#368,.T.);
#464=ORIENTED_EDGE('',*,*,#369,.T.);
#465=ORIENTED_EDGE('',*,*,#370,.F.);
#466=ORIENTED_EDGE('',*,*,#369,.F.);
#467=ORIENTED_EDGE('',*,*,#371,.T.);
#468=ORIENTED_EDGE('',*,*,#372,.T.);
#469=ORIENTED_EDGE('',*,*,#373,.F.);
#470=ORIENTED_EDGE('',*,*,#374,.T.);
#471=ORIENTED_EDGE('',*,*,#375,.T.);
#472=ORIENTED_EDGE('',*,*,#376,.T.);
#473=ORIENTED_EDGE('',*,*,#377,.T.);
#474=ORIENTED_EDGE('',*,*,#375,.F.);
#475=ORIENTED_EDGE('',*,*,#378,.T.);
#476=ORIENTED_EDGE('',*,*,#379,.T.);
#477=ORIENTED_EDGE('',*,*,#380,.F.);
#478=ORIENTED_EDGE('',*,*,#374,.F.);
#479=ORIENTED_EDGE('',*,*,#381,.T.);
#480=ORIENTED_EDGE('',*,*,#382,.F.);
#481=ORIENTED_EDGE('',*,*,#370,.T.);
#482=ORIENTED_EDGE('',*,*,#373,.T.);
#483=ORIENTED_EDGE('',*,*,#383,.T.);
#484=ORIENTED_EDGE('',*,*,#384,.T.);
#485=ORIENTED_EDGE('',*,*,#385,.F.);
#486=ORIENTED_EDGE('',*,*,#378,.F.);
#487=ORIENTED_EDGE('',*,*,#386,.F.);
#488=ORIENTED_EDGE('',*,*,#387,.T.);
#489=ORIENTED_EDGE('',*,*,#388,.T.);
#490=ORIENTED_EDGE('',*,*,#387,.F.);
#491=ORIENTED_EDGE('',*,*,#389,.F.);
#492=ORIENTED_EDGE('',*,*,#386,.T.);
#493=ORIENTED_EDGE('',*,*,#379,.F.);
#494=ORIENTED_EDGE('',*,*,#385,.T.);
#495=ORIENTED_EDGE('',*,*,#390,.T.);
#496=ORIENTED_EDGE('',*,*,#391,.T.);
#497=ORIENTED_EDGE('',*,*,#392,.T.);
#498=ORIENTED_EDGE('',*,*,#392,.F.);
#499=ORIENTED_EDGE('',*,*,#393,.T.);
#500=ORIENTED_EDGE('',*,*,#389,.T.);
#501=ORIENTED_EDGE('',*,*,#393,.F.);
#502=ORIENTED_EDGE('',*,*,#394,.T.);
#503=ORIENTED_EDGE('',*,*,#395,.T.);
#504=ORIENTED_EDGE('',*,*,#390,.F.);
#505=ORIENTED_EDGE('',*,*,#384,.F.);
#506=ORIENTED_EDGE('',*,*,#372,.F.);
#507=ORIENTED_EDGE('',*,*,#396,.T.);
#508=ORIENTED_EDGE('',*,*,#394,.F.);
#509=ORIENTED_EDGE('',*,*,#383,.F.);
#510=ORIENTED_EDGE('',*,*,#388,.F.);
#511=ORIENTED_EDGE('',*,*,#376,.F.);
#512=ORIENTED_EDGE('',*,*,#380,.T.);
#513=ORIENTED_EDGE('',*,*,#391,.F.);
#514=ORIENTED_EDGE('',*,*,#395,.F.);
#515=ORIENTED_EDGE('',*,*,#396,.F.);
#516=ORIENTED_EDGE('',*,*,#371,.F.);
#517=ORIENTED_EDGE('',*,*,#368,.F.);
#518=ORIENTED_EDGE('',*,*,#397,.T.);
#519=ORIENTED_EDGE('',*,*,#398,.T.);
#520=ORIENTED_EDGE('',*,*,#399,.T.);
#521=ORIENTED_EDGE('',*,*,#400,.T.);
#522=ORIENTED_EDGE('',*,*,#401,.T.);
#523=ORIENTED_EDGE('',*,*,#400,.F.);
#524=ORIENTED_EDGE('',*,*,#399,.F.);
#525=ORIENTED_EDGE('',*,*,#402,.T.);
#526=ORIENTED_EDGE('',*,*,#403,.T.);
#527=ORIENTED_EDGE('',*,*,#402,.F.);
#528=ORIENTED_EDGE('',*,*,#366,.F.);
#529=ORIENTED_EDGE('',*,*,#404,.F.);
#530=ORIENTED_EDGE('',*,*,#405,.T.);
#531=ORIENTED_EDGE('',*,*,#406,.T.);
#532=ORIENTED_EDGE('',*,*,#407,.T.);
#533=ORIENTED_EDGE('',*,*,#408,.F.);
#534=ORIENTED_EDGE('',*,*,#409,.F.);
#535=ORIENTED_EDGE('',*,*,#410,.F.);
#536=ORIENTED_EDGE('',*,*,#411,.F.);
#537=ORIENTED_EDGE('',*,*,#412,.F.);
#538=ORIENTED_EDGE('',*,*,#413,.F.);
#539=ORIENTED_EDGE('',*,*,#414,.F.);
#540=ORIENTED_EDGE('',*,*,#415,.F.);
#541=ORIENTED_EDGE('',*,*,#416,.F.);
#542=ORIENTED_EDGE('',*,*,#417,.F.);
#543=ORIENTED_EDGE('',*,*,#418,.F.);
#544=ORIENTED_EDGE('',*,*,#419,.F.);
#545=ORIENTED_EDGE('',*,*,#401,.F.);
#546=ORIENTED_EDGE('',*,*,#382,.T.);
#547=ORIENTED_EDGE('',*,*,#420,.T.);
#548=ORIENTED_EDGE('',*,*,#397,.F.);
#549=ORIENTED_EDGE('',*,*,#367,.F.);
#550=ORIENTED_EDGE('',*,*,#404,.T.);
#551=ORIENTED_EDGE('',*,*,#365,.T.);
#552=ORIENTED_EDGE('',*,*,#405,.F.);
#553=ORIENTED_EDGE('',*,*,#421,.T.);
#554=ORIENTED_EDGE('',*,*,#422,.T.);
#555=ORIENTED_EDGE('',*,*,#421,.F.);
#556=ORIENTED_EDGE('',*,*,#422,.F.);
#557=ORIENTED_EDGE('',*,*,#423,.F.);
#558=ORIENTED_EDGE('',*,*,#406,.F.);
#559=ORIENTED_EDGE('',*,*,#424,.T.);
#560=ORIENTED_EDGE('',*,*,#425,.T.);
#561=ORIENTED_EDGE('',*,*,#424,.F.);
#562=ORIENTED_EDGE('',*,*,#425,.F.);
#563=ORIENTED_EDGE('',*,*,#426,.F.);
#564=ORIENTED_EDGE('',*,*,#407,.F.);
#565=ORIENTED_EDGE('',*,*,#427,.T.);
#566=ORIENTED_EDGE('',*,*,#428,.T.);
#567=ORIENTED_EDGE('',*,*,#427,.F.);
#568=ORIENTED_EDGE('',*,*,#428,.F.);
#569=ORIENTED_EDGE('',*,*,#429,.F.);
#570=ORIENTED_EDGE('',*,*,#410,.T.);
#571=ORIENTED_EDGE('',*,*,#430,.F.);
#572=ORIENTED_EDGE('',*,*,#431,.T.);
#573=ORIENTED_EDGE('',*,*,#432,.T.);
#574=ORIENTED_EDGE('',*,*,#409,.T.);
#575=ORIENTED_EDGE('',*,*,#433,.F.);
#576=ORIENTED_EDGE('',*,*,#434,.T.);
#577=ORIENTED_EDGE('',*,*,#430,.T.);
#578=ORIENTED_EDGE('',*,*,#414,.T.);
#579=ORIENTED_EDGE('',*,*,#435,.F.);
#580=ORIENTED_EDGE('',*,*,#436,.T.);
#581=ORIENTED_EDGE('',*,*,#437,.T.);
#582=ORIENTED_EDGE('',*,*,#413,.T.);
#583=ORIENTED_EDGE('',*,*,#438,.F.);
#584=ORIENTED_EDGE('',*,*,#439,.T.);
#585=ORIENTED_EDGE('',*,*,#435,.T.);
#586=ORIENTED_EDGE('',*,*,#418,.T.);
#587=ORIENTED_EDGE('',*,*,#440,.F.);
#588=ORIENTED_EDGE('',*,*,#441,.T.);
#589=ORIENTED_EDGE('',*,*,#442,.T.);
#590=ORIENTED_EDGE('',*,*,#417,.T.);
#591=ORIENTED_EDGE('',*,*,#443,.F.);
#592=ORIENTED_EDGE('',*,*,#444,.T.);
#593=ORIENTED_EDGE('',*,*,#440,.T.);
#594=ORIENTED_EDGE('',*,*,#408,.T.);
#595=ORIENTED_EDGE('',*,*,#445,.F.);
#596=ORIENTED_EDGE('',*,*,#446,.T.);
#597=ORIENTED_EDGE('',*,*,#433,.T.);
#598=ORIENTED_EDGE('',*,*,#411,.T.);
#599=ORIENTED_EDGE('',*,*,#432,.F.);
#600=ORIENTED_EDGE('',*,*,#447,.T.);
#601=ORIENTED_EDGE('',*,*,#445,.T.);
#602=ORIENTED_EDGE('',*,*,#412,.T.);
#603=ORIENTED_EDGE('',*,*,#448,.F.);
#604=ORIENTED_EDGE('',*,*,#449,.T.);
#605=ORIENTED_EDGE('',*,*,#438,.T.);
#606=ORIENTED_EDGE('',*,*,#415,.T.);
#607=ORIENTED_EDGE('',*,*,#437,.F.);
#608=ORIENTED_EDGE('',*,*,#450,.T.);
#609=ORIENTED_EDGE('',*,*,#448,.T.);
#610=ORIENTED_EDGE('',*,*,#429,.T.);
#611=ORIENTED_EDGE('',*,*,#451,.T.);
#612=ORIENTED_EDGE('',*,*,#452,.T.);
#613=ORIENTED_EDGE('',*,*,#451,.F.);
#614=ORIENTED_EDGE('',*,*,#426,.T.);
#615=ORIENTED_EDGE('',*,*,#453,.T.);
#616=ORIENTED_EDGE('',*,*,#454,.T.);
#617=ORIENTED_EDGE('',*,*,#453,.F.);
#618=ORIENTED_EDGE('',*,*,#423,.T.);
#619=ORIENTED_EDGE('',*,*,#455,.T.);
#620=ORIENTED_EDGE('',*,*,#456,.T.);
#621=ORIENTED_EDGE('',*,*,#455,.F.);
#622=ORIENTED_EDGE('',*,*,#416,.T.);
#623=ORIENTED_EDGE('',*,*,#457,.F.);
#624=ORIENTED_EDGE('',*,*,#458,.T.);
#625=ORIENTED_EDGE('',*,*,#443,.T.);
#626=ORIENTED_EDGE('',*,*,#419,.T.);
#627=ORIENTED_EDGE('',*,*,#442,.F.);
#628=ORIENTED_EDGE('',*,*,#459,.T.);
#629=ORIENTED_EDGE('',*,*,#457,.T.);
#630=ORIENTED_EDGE('',*,*,#377,.F.);
#631=ORIENTED_EDGE('',*,*,#398,.F.);
#632=ORIENTED_EDGE('',*,*,#420,.F.);
#633=ORIENTED_EDGE('',*,*,#381,.F.);
#634=ORIENTED_EDGE('',*,*,#444,.F.);
#635=ORIENTED_EDGE('',*,*,#458,.F.);
#636=ORIENTED_EDGE('',*,*,#459,.F.);
#637=ORIENTED_EDGE('',*,*,#441,.F.);
#638=ORIENTED_EDGE('',*,*,#456,.F.);
#639=ORIENTED_EDGE('',*,*,#454,.F.);
#640=ORIENTED_EDGE('',*,*,#452,.F.);
#641=ORIENTED_EDGE('',*,*,#439,.F.);
#642=ORIENTED_EDGE('',*,*,#449,.F.);
#643=ORIENTED_EDGE('',*,*,#450,.F.);
#644=ORIENTED_EDGE('',*,*,#436,.F.);
#645=ORIENTED_EDGE('',*,*,#434,.F.);
#646=ORIENTED_EDGE('',*,*,#446,.F.);
#647=ORIENTED_EDGE('',*,*,#447,.F.);
#648=ORIENTED_EDGE('',*,*,#431,.F.);
#649=ORIENTED_EDGE('',*,*,#403,.F.);
#650=PLANE('',#722);
#651=PLANE('',#725);
#652=PLANE('',#726);
#653=PLANE('',#727);
#654=PLANE('',#728);
#655=PLANE('',#732);
#656=PLANE('',#734);
#657=PLANE('',#740);
#658=PLANE('',#741);
#659=PLANE('',#747);
#660=PLANE('',#762);
#661=PLANE('',#766);
#662=PLANE('',#770);
#663=PLANE('',#772);
#664=PLANE('',#777);
#665=PLANE('',#780);
#666=PLANE('',#781);
#667=PLANE('',#786);
#668=PLANE('',#795);
#669=PLANE('',#796);
#670=ADVANCED_FACE('',(#88),#650,.T.);
#671=ADVANCED_FACE('',(#89),#651,.T.);
#672=ADVANCED_FACE('',(#90),#652,.T.);
#673=ADVANCED_FACE('',(#91),#653,.T.);
#674=ADVANCED_FACE('',(#92),#654,.T.);
#675=ADVANCED_FACE('',(#93),#71,.F.);
#676=ADVANCED_FACE('',(#94,#16),#655,.T.);
#677=ADVANCED_FACE('',(#95,#17),#656,.T.);
#678=ADVANCED_FACE('',(#96),#72,.F.);
#679=ADVANCED_FACE('',(#97),#73,.T.);
#680=ADVANCED_FACE('',(#98,#18),#657,.F.);
#681=ADVANCED_FACE('',(#99),#658,.T.);
#682=ADVANCED_FACE('',(#100),#15,.F.);
#683=ADVANCED_FACE('',(#101),#74,.F.);
#684=ADVANCED_FACE('',(#102,#19,#20,#21,#22,#23,#24,#25),#659,.T.);
#685=ADVANCED_FACE('',(#103),#75,.T.);
#686=ADVANCED_FACE('',(#104),#76,.F.);
#687=ADVANCED_FACE('',(#105,#26),#660,.T.);
#688=ADVANCED_FACE('',(#106),#77,.F.);
#689=ADVANCED_FACE('',(#107,#27),#661,.T.);
#690=ADVANCED_FACE('',(#108),#78,.F.);
#691=ADVANCED_FACE('',(#109,#28),#662,.T.);
#692=ADVANCED_FACE('',(#110),#663,.T.);
#693=ADVANCED_FACE('',(#111),#79,.T.);
#694=ADVANCED_FACE('',(#112),#80,.T.);
#695=ADVANCED_FACE('',(#113),#664,.T.);
#696=ADVANCED_FACE('',(#114),#81,.T.);
#697=ADVANCED_FACE('',(#115),#665,.T.);
#698=ADVANCED_FACE('',(#116),#666,.T.);
#699=ADVANCED_FACE('',(#117),#82,.F.);
#700=ADVANCED_FACE('',(#118),#83,.F.);
#701=ADVANCED_FACE('',(#119),#667,.T.);
#702=ADVANCED_FACE('',(#120),#84,.F.);
#703=ADVANCED_FACE('',(#121),#85,.F.);
#704=ADVANCED_FACE('',(#122),#86,.F.);
#705=ADVANCED_FACE('',(#123),#87,.F.);
#706=ADVANCED_FACE('',(#124),#668,.T.);
#707=ADVANCED_FACE('',(#125,#29,#30,#31,#32,#33,#34,#35),#669,.F.);
#708=CLOSED_SHELL('',(#670,#671,#672,#673,#674,#675,#676,#677,#678,#679,
#680,#681,#682,#683,#684,#685,#686,#687,#688,#689,#690,#691,#692,#693,#694,
#695,#696,#697,#698,#699,#700,#701,#702,#703,#704,#705,#706,#707));
#709=DERIVED_UNIT_ELEMENT(#711,1.);
#710=DERIVED_UNIT_ELEMENT(#1211,-3.);
#711=(
MASS_UNIT()
NAMED_UNIT(*)
SI_UNIT(.KILO.,.GRAM.)
);
#712=DERIVED_UNIT((#709,#710));
#713=MEASURE_REPRESENTATION_ITEM('density measure',
POSITIVE_RATIO_MEASURE(7850.),#712);
#714=PROPERTY_DEFINITION_REPRESENTATION(#719,#716);
#715=PROPERTY_DEFINITION_REPRESENTATION(#720,#717);
#716=REPRESENTATION('material name',(#718),#1206);
#717=REPRESENTATION('density',(#713),#1206);
#718=DESCRIPTIVE_REPRESENTATION_ITEM('Steel','Steel');
#719=PROPERTY_DEFINITION('material property','material name',#1219);
#720=PROPERTY_DEFINITION('material property','density of part',#1219);
#721=AXIS2_PLACEMENT_3D('',#1007,#797,#798);
#722=AXIS2_PLACEMENT_3D('',#1008,#799,#800);
#723=AXIS2_PLACEMENT_3D('',#1011,#801,#802);
#724=AXIS2_PLACEMENT_3D('',#1015,#804,#805);
#725=AXIS2_PLACEMENT_3D('',#1021,#809,#810);
#726=AXIS2_PLACEMENT_3D('',#1027,#814,#815);
#727=AXIS2_PLACEMENT_3D('',#1036,#820,#821);
#728=AXIS2_PLACEMENT_3D('',#1042,#825,#826);
#729=AXIS2_PLACEMENT_3D('',#1051,#832,#833);
#730=AXIS2_PLACEMENT_3D('',#1053,#834,#835);
#731=AXIS2_PLACEMENT_3D('',#1056,#837,#838);
#732=AXIS2_PLACEMENT_3D('',#1057,#839,#840);
#733=AXIS2_PLACEMENT_3D('',#1059,#841,#842);
#734=AXIS2_PLACEMENT_3D('',#1060,#843,#844);
#735=AXIS2_PLACEMENT_3D('',#1062,#845,#846);
#736=AXIS2_PLACEMENT_3D('',#1065,#848,#849);
#737=AXIS2_PLACEMENT_3D('',#1066,#850,#851);
#738=AXIS2_PLACEMENT_3D('',#1068,#853,#854);
#739=AXIS2_PLACEMENT_3D('',#1070,#855,#856);
#740=AXIS2_PLACEMENT_3D('',#1072,#858,#859);
#741=AXIS2_PLACEMENT_3D('',#1074,#861,#862);
#742=AXIS2_PLACEMENT_3D('',#1078,#865,#866);
#743=AXIS2_PLACEMENT_3D('',#1080,#867,#868);
#744=AXIS2_PLACEMENT_3D('',#1083,#870,#871);
#745=AXIS2_PLACEMENT_3D('',#1084,#872,#873);
#746=AXIS2_PLACEMENT_3D('',#1087,#875,#876);
#747=AXIS2_PLACEMENT_3D('',#1088,#877,#878);
#748=AXIS2_PLACEMENT_3D('',#1089,#879,#880);
#749=AXIS2_PLACEMENT_3D('',#1091,#881,#882);
#750=AXIS2_PLACEMENT_3D('',#1093,#883,#884);
#751=AXIS2_PLACEMENT_3D('',#1095,#885,#886);
#752=AXIS2_PLACEMENT_3D('',#1100,#888,#889);
#753=AXIS2_PLACEMENT_3D('',#1103,#891,#892);
#754=AXIS2_PLACEMENT_3D('',#1106,#893,#894);
#755=AXIS2_PLACEMENT_3D('',#1110,#896,#897);
#756=AXIS2_PLACEMENT_3D('',#1114,#899,#900);
#757=AXIS2_PLACEMENT_3D('',#1118,#902,#903);
#758=AXIS2_PLACEMENT_3D('',#1120,#905,#906);
#759=AXIS2_PLACEMENT_3D('',#1121,#907,#908);
#760=AXIS2_PLACEMENT_3D('',#1122,#909,#910);
#761=AXIS2_PLACEMENT_3D('',#1125,#912,#913);
#762=AXIS2_PLACEMENT_3D('',#1126,#914,#915);
#763=AXIS2_PLACEMENT_3D('',#1128,#916,#917);
#764=AXIS2_PLACEMENT_3D('',#1129,#918,#919);
#765=AXIS2_PLACEMENT_3D('',#1132,#921,#922);
#766=AXIS2_PLACEMENT_3D('',#1133,#923,#924);
#767=AXIS2_PLACEMENT_3D('',#1135,#925,#926);
#768=AXIS2_PLACEMENT_3D('',#1136,#927,#928);
#769=AXIS2_PLACEMENT_3D('',#1139,#930,#931);
#770=AXIS2_PLACEMENT_3D('',#1140,#932,#933);
#771=AXIS2_PLACEMENT_3D('',#1142,#934,#935);
#772=AXIS2_PLACEMENT_3D('',#1143,#936,#937);
#773=AXIS2_PLACEMENT_3D('',#1149,#941,#942);
#774=AXIS2_PLACEMENT_3D('',#1152,#944,#945);
#775=AXIS2_PLACEMENT_3D('',#1153,#946,#947);
#776=AXIS2_PLACEMENT_3D('',#1157,#949,#950);
#777=AXIS2_PLACEMENT_3D('',#1159,#952,#953);
#778=AXIS2_PLACEMENT_3D('',#1163,#956,#957);
#779=AXIS2_PLACEMENT_3D('',#1167,#959,#960);
#780=AXIS2_PLACEMENT_3D('',#1169,#962,#963);
#781=AXIS2_PLACEMENT_3D('',#1173,#966,#967);
#782=AXIS2_PLACEMENT_3D('',#1177,#970,#971);
#783=AXIS2_PLACEMENT_3D('',#1178,#972,#973);
#784=AXIS2_PLACEMENT_3D('',#1179,#974,#975);
#785=AXIS2_PLACEMENT_3D('',#1182,#977,#978);
#786=AXIS2_PLACEMENT_3D('',#1183,#979,#980);
#787=AXIS2_PLACEMENT_3D('',#1185,#982,#983);
#788=AXIS2_PLACEMENT_3D('',#1188,#985,#986);
#789=AXIS2_PLACEMENT_3D('',#1189,#987,#988);
#790=AXIS2_PLACEMENT_3D('',#1192,#990,#991);
#791=AXIS2_PLACEMENT_3D('',#1193,#992,#993);
#792=AXIS2_PLACEMENT_3D('',#1196,#995,#996);
#793=AXIS2_PLACEMENT_3D('',#1197,#997,#998);
#794=AXIS2_PLACEMENT_3D('',#1200,#1000,#1001);
#795=AXIS2_PLACEMENT_3D('',#1201,#1002,#1003);
#796=AXIS2_PLACEMENT_3D('',#1203,#1005,#1006);
#797=DIRECTION('axis',(0.,0.,1.));
#798=DIRECTION('refdir',(1.,0.,0.));
#799=DIRECTION('center_axis',(-0.707106781186547,-1.55431223447522E-15,
0.707106781186548));
#800=DIRECTION('ref_axis',(-0.447213595499958,-0.774596669241483,-0.447213595499958));
#801=DIRECTION('center_axis',(-0.707106781186547,-1.55431223447522E-15,
0.707106781186548));
#802=DIRECTION('ref_axis',(0.707106781186548,1.54536659319269E-15,0.707106781186547));
#803=DIRECTION('',(2.16493489801906E-15,-1.,0.));
#804=DIRECTION('center_axis',(-0.707106781186547,-1.55431223447522E-15,
0.707106781186548));
#805=DIRECTION('ref_axis',(0.707106781186548,1.54536659319269E-15,0.707106781186547));
#806=DIRECTION('',(0.707106781186548,8.32667268468867E-15,0.707106781186547));
#807=DIRECTION('',(-2.16493489801906E-15,1.,0.));
#808=DIRECTION('',(-0.707106781186548,5.38458166943201E-15,-0.707106781186547));
#809=DIRECTION('center_axis',(-1.,-2.16493489801906E-15,5.62009420130135E-16));
#810=DIRECTION('ref_axis',(2.16493489801906E-15,-1.,0.));
#811=DIRECTION('',(5.6200942013013E-16,2.24497993613962E-15,1.));
#812=DIRECTION('',(-2.16493489801906E-15,1.,0.));
#813=DIRECTION('',(5.6200942013013E-16,2.24497993613962E-15,1.));
#814=DIRECTION('center_axis',(0.707106781186548,-3.88578058618805E-16,-0.707106781186548));
#815=DIRECTION('ref_axis',(0.447213595499958,0.774596669241484,0.447213595499957));
#816=DIRECTION('',(0.707106781186548,-5.44009282066327E-15,0.707106781186547));
#817=DIRECTION('',(-4.9960036108132E-16,-1.,0.));
#818=DIRECTION('',(-0.707106781186547,-8.32667268468867E-15,-0.707106781186547));
#819=DIRECTION('',(4.9960036108132E-16,1.,0.));
#820=DIRECTION('center_axis',(1.,-4.9960036108132E-16,-5.26097874424703E-16));
#821=DIRECTION('ref_axis',(4.9960036108132E-16,1.,0.));
#822=DIRECTION('',(5.26097874424705E-16,2.57090949594538E-15,1.));
#823=DIRECTION('',(-4.44089209850063E-16,-1.,1.89992045379223E-15));
#824=DIRECTION('',(5.6200942013013E-16,2.24497993613962E-15,1.));
#825=DIRECTION('center_axis',(1.01030295240889E-14,1.,-2.57090949594538E-15));
#826=DIRECTION('ref_axis',(-1.,1.01030295240889E-14,0.));
#827=DIRECTION('',(-1.,1.01030295240889E-14,0.));
#828=DIRECTION('',(0.,0.,-1.));
#829=DIRECTION('',(0.642787609686539,8.32667268468867E-16,0.766044443118978));
#830=DIRECTION('',(0.766044443118979,-1.49880108324396E-15,-0.642787609686538));
#831=DIRECTION('',(0.642787609686539,8.32667268468867E-16,0.766044443118979));
#832=DIRECTION('center_axis',(0.766044443118977,-1.49880108324396E-15,-0.64278760968654));
#833=DIRECTION('ref_axis',(1.63910879619856E-16,1.,-2.35067541349155E-15));
#834=DIRECTION('center_axis',(-0.766044443118979,1.49880108324396E-15,0.642787609686538));
#835=DIRECTION('ref_axis',(1.63910879619856E-16,1.,-2.35067541349155E-15));
#836=DIRECTION('',(-0.766044443118977,1.49880108324396E-15,0.64278760968654));
#837=DIRECTION('center_axis',(-0.766044443118979,1.55431223447522E-15,0.642787609686538));
#838=DIRECTION('ref_axis',(1.63910879619856E-16,1.,-2.35067541349155E-15));
#839=DIRECTION('center_axis',(0.766044443118979,-1.49880108324396E-15,-0.642787609686538));
#840=DIRECTION('ref_axis',(5.55111512312578E-17,1.,-2.35067541349155E-15));
#841=DIRECTION('center_axis',(-0.766044443118979,1.49880108324396E-15,0.642787609686538));
#842=DIRECTION('ref_axis',(0.,1.,-2.35067541349155E-15));
#843=DIRECTION('center_axis',(0.766044443118979,-1.49880108324396E-15,-0.642787609686539));
#844=DIRECTION('ref_axis',(5.55111512312578E-17,1.,-2.35067541349155E-15));
#845=DIRECTION('center_axis',(0.766044443118979,-1.49880108324396E-15,-0.642787609686538));
#846=DIRECTION('ref_axis',(1.16558847729675E-16,1.,-2.35067541349155E-15));
#847=DIRECTION('',(-0.642787609686538,-2.77555756156289E-15,-0.766044443118979));
#848=DIRECTION('center_axis',(-0.766044443118979,1.49880108324396E-15,0.642787609686538));
#849=DIRECTION('ref_axis',(0.,1.,-2.35067541349155E-15));
#850=DIRECTION('center_axis',(0.766044443118979,-1.55431223447522E-15,-0.642787609686538));
#851=DIRECTION('ref_axis',(0.,1.,-2.35067541349155E-15));
#852=DIRECTION('',(-0.766044443118979,1.55431223447522E-15,0.642787609686538));
#853=DIRECTION('center_axis',(0.766044443118979,-1.55431223447522E-15,-0.642787609686538));
#854=DIRECTION('ref_axis',(0.642787609686538,2.23112080476907E-15,0.766044443118979));
#855=DIRECTION('center_axis',(0.766044443118979,-1.55431223447522E-15,-0.642787609686538));
#856=DIRECTION('ref_axis',(1.16558847729675E-16,1.,-2.35067541349155E-15));
#857=DIRECTION('',(0.766044443118979,-1.49880108324396E-15,-0.642787609686538));
#858=DIRECTION('center_axis',(0.766044443118979,-1.55431223447522E-15,-0.642787609686539));
#859=DIRECTION('ref_axis',(5.55111512312578E-17,1.,-2.35067541349155E-15));
#860=DIRECTION('',(0.642787609686538,2.72004641033163E-15,0.766044443118979));
#861=DIRECTION('center_axis',(9.2148511043888E-15,-1.,2.57090949594537E-15));
#862=DIRECTION('ref_axis',(1.,9.2148511043888E-15,0.));
#863=DIRECTION('',(0.,0.,1.));
#864=DIRECTION('',(1.,9.2148511043888E-15,0.));
#865=DIRECTION('center_axis',(0.,0.,1.));
#866=DIRECTION('ref_axis',(0.5,0.866025403784439,0.));
#867=DIRECTION('center_axis',(0.,0.,-1.));
#868=DIRECTION('ref_axis',(0.5,0.866025403784439,0.));
#869=DIRECTION('',(-0.353553390593274,-0.612372435695795,0.707106781186547));
#870=DIRECTION('center_axis',(0.,0.,1.));
#871=DIRECTION('ref_axis',(0.5,0.866025403784439,0.));
#872=DIRECTION('center_axis',(0.,0.,1.));
#873=DIRECTION('ref_axis',(0.5,0.866025403784439,0.));
#874=DIRECTION('',(0.,0.,-1.));
#875=DIRECTION('center_axis',(0.,0.,-1.));
#876=DIRECTION('ref_axis',(0.5,0.866025403784439,0.));
#877=DIRECTION('center_axis',(0.,0.,1.));
#878=DIRECTION('ref_axis',(-0.5,-0.866025403784439,0.));
#879=DIRECTION('center_axis',(0.,0.,1.));
#880=DIRECTION('ref_axis',(0.5,0.866025403784439,0.));
#881=DIRECTION('center_axis',(0.,0.,-1.));
#882=DIRECTION('ref_axis',(0.5,0.866025403784439,0.));
#883=DIRECTION('center_axis',(0.,0.,-1.));
#884=DIRECTION('ref_axis',(0.5,0.866025403784439,0.));
#885=DIRECTION('center_axis',(0.,0.,-1.));
#886=DIRECTION('ref_axis',(0.5,0.866025403784439,0.));
#887=DIRECTION('',(-0.5,0.866025403784438,0.));
#888=DIRECTION('center_axis',(0.,0.,1.));
#889=DIRECTION('ref_axis',(0.7231119609151,-0.690730839025969,0.));
#890=DIRECTION('',(0.5,0.866025403784439,0.));
#891=DIRECTION('center_axis',(0.,0.,-1.));
#892=DIRECTION('ref_axis',(0.5,0.866025403784439,0.));
#893=DIRECTION('center_axis',(0.,0.,-1.));
#894=DIRECTION('ref_axis',(0.5,0.866025403784439,0.));
#895=DIRECTION('',(-0.5,-0.866025403784439,0.));
#896=DIRECTION('center_axis',(0.,0.,1.));
#897=DIRECTION('ref_axis',(0.236634473316279,0.971598747445841,0.));
#898=DIRECTION('',(-1.,-4.44089209850063E-16,0.));
#899=DIRECTION('center_axis',(0.,0.,-1.));
#900=DIRECTION('ref_axis',(0.5,0.866025403784439,0.));
#901=DIRECTION('',(1.,3.33066907387547E-16,0.));
#902=DIRECTION('center_axis',(0.,0.,1.));
#903=DIRECTION('ref_axis',(-0.959746434231379,-0.280867908419872,0.));
#904=DIRECTION('',(0.5,-0.866025403784438,0.));
#905=DIRECTION('center_axis',(0.,0.,1.));
#906=DIRECTION('ref_axis',(-1.,-3.67160370348477E-15,0.));
#907=DIRECTION('center_axis',(0.,0.,1.));
#908=DIRECTION('ref_axis',(0.5,0.866025403784439,0.));
#909=DIRECTION('center_axis',(0.,0.,-1.));
#910=DIRECTION('ref_axis',(0.5,0.866025403784439,0.));
#911=DIRECTION('',(0.,0.,-1.));
#912=DIRECTION('center_axis',(0.,0.,-1.));
#913=DIRECTION('ref_axis',(0.5,0.866025403784439,0.));
#914=DIRECTION('center_axis',(0.,0.,1.));
#915=DIRECTION('ref_axis',(-0.5,-0.866025403784439,0.));
#916=DIRECTION('center_axis',(0.,0.,1.));
#917=DIRECTION('ref_axis',(0.5,0.866025403784439,0.));
#918=DIRECTION('center_axis',(0.,0.,-1.));
#919=DIRECTION('ref_axis',(0.5,0.866025403784439,0.));
#920=DIRECTION('',(0.,0.,-1.));
#921=DIRECTION('center_axis',(0.,0.,-1.));
#922=DIRECTION('ref_axis',(0.5,0.866025403784439,0.));
#923=DIRECTION('center_axis',(0.,0.,1.));
#924=DIRECTION('ref_axis',(-0.5,-0.866025403784439,0.));
#925=DIRECTION('center_axis',(0.,0.,1.));
#926=DIRECTION('ref_axis',(0.5,0.866025403784439,0.));
#927=DIRECTION('center_axis',(0.,0.,-1.));
#928=DIRECTION('ref_axis',(0.5,0.866025403784439,0.));
#929=DIRECTION('',(0.,0.,-1.));
#930=DIRECTION('center_axis',(0.,0.,-1.));
#931=DIRECTION('ref_axis',(0.5,0.866025403784439,0.));
#932=DIRECTION('center_axis',(0.,0.,1.));
#933=DIRECTION('ref_axis',(-0.5,-0.866025403784439,0.));
#934=DIRECTION('center_axis',(0.,0.,1.));
#935=DIRECTION('ref_axis',(0.5,0.866025403784439,0.));
#936=DIRECTION('center_axis',(0.866025403784439,-0.5,0.));
#937=DIRECTION('ref_axis',(0.5,0.866025403784439,0.));
#938=DIRECTION('',(0.,0.,1.));
#939=DIRECTION('',(0.5,0.866025403784439,0.));
#940=DIRECTION('',(0.,0.,1.));
#941=DIRECTION('center_axis',(0.,0.,1.));
#942=DIRECTION('ref_axis',(0.7231119609151,-0.690730839025969,0.));
#943=DIRECTION('',(0.,0.,1.));
#944=DIRECTION('center_axis',(0.,0.,1.));
#945=DIRECTION('ref_axis',(0.7231119609151,-0.690730839025969,0.));
#946=DIRECTION('center_axis',(0.,0.,1.));
#947=DIRECTION('ref_axis',(0.236634473316279,0.971598747445841,0.));
#948=DIRECTION('',(0.,0.,1.));
#949=DIRECTION('center_axis',(0.,0.,1.));
#950=DIRECTION('ref_axis',(0.236634473316279,0.971598747445841,0.));
#951=DIRECTION('',(0.,0.,1.));
#952=DIRECTION('center_axis',(-0.866025403784439,0.5,0.));
#953=DIRECTION('ref_axis',(-0.5,-0.866025403784439,0.));
#954=DIRECTION('',(0.,0.,1.));
#955=DIRECTION('',(-0.5,-0.866025403784439,0.));
#956=DIRECTION('center_axis',(0.,0.,1.));
#957=DIRECTION('ref_axis',(-0.959746434231379,-0.280867908419872,0.));
#958=DIRECTION('',(0.,0.,1.));
#959=DIRECTION('center_axis',(0.,0.,1.));
#960=DIRECTION('ref_axis',(-0.959746434231379,-0.280867908419872,0.));
#961=DIRECTION('',(0.,0.,1.));
#962=DIRECTION('center_axis',(3.33066907387547E-16,-1.,0.));
#963=DIRECTION('ref_axis',(1.,3.33066907387547E-16,0.));
#964=DIRECTION('',(0.,0.,1.));
#965=DIRECTION('',(1.,3.33066907387547E-16,0.));
#966=DIRECTION('center_axis',(0.866025403784439,0.5,0.));
#967=DIRECTION('ref_axis',(-0.5,0.866025403784438,0.));
#968=DIRECTION('',(0.,0.,1.));
#969=DIRECTION('',(-0.5,0.866025403784438,0.));
#970=DIRECTION('center_axis',(0.,0.,1.));
#971=DIRECTION('ref_axis',(0.5,0.866025403784439,0.));
#972=DIRECTION('center_axis',(0.,0.,-1.));
#973=DIRECTION('ref_axis',(0.5,0.866025403784439,0.));
#974=DIRECTION('center_axis',(0.,0.,1.));
#975=DIRECTION('ref_axis',(0.5,0.866025403784439,0.));
#976=DIRECTION('',(0.,0.,1.));
#977=DIRECTION('center_axis',(0.,0.,-1.));
#978=DIRECTION('ref_axis',(0.5,0.866025403784439,0.));
#979=DIRECTION('center_axis',(-4.44089209850063E-16,1.,0.));
#980=DIRECTION('ref_axis',(-1.,-4.44089209850063E-16,0.));
#981=DIRECTION('',(-1.,-4.44089209850063E-16,0.));
#982=DIRECTION('center_axis',(0.,0.,1.));
#983=DIRECTION('ref_axis',(0.5,0.866025403784439,0.));
#984=DIRECTION('',(0.,0.,-1.));
#985=DIRECTION('center_axis',(0.,0.,-1.));
#986=DIRECTION('ref_axis',(0.5,0.866025403784439,0.));
#987=DIRECTION('center_axis',(0.,0.,1.));
#988=DIRECTION('ref_axis',(0.5,0.866025403784439,0.));
#989=DIRECTION('',(0.,0.,-1.));
#990=DIRECTION('center_axis',(0.,0.,-1.));
#991=DIRECTION('ref_axis',(0.5,0.866025403784439,0.));
#992=DIRECTION('center_axis',(0.,0.,1.));
#993=DIRECTION('ref_axis',(0.5,0.866025403784439,0.));
#994=DIRECTION('',(0.,0.,-1.));
#995=DIRECTION('center_axis',(0.,0.,-1.));
#996=DIRECTION('ref_axis',(0.5,0.866025403784439,0.));
#997=DIRECTION('center_axis',(0.,0.,1.));
#998=DIRECTION('ref_axis',(-0.5,-0.866025403784439,0.));
#999=DIRECTION('',(0.,0.,1.));
#1000=DIRECTION('center_axis',(0.,0.,-1.));
#1001=DIRECTION('ref_axis',(0.5,0.866025403784439,0.));
#1002=DIRECTION('center_axis',(-0.866025403784439,-0.5,0.));
#1003=DIRECTION('ref_axis',(0.5,-0.866025403784438,0.));
#1004=DIRECTION('',(0.5,-0.866025403784438,0.));
#1005=DIRECTION('center_axis',(0.,0.,1.));
#1006=DIRECTION('ref_axis',(0.5,0.866025403784439,0.));
#1007=CARTESIAN_POINT('',(0.,0.,0.));
#1008=CARTESIAN_POINT('Origin',(2.03749999999999,0.150000000000023,0.445570866141733));
#1009=CARTESIAN_POINT('',(1.97499999999999,0.315238005323022,0.383070866141733));
#1010=CARTESIAN_POINT('',(1.97737199332851,0.300000000000042,0.385442859470256));
#1011=CARTESIAN_POINT('Origin',(0.,0.,-1.59192913385825));
#1012=CARTESIAN_POINT('',(1.97499999999999,-0.315238005323014,0.383070866141733));
#1013=CARTESIAN_POINT('',(1.97499999999999,0.150000000000022,0.383070866141733));
#1014=CARTESIAN_POINT('',(1.97737199332851,-0.300000000000026,0.385442859470256));
#1015=CARTESIAN_POINT('Origin',(0.,0.,-1.59192913385825));
#1016=CARTESIAN_POINT('',(2.09999999999999,-0.300000000000024,0.508070866141732));
#1017=CARTESIAN_POINT('',(1.91107528179669,-0.300000000000027,0.319146147938429));
#1018=CARTESIAN_POINT('',(2.09999999999999,0.300000000000041,0.508070866141732));
#1019=CARTESIAN_POINT('',(2.09999999999999,0.150000000000023,0.508070866141732));
#1020=CARTESIAN_POINT('',(2.00423228346456,0.300000000000041,0.412303149606301));
#1021=CARTESIAN_POINT('Origin',(2.09999999999999,0.300000000000041,0.383070866141733));
#1022=CARTESIAN_POINT('',(2.09999999999999,-0.300000000000023,0.883070866141733));
#1023=CARTESIAN_POINT('',(2.09999999999999,-0.300000000000024,0.383070866141733));
#1024=CARTESIAN_POINT('',(2.09999999999999,0.300000000000042,0.883070866141733));
#1025=CARTESIAN_POINT('',(2.09999999999999,0.150000000000025,0.883070866141733));
#1026=CARTESIAN_POINT('',(2.09999999999999,0.300000000000041,0.383070866141733));
#1027=CARTESIAN_POINT('Origin',(2.24999999999999,-0.150000000000012,0.1));
#1028=CARTESIAN_POINT('',(2.14999999999999,0.300000000000039,0.));
#1029=CARTESIAN_POINT('',(2.34999999999999,0.300000000000037,0.2));
#1030=CARTESIAN_POINT('',(2.24999999999999,0.300000000000038,0.100000000000001));
#1031=CARTESIAN_POINT('',(2.34999999999999,-0.300000000000022,0.2));
#1032=CARTESIAN_POINT('',(2.34999999999999,-0.150000000000012,0.2));
#1033=CARTESIAN_POINT('',(2.14999999999999,-0.300000000000025,0.));
#1034=CARTESIAN_POINT('',(2.15684299833212,-0.300000000000025,0.00684299833212886));
#1035=CARTESIAN_POINT('',(2.14999999999999,-0.150000000000012,0.));
#1036=CARTESIAN_POINT('Origin',(2.34999999999999,-0.300000000000023,0.));
#1037=CARTESIAN_POINT('',(2.34999999999999,0.30000000000004,0.792078307575174));
#1038=CARTESIAN_POINT('',(2.34999999999999,0.300000000000037,0.));
#1039=CARTESIAN_POINT('',(2.34999999999999,-0.300000000000025,0.792078307575175));
#1040=CARTESIAN_POINT('',(2.34999999999999,-0.150000000000007,0.792078307575175));
#1041=CARTESIAN_POINT('',(2.34999999999999,-0.300000000000022,0.383070866141733));
#1042=CARTESIAN_POINT('Origin',(2.34999999999999,0.300000000000037,0.));
#1043=CARTESIAN_POINT('',(1.9773719933285,0.300000000000041,0.));
#1044=CARTESIAN_POINT('',(2.25684299833212,0.300000000000038,0.));
#1045=CARTESIAN_POINT('',(1.97737199332851,0.300000000000041,0.));
#1046=CARTESIAN_POINT('',(2.27676659266382,0.300000000000041,1.09373308799948));
#1047=CARTESIAN_POINT('',(2.09999999999999,0.300000000000041,0.883070866141725));
#1048=CARTESIAN_POINT('',(2.46827770344356,0.300000000000041,0.933036185577842));
#1049=CARTESIAN_POINT('',(2.27676659266382,0.300000000000041,1.09373308799948));
#1050=CARTESIAN_POINT('',(2.29151111077974,0.30000000000004,0.722373963720091));
#1051=CARTESIAN_POINT('Origin',(2.42139380484326,9.09159012291467E-15,1.26609308770121));
#1052=CARTESIAN_POINT('',(2.45969602699921,-0.199999999999991,1.23395370721689));
#1053=CARTESIAN_POINT('Origin',(2.45969602699921,8.74191357972564E-15,1.23395370721689));
#1054=CARTESIAN_POINT('',(2.42139380484326,-0.199999999999991,1.26609308770122));
#1055=CARTESIAN_POINT('',(2.42139380484326,-0.199999999999991,1.26609308770122));
#1056=CARTESIAN_POINT('Origin',(2.42139380484326,9.09159012291467E-15,1.26609308770121));
#1057=CARTESIAN_POINT('Origin',(2.45969602699921,8.74191357972564E-15,1.23395370721689));
#1058=CARTESIAN_POINT('',(2.45969602699921,-0.249999999999991,1.23395370721689));
#1059=CARTESIAN_POINT('Origin',(2.45969602699921,8.91675185132015E-15,1.23395370721689));
#1060=CARTESIAN_POINT('Origin',(2.5727306900176,8.56707530813113E-15,1.05751840758464));
#1061=CARTESIAN_POINT('',(2.46827770344356,-0.300000000000024,0.933036185577843));
#1062=CARTESIAN_POINT('Origin',(2.61290491562301,8.56707530813113E-15,1.10539618527958));
#1063=CARTESIAN_POINT('',(2.29151111077974,-0.300000000000025,0.722373963720092));
#1064=CARTESIAN_POINT('',(2.612904915623,-0.249999999999992,1.10539618527958));
#1065=CARTESIAN_POINT('Origin',(2.61290491562301,8.56707530813113E-15,1.10539618527958));
#1066=CARTESIAN_POINT('Origin',(2.42139380484326,9.09159012291467E-15,1.26609308770121));
#1067=CARTESIAN_POINT('',(2.42139380484326,-0.249999999999991,1.26609308770122));
#1068=CARTESIAN_POINT('Origin',(2.42139380484326,9.09159012291467E-15,1.26609308770121));
#1069=CARTESIAN_POINT('',(2.27676659266382,-0.300000000000024,1.09373308799948));
#1070=CARTESIAN_POINT('Origin',(2.42139380484326,9.09159012291467E-15,1.26609308770121));
#1071=CARTESIAN_POINT('',(2.27676659266382,-0.300000000000024,1.09373308799948));
#1072=CARTESIAN_POINT('Origin',(2.38121957923785,8.91675185132015E-15,1.21821531000628));
#1073=CARTESIAN_POINT('',(2.09999999999999,-0.300000000000025,0.883070866141726));
#1074=CARTESIAN_POINT('Origin',(1.9773719933285,-0.300000000000027,0.));
#1075=CARTESIAN_POINT('',(1.9773719933285,-0.300000000000027,0.));
#1076=CARTESIAN_POINT('',(1.97737199332851,-0.300000000000027,0.));
#1077=CARTESIAN_POINT('',(2.07052899499638,-0.300000000000026,0.));
#1078=CARTESIAN_POINT('Origin',(0.,0.,0.258070866141733));
#1079=CARTESIAN_POINT('',(-0.248562992125984,-0.430523731243548,0.133070866141733));
#1080=CARTESIAN_POINT('Origin',(0.,0.,0.133070866141733));
#1081=CARTESIAN_POINT('',(-0.373562992125984,-0.647030082189657,0.383070866141733));
#1082=CARTESIAN_POINT('',(-0.311062992125984,-0.538776906716602,0.258070866141733));
#1083=CARTESIAN_POINT('Origin',(0.,0.,0.383070866141733));
#1084=CARTESIAN_POINT('Origin',(0.,0.,0.));
#1085=CARTESIAN_POINT('',(-0.248562992125984,-0.430523731243548,0.));
#1086=CARTESIAN_POINT('',(-0.248562992125984,-0.430523731243548,0.));
#1087=CARTESIAN_POINT('Origin',(0.,0.,0.));
#1088=CARTESIAN_POINT('Origin',(0.,0.,0.383070866141733));
#1089=CARTESIAN_POINT('Origin',(0.,0.,0.383070866141733));
#1090=CARTESIAN_POINT('',(-0.570974409448818,-0.98895668698699,0.383070866141733));
#1091=CARTESIAN_POINT('Origin',(-0.520974409448818,-0.902354146608547,0.383070866141733));
#1092=CARTESIAN_POINT('',(0.991948818897638,-0.0866025403784425,0.383070866141733));
#1093=CARTESIAN_POINT('Origin',(1.04194881889764,1.31128703695885E-15,0.383070866141733));
#1094=CARTESIAN_POINT('',(-0.57097440944882,0.815751606230101,0.383070866141733));
#1095=CARTESIAN_POINT('Origin',(-0.52097440944882,0.902354146608545,0.383070866141733));
#1096=CARTESIAN_POINT('',(0.89819615617604,-0.85797472327832,0.383070866141733));
#1097=CARTESIAN_POINT('',(1.18506682542768,-1.35484929762345,0.383070866141733));
#1098=CARTESIAN_POINT('',(0.743599994738868,-0.590206317014019,0.383070866141733));
#1099=CARTESIAN_POINT('',(0.898196156176039,0.85797472327832,0.383070866141733));
#1100=CARTESIAN_POINT('Origin',(0.,0.,0.383070866141733));
#1101=CARTESIAN_POINT('',(1.18506682542768,1.35484929762345,0.383070866141733));
#1102=CARTESIAN_POINT('',(0.600164660113047,0.341769029841454,0.383070866141733));
#1103=CARTESIAN_POINT('Origin',(0.,0.,0.383070866141733));
#1104=CARTESIAN_POINT('',(0.58080049732757,1.70372262481428,0.383070866141733));
#1105=CARTESIAN_POINT('',(-1.76586732275525,0.348873327190825,0.383070866141733));
#1106=CARTESIAN_POINT('Origin',(0.,0.,0.383070866141733));
#1107=CARTESIAN_POINT('',(0.293929828075929,1.20684805046915,0.383070866141733));
#1108=CARTESIAN_POINT('',(0.139333666638758,0.939079644204844,0.383070866141733));
#1109=CARTESIAN_POINT('',(-1.19212598425197,0.348873327190825,0.383070866141733));
#1110=CARTESIAN_POINT('Origin',(0.,0.,0.383070866141733));
#1111=CARTESIAN_POINT('',(-0.596062992125985,0.348873327190825,0.383070866141733));
#1112=CARTESIAN_POINT('',(-1.76586732275525,-0.348873327190826,0.383070866141733));
#1113=CARTESIAN_POINT('',(0.580800497327572,-1.70372262481428,0.383070866141733));
#1114=CARTESIAN_POINT('Origin',(0.,0.,0.383070866141733));
#1115=CARTESIAN_POINT('',(-1.19212598425197,-0.348873327190826,0.383070866141733));
#1116=CARTESIAN_POINT('',(-0.882933661377626,-0.348873327190826,0.383070866141733));
#1117=CARTESIAN_POINT('',(0.29392982807593,-1.20684805046915,0.383070866141733));
#1118=CARTESIAN_POINT('Origin',(0.,0.,0.383070866141733));
#1119=CARTESIAN_POINT('',(-0.00410166798706279,-0.690642357032279,0.383070866141733));
#1120=CARTESIAN_POINT('Origin',(0.,0.,0.));
#1121=CARTESIAN_POINT('Origin',(0.,0.,0.));
#1122=CARTESIAN_POINT('Origin',(-0.520974409448818,-0.902354146608547,0.383070866141733));
#1123=CARTESIAN_POINT('',(-0.570974409448818,-0.98895668698699,0.258070866141733));
#1124=CARTESIAN_POINT('',(-0.570974409448818,-0.98895668698699,0.383070866141733));
#1125=CARTESIAN_POINT('Origin',(-0.520974409448818,-0.902354146608547,0.258070866141733));
#1126=CARTESIAN_POINT('Origin',(-0.130243602362205,-0.225588536652136,0.258070866141733));
#1127=CARTESIAN_POINT('',(-0.545974409448818,-0.945655416797768,0.258070866141733));
#1128=CARTESIAN_POINT('Origin',(-0.520974409448818,-0.902354146608547,0.258070866141733));
#1129=CARTESIAN_POINT('Origin',(1.04194881889764,1.31128703695885E-15,0.383070866141733));
#1130=CARTESIAN_POINT('',(0.991948818897638,-0.0866025403784425,0.258070866141733));
#1131=CARTESIAN_POINT('',(0.991948818897638,-0.0866025403784426,0.383070866141733));
#1132=CARTESIAN_POINT('Origin',(1.04194881889764,1.31128703695885E-15,0.258070866141733));
#1133=CARTESIAN_POINT('Origin',(-0.130243602362205,-0.225588536652136,0.258070866141733));
#1134=CARTESIAN_POINT('',(1.01694881889764,-0.0433012701892206,0.258070866141733));
#1135=CARTESIAN_POINT('Origin',(1.04194881889764,1.31128703695885E-15,0.258070866141733));
#1136=CARTESIAN_POINT('Origin',(-0.52097440944882,0.902354146608545,0.383070866141733));
#1137=CARTESIAN_POINT('',(-0.57097440944882,0.815751606230101,0.258070866141733));
#1138=CARTESIAN_POINT('',(-0.57097440944882,0.815751606230101,0.383070866141733));
#1139=CARTESIAN_POINT('Origin',(-0.52097440944882,0.902354146608545,0.258070866141733));
#1140=CARTESIAN_POINT('Origin',(-0.130243602362205,-0.225588536652136,0.258070866141733));
#1141=CARTESIAN_POINT('',(-0.54597440944882,0.859052876419323,0.258070866141733));
#1142=CARTESIAN_POINT('Origin',(-0.52097440944882,0.902354146608545,0.258070866141733));
#1143=CARTESIAN_POINT('Origin',(0.898196156176039,0.85797472327832,0.));
#1144=CARTESIAN_POINT('',(0.898196156176039,0.85797472327832,0.));
#1145=CARTESIAN_POINT('',(0.898196156176039,0.85797472327832,0.));
#1146=CARTESIAN_POINT('',(1.18506682542768,1.35484929762345,0.));
#1147=CARTESIAN_POINT('',(0.898196156176039,0.85797472327832,0.));
#1148=CARTESIAN_POINT('',(1.18506682542768,1.35484929762345,0.));
#1149=CARTESIAN_POINT('Origin',(0.,0.,0.));
#1150=CARTESIAN_POINT('',(0.89819615617604,-0.85797472327832,0.));
#1151=CARTESIAN_POINT('',(0.89819615617604,-0.85797472327832,0.));
#1152=CARTESIAN_POINT('Origin',(0.,0.,0.));
#1153=CARTESIAN_POINT('Origin',(0.,0.,0.));
#1154=CARTESIAN_POINT('',(0.293929828075929,1.20684805046915,0.));
#1155=CARTESIAN_POINT('',(0.293929828075929,1.20684805046915,0.));
#1156=CARTESIAN_POINT('',(-1.19212598425197,0.348873327190825,0.));
#1157=CARTESIAN_POINT('Origin',(0.,0.,0.));
#1158=CARTESIAN_POINT('',(-1.19212598425197,0.348873327190825,0.));
#1159=CARTESIAN_POINT('Origin',(0.58080049732757,1.70372262481428,0.));
#1160=CARTESIAN_POINT('',(0.58080049732757,1.70372262481428,0.));
#1161=CARTESIAN_POINT('',(0.58080049732757,1.70372262481428,0.));
#1162=CARTESIAN_POINT('',(0.293929828075929,1.20684805046915,0.));
#1163=CARTESIAN_POINT('Origin',(0.,0.,0.));
#1164=CARTESIAN_POINT('',(-1.19212598425197,-0.348873327190826,0.));
#1165=CARTESIAN_POINT('',(-1.19212598425197,-0.348873327190826,0.));
#1166=CARTESIAN_POINT('',(0.29392982807593,-1.20684805046915,0.));
#1167=CARTESIAN_POINT('Origin',(0.,0.,0.));
#1168=CARTESIAN_POINT('',(0.29392982807593,-1.20684805046915,0.));
#1169=CARTESIAN_POINT('Origin',(-1.76586732275525,-0.348873327190826,0.));
#1170=CARTESIAN_POINT('',(-1.76586732275525,-0.348873327190826,0.));
#1171=CARTESIAN_POINT('',(-1.76586732275525,-0.348873327190826,0.));
#1172=CARTESIAN_POINT('',(-1.19212598425197,-0.348873327190826,0.));
#1173=CARTESIAN_POINT('Origin',(1.18506682542768,-1.35484929762345,0.));
#1174=CARTESIAN_POINT('',(1.18506682542768,-1.35484929762345,0.));
#1175=CARTESIAN_POINT('',(1.18506682542768,-1.35484929762345,0.));
#1176=CARTESIAN_POINT('',(0.89819615617604,-0.85797472327832,0.));
#1177=CARTESIAN_POINT('Origin',(0.,0.,0.));
#1178=CARTESIAN_POINT('Origin',(0.,0.,0.));
#1179=CARTESIAN_POINT('Origin',(0.,0.,0.));
#1180=CARTESIAN_POINT('',(-1.76586732275525,0.348873327190825,0.));
#1181=CARTESIAN_POINT('',(-1.76586732275525,0.348873327190825,0.));
#1182=CARTESIAN_POINT('Origin',(0.,0.,0.));
#1183=CARTESIAN_POINT('Origin',(-1.19212598425197,0.348873327190825,0.));
#1184=CARTESIAN_POINT('',(-1.19212598425197,0.348873327190825,0.));
#1185=CARTESIAN_POINT('Origin',(-0.52097440944882,0.902354146608545,0.));
#1186=CARTESIAN_POINT('',(-0.54597440944882,0.859052876419323,0.));
#1187=CARTESIAN_POINT('',(-0.54597440944882,0.859052876419323,0.));
#1188=CARTESIAN_POINT('Origin',(-0.52097440944882,0.902354146608545,0.));
#1189=CARTESIAN_POINT('Origin',(1.04194881889764,1.31128703695885E-15,0.));
#1190=CARTESIAN_POINT('',(1.01694881889764,-0.0433012701892206,0.));
#1191=CARTESIAN_POINT('',(1.01694881889764,-0.0433012701892206,0.));
#1192=CARTESIAN_POINT('Origin',(1.04194881889764,1.31128703695885E-15,0.));
#1193=CARTESIAN_POINT('Origin',(-0.520974409448818,-0.902354146608547,0.));
#1194=CARTESIAN_POINT('',(-0.545974409448818,-0.945655416797768,0.));
#1195=CARTESIAN_POINT('',(-0.545974409448818,-0.945655416797768,0.));
#1196=CARTESIAN_POINT('Origin',(-0.520974409448818,-0.902354146608547,0.));
#1197=CARTESIAN_POINT('Origin',(0.,0.,0.));
#1198=CARTESIAN_POINT('',(0.580800497327572,-1.70372262481428,0.));
#1199=CARTESIAN_POINT('',(0.580800497327572,-1.70372262481428,0.));
#1200=CARTESIAN_POINT('Origin',(0.,0.,0.));
#1201=CARTESIAN_POINT('Origin',(0.29392982807593,-1.20684805046915,0.));
#1202=CARTESIAN_POINT('',(0.29392982807593,-1.20684805046915,0.));
#1203=CARTESIAN_POINT('Origin',(0.,0.,0.));
#1204=UNCERTAINTY_MEASURE_WITH_UNIT(LENGTH_MEASURE(0.000393700787401575),
#1209,'DISTANCE_ACCURACY_VALUE',
'Maximum model space distance between geometric entities at asserted c
onnectivities');
#1205=UNCERTAINTY_MEASURE_WITH_UNIT(LENGTH_MEASURE(0.000393700787401575),
#1209,'DISTANCE_ACCURACY_VALUE',
'Maximum model space distance between geometric entities at asserted c
onnectivities');
#1206=(
GEOMETRIC_REPRESENTATION_CONTEXT(3)
GLOBAL_UNCERTAINTY_ASSIGNED_CONTEXT((#1204))
GLOBAL_UNIT_ASSIGNED_CONTEXT((#1209,#1213,#1214))
REPRESENTATION_CONTEXT('','3D')
);
#1207=(
GEOMETRIC_REPRESENTATION_CONTEXT(3)
GLOBAL_UNCERTAINTY_ASSIGNED_CONTEXT((#1205))
GLOBAL_UNIT_ASSIGNED_CONTEXT((#1209,#1213,#1214))
REPRESENTATION_CONTEXT('','3D')
);
#1208=DIMENSIONAL_EXPONENTS(1.,0.,0.,0.,0.,0.,0.);
#1209=(
CONVERSION_BASED_UNIT('inch',#1212)
LENGTH_UNIT()
NAMED_UNIT(#1208)
);
#1210=(
LENGTH_UNIT()
NAMED_UNIT(*)
SI_UNIT(.MILLI.,.METRE.)
);
#1211=(
LENGTH_UNIT()
NAMED_UNIT(*)
SI_UNIT($,.METRE.)
);
#1212=LENGTH_MEASURE_WITH_UNIT(LENGTH_MEASURE(25.4),#1210);
#1213=(
NAMED_UNIT(*)
PLANE_ANGLE_UNIT()
SI_UNIT($,.RADIAN.)
);
#1214=(
NAMED_UNIT(*)
SI_UNIT($,.STERADIAN.)
SOLID_ANGLE_UNIT()
);
#1215=SHAPE_DEFINITION_REPRESENTATION(#1216,#1217);
#1216=PRODUCT_DEFINITION_SHAPE('',$,#1219);
#1217=SHAPE_REPRESENTATION('',(#721),#1206);
#1218=PRODUCT_DEFINITION_CONTEXT('part definition',#1223,'design');
#1219=PRODUCT_DEFINITION('output_disk1','output_disk1 v1',#1220,#1218);
#1220=PRODUCT_DEFINITION_FORMATION('',$,#1225);
#1221=PRODUCT_RELATED_PRODUCT_CATEGORY('output_disk1 v1',
'output_disk1 v1',(#1225));
#1222=APPLICATION_PROTOCOL_DEFINITION('international standard',
'automotive_design',2009,#1223);
#1223=APPLICATION_CONTEXT(
'Core Data for Automotive Mechanical Design Process');
#1224=PRODUCT_CONTEXT('part definition',#1223,'mechanical');
#1225=PRODUCT('output_disk1','output_disk1 v1',$,(#1224));
#1226=PRESENTATION_STYLE_ASSIGNMENT((#1228));
#1227=PRESENTATION_STYLE_ASSIGNMENT((#1229));
#1228=SURFACE_STYLE_USAGE(.BOTH.,#1230);
#1229=SURFACE_STYLE_USAGE(.BOTH.,#1231);
#1230=SURFACE_SIDE_STYLE('',(#1232));
#1231=SURFACE_SIDE_STYLE('',(#1233));
#1232=SURFACE_STYLE_FILL_AREA(#1234);
#1233=SURFACE_STYLE_FILL_AREA(#1235);
#1234=FILL_AREA_STYLE('Steel - Satin',(#1236));
#1235=FILL_AREA_STYLE('Plastic - Glossy (Black)',(#1237));
#1236=FILL_AREA_STYLE_COLOUR('Steel - Satin',#1238);
#1237=FILL_AREA_STYLE_COLOUR('Plastic - Glossy (Black)',#1239);
#1238=COLOUR_RGB('Steel - Satin',0.627450980392157,0.627450980392157,0.627450980392157);
#1239=COLOUR_RGB('Plastic - Glossy (Black)',0.0980392156862745,0.0980392156862745,
0.0980392156862745);
ENDSEC;
END-ISO-10303-21;
