ISO-10303-21;
HEADER;
/* Generated by software containing ST-Developer
 * from STEP Tools, Inc. (www.steptools.com) 
 */

FILE_DESCRIPTION(
/* description */ (''),
/* implementation_level */ '2;1');

FILE_NAME(
/* name */ 'output_disk3.step',
/* time_stamp */ '2026-07-30T17:33:32-04:00',
/* author */ (''),
/* organization */ (''),
/* preprocessor_version */ 'ST-DEVELOPER v20.1',
/* originating_system */ 'Autodesk Translation Framework v15.8.0.0',
/* authorisation */ '');

FILE_SCHEMA (('AUTOMOTIVE_DESIGN { 1 0 10303 214 3 1 1 }'));
ENDSEC;

DATA;
#10=MECHANICAL_DESIGN_GEOMETRIC_PRESENTATION_REPRESENTATION('',(#13),#1182);
#11=SHAPE_REPRESENTATION_RELATIONSHIP('SRR','None',#1192,#12);
#12=ADVANCED_BREP_SHAPE_REPRESENTATION('',(#14),#1181);
#13=STYLED_ITEM('',(#1202),#14);
#14=MANIFOLD_SOLID_BREP('Body1',#694);
#15=CYLINDRICAL_SURFACE('',#726,0.2);
#16=CYLINDRICAL_SURFACE('',#734,0.25);
#17=CYLINDRICAL_SURFACE('',#735,0.375);
#18=CYLINDRICAL_SURFACE('',#740,0.1);
#19=CYLINDRICAL_SURFACE('',#744,0.1);
#20=CYLINDRICAL_SURFACE('',#748,0.1);
#21=CYLINDRICAL_SURFACE('',#752,1.24212598425197);
#22=CYLINDRICAL_SURFACE('',#755,1.24212598425197);
#23=CYLINDRICAL_SURFACE('',#759,1.24212598425197);
#24=CYLINDRICAL_SURFACE('',#761,0.05);
#25=CYLINDRICAL_SURFACE('',#763,1.8);
#26=CYLINDRICAL_SURFACE('',#766,0.0499999999999999);
#27=CYLINDRICAL_SURFACE('',#768,0.841771653543307);
#28=CYLINDRICAL_SURFACE('',#770,1.8);
#29=CYLINDRICAL_SURFACE('',#774,1.8);
#30=CYLINDRICAL_SURFACE('',#776,0.05);
#31=CYLINDRICAL_SURFACE('',#778,2.);
#32=FACE_BOUND('',#125,.T.);
#33=FACE_BOUND('',#126,.T.);
#34=FACE_BOUND('',#127,.T.);
#35=FACE_BOUND('',#128,.T.);
#36=FACE_BOUND('',#129,.T.);
#37=FACE_BOUND('',#130,.T.);
#38=FACE_BOUND('',#131,.T.);
#39=FACE_BOUND('',#137,.T.);
#40=FACE_BOUND('',#139,.T.);
#41=FACE_BOUND('',#143,.T.);
#42=FACE_BOUND('',#148,.T.);
#43=FACE_BOUND('',#151,.T.);
#44=FACE_BOUND('',#154,.T.);
#45=FACE_BOUND('',#173,.T.);
#46=FACE_BOUND('',#174,.T.);
#47=FACE_BOUND('',#175,.T.);
#48=FACE_BOUND('',#176,.T.);
#49=FACE_BOUND('',#177,.T.);
#50=FACE_BOUND('',#178,.T.);
#51=FACE_BOUND('',#179,.T.);
#52=CIRCLE('',#712,2.);
#53=CIRCLE('',#713,0.1);
#54=CIRCLE('',#714,0.1);
#55=CIRCLE('',#715,0.1);
#56=CIRCLE('',#716,1.8);
#57=CIRCLE('',#717,1.24212598425197);
#58=CIRCLE('',#718,0.841771653543307);
#59=CIRCLE('',#719,1.8);
#60=CIRCLE('',#720,1.24212598425197);
#61=CIRCLE('',#721,1.24212598425197);
#62=CIRCLE('',#722,1.8);
#63=CIRCLE('',#727,0.2);
#64=CIRCLE('',#728,0.2);
#65=CIRCLE('',#730,0.25);
#66=CIRCLE('',#732,0.375);
#67=CIRCLE('',#733,0.25);
#68=CIRCLE('',#736,0.375);
#69=CIRCLE('',#741,0.1);
#70=CIRCLE('',#743,0.0499999999999999);
#71=CIRCLE('',#745,0.1);
#72=CIRCLE('',#747,0.05);
#73=CIRCLE('',#749,0.1);
#74=CIRCLE('',#751,0.05);
#75=CIRCLE('',#753,1.24212598425197);
#76=CIRCLE('',#756,1.24212598425197);
#77=CIRCLE('',#760,1.24212598425197);
#78=CIRCLE('',#762,0.05);
#79=CIRCLE('',#764,1.8);
#80=CIRCLE('',#767,0.0499999999999999);
#81=CIRCLE('',#769,0.841771653543307);
#82=CIRCLE('',#771,1.8);
#83=CIRCLE('',#775,1.8);
#84=CIRCLE('',#777,0.05);
#85=CIRCLE('',#779,2.);
#86=FACE_OUTER_BOUND('',#123,.T.);
#87=FACE_OUTER_BOUND('',#124,.T.);
#88=FACE_OUTER_BOUND('',#132,.T.);
#89=FACE_OUTER_BOUND('',#133,.T.);
#90=FACE_OUTER_BOUND('',#134,.T.);
#91=FACE_OUTER_BOUND('',#135,.T.);
#92=FACE_OUTER_BOUND('',#136,.T.);
#93=FACE_OUTER_BOUND('',#138,.T.);
#94=FACE_OUTER_BOUND('',#140,.T.);
#95=FACE_OUTER_BOUND('',#141,.T.);
#96=FACE_OUTER_BOUND('',#142,.T.);
#97=FACE_OUTER_BOUND('',#144,.T.);
#98=FACE_OUTER_BOUND('',#145,.T.);
#99=FACE_OUTER_BOUND('',#146,.T.);
#100=FACE_OUTER_BOUND('',#147,.T.);
#101=FACE_OUTER_BOUND('',#149,.T.);
#102=FACE_OUTER_BOUND('',#150,.T.);
#103=FACE_OUTER_BOUND('',#152,.T.);
#104=FACE_OUTER_BOUND('',#153,.T.);
#105=FACE_OUTER_BOUND('',#155,.T.);
#106=FACE_OUTER_BOUND('',#156,.T.);
#107=FACE_OUTER_BOUND('',#157,.T.);
#108=FACE_OUTER_BOUND('',#158,.T.);
#109=FACE_OUTER_BOUND('',#159,.T.);
#110=FACE_OUTER_BOUND('',#160,.T.);
#111=FACE_OUTER_BOUND('',#161,.T.);
#112=FACE_OUTER_BOUND('',#162,.T.);
#113=FACE_OUTER_BOUND('',#163,.T.);
#114=FACE_OUTER_BOUND('',#164,.T.);
#115=FACE_OUTER_BOUND('',#165,.T.);
#116=FACE_OUTER_BOUND('',#166,.T.);
#117=FACE_OUTER_BOUND('',#167,.T.);
#118=FACE_OUTER_BOUND('',#168,.T.);
#119=FACE_OUTER_BOUND('',#169,.T.);
#120=FACE_OUTER_BOUND('',#170,.T.);
#121=FACE_OUTER_BOUND('',#171,.T.);
#122=FACE_OUTER_BOUND('',#172,.T.);
#123=EDGE_LOOP('',(#451,#452,#453,#454,#455,#456));
#124=EDGE_LOOP('',(#457,#458));
#125=EDGE_LOOP('',(#459));
#126=EDGE_LOOP('',(#460));
#127=EDGE_LOOP('',(#461));
#128=EDGE_LOOP('',(#462,#463,#464,#465));
#129=EDGE_LOOP('',(#466));
#130=EDGE_LOOP('',(#467,#468,#469,#470));
#131=EDGE_LOOP('',(#471,#472,#473,#474));
#132=EDGE_LOOP('',(#475,#476,#477,#478));
#133=EDGE_LOOP('',(#479,#480,#481,#482));
#134=EDGE_LOOP('',(#483,#484,#485,#486,#487,#488,#489,#490,#491));
#135=EDGE_LOOP('',(#492,#493,#494,#495));
#136=EDGE_LOOP('',(#496));
#137=EDGE_LOOP('',(#497));
#138=EDGE_LOOP('',(#498,#499,#500,#501));
#139=EDGE_LOOP('',(#502));
#140=EDGE_LOOP('',(#503,#504,#505,#506));
#141=EDGE_LOOP('',(#507,#508,#509,#510));
#142=EDGE_LOOP('',(#511,#512,#513,#514));
#143=EDGE_LOOP('',(#515));
#144=EDGE_LOOP('',(#516,#517,#518,#519));
#145=EDGE_LOOP('',(#520,#521,#522,#523,#524,#525,#526,#527,#528));
#146=EDGE_LOOP('',(#529,#530,#531,#532));
#147=EDGE_LOOP('',(#533));
#148=EDGE_LOOP('',(#534));
#149=EDGE_LOOP('',(#535,#536,#537,#538));
#150=EDGE_LOOP('',(#539));
#151=EDGE_LOOP('',(#540));
#152=EDGE_LOOP('',(#541,#542,#543,#544));
#153=EDGE_LOOP('',(#545));
#154=EDGE_LOOP('',(#546));
#155=EDGE_LOOP('',(#547,#548,#549,#550));
#156=EDGE_LOOP('',(#551,#552,#553,#554));
#157=EDGE_LOOP('',(#555,#556,#557,#558));
#158=EDGE_LOOP('',(#559,#560,#561,#562));
#159=EDGE_LOOP('',(#563,#564,#565,#566));
#160=EDGE_LOOP('',(#567,#568,#569,#570));
#161=EDGE_LOOP('',(#571,#572,#573,#574));
#162=EDGE_LOOP('',(#575,#576,#577,#578));
#163=EDGE_LOOP('',(#579,#580,#581,#582));
#164=EDGE_LOOP('',(#583,#584,#585,#586));
#165=EDGE_LOOP('',(#587,#588,#589,#590));
#166=EDGE_LOOP('',(#591,#592,#593,#594));
#167=EDGE_LOOP('',(#595,#596,#597,#598));
#168=EDGE_LOOP('',(#599,#600,#601,#602));
#169=EDGE_LOOP('',(#603,#604,#605,#606));
#170=EDGE_LOOP('',(#607,#608,#609,#610));
#171=EDGE_LOOP('',(#611,#612,#613,#614,#615,#616));
#172=EDGE_LOOP('',(#617,#618,#619,#620));
#173=EDGE_LOOP('',(#621));
#174=EDGE_LOOP('',(#622,#623,#624,#625));
#175=EDGE_LOOP('',(#626,#627,#628,#629));
#176=EDGE_LOOP('',(#630));
#177=EDGE_LOOP('',(#631));
#178=EDGE_LOOP('',(#632,#633,#634,#635));
#179=EDGE_LOOP('',(#636));
#180=ELLIPSE('',#709,2.82842712474619,2.);
#181=ELLIPSE('',#710,2.82842712474619,2.);
#182=LINE('',#990,#239);
#183=LINE('',#992,#240);
#184=LINE('',#994,#241);
#185=LINE('',#998,#242);
#186=LINE('',#1012,#243);
#187=LINE('',#1015,#244);
#188=LINE('',#1022,#245);
#189=LINE('',#1025,#246);
#190=LINE('',#1028,#247);
#191=LINE('',#1032,#248);
#192=LINE('',#1037,#249);
#193=LINE('',#1039,#250);
#194=LINE('',#1041,#251);
#195=LINE('',#1042,#252);
#196=LINE('',#1045,#253);
#197=LINE('',#1047,#254);
#198=LINE('',#1048,#255);
#199=LINE('',#1051,#256);
#200=LINE('',#1052,#257);
#201=LINE('',#1054,#258);
#202=LINE('',#1056,#259);
#203=LINE('',#1058,#260);
#204=LINE('',#1059,#261);
#205=LINE('',#1064,#262);
#206=LINE('',#1072,#263);
#207=LINE('',#1076,#264);
#208=LINE('',#1080,#265);
#209=LINE('',#1083,#266);
#210=LINE('',#1084,#267);
#211=LINE('',#1086,#268);
#212=LINE('',#1089,#269);
#213=LINE('',#1090,#270);
#214=LINE('',#1093,#271);
#215=LINE('',#1100,#272);
#216=LINE('',#1107,#273);
#217=LINE('',#1114,#274);
#218=LINE('',#1117,#275);
#219=LINE('',#1120,#276);
#220=LINE('',#1121,#277);
#221=LINE('',#1124,#278);
#222=LINE('',#1127,#279);
#223=LINE('',#1130,#280);
#224=LINE('',#1131,#281);
#225=LINE('',#1134,#282);
#226=LINE('',#1136,#283);
#227=LINE('',#1137,#284);
#228=LINE('',#1140,#285);
#229=LINE('',#1144,#286);
#230=LINE('',#1148,#287);
#231=LINE('',#1151,#288);
#232=LINE('',#1154,#289);
#233=LINE('',#1158,#290);
#234=LINE('',#1162,#291);
#235=LINE('',#1165,#292);
#236=LINE('',#1168,#293);
#237=LINE('',#1169,#294);
#238=LINE('',#1174,#295);
#239=VECTOR('',#785,0.393700787401575);
#240=VECTOR('',#786,0.393700787401575);
#241=VECTOR('',#787,0.393700787401575);
#242=VECTOR('',#790,0.393700787401575);
#243=VECTOR('',#805,0.393700787401575);
#244=VECTOR('',#808,0.393700787401575);
#245=VECTOR('',#813,0.393700787401575);
#246=VECTOR('',#816,0.393700787401575);
#247=VECTOR('',#817,0.393700787401575);
#248=VECTOR('',#820,0.393700787401575);
#249=VECTOR('',#825,0.393700787401575);
#250=VECTOR('',#826,0.393700787401575);
#251=VECTOR('',#827,0.393700787401575);
#252=VECTOR('',#828,0.393700787401575);
#253=VECTOR('',#831,0.393700787401575);
#254=VECTOR('',#832,0.393700787401575);
#255=VECTOR('',#833,0.393700787401575);
#256=VECTOR('',#836,0.393700787401575);
#257=VECTOR('',#837,0.393700787401575);
#258=VECTOR('',#838,0.393700787401575);
#259=VECTOR('',#839,0.393700787401575);
#260=VECTOR('',#840,0.393700787401575);
#261=VECTOR('',#841,0.393700787401575);
#262=VECTOR('',#846,0.2);
#263=VECTOR('',#857,0.393700787401575);
#264=VECTOR('',#862,0.25);
#265=VECTOR('',#867,0.393700787401575);
#266=VECTOR('',#870,0.393700787401575);
#267=VECTOR('',#871,0.393700787401575);
#268=VECTOR('',#874,0.393700787401575);
#269=VECTOR('',#877,0.393700787401575);
#270=VECTOR('',#878,0.393700787401575);
#271=VECTOR('',#881,0.1);
#272=VECTOR('',#890,0.1);
#273=VECTOR('',#899,0.1);
#274=VECTOR('',#908,0.393700787401575);
#275=VECTOR('',#911,0.393700787401575);
#276=VECTOR('',#914,0.393700787401575);
#277=VECTOR('',#915,0.393700787401575);
#278=VECTOR('',#918,0.393700787401575);
#279=VECTOR('',#921,0.393700787401575);
#280=VECTOR('',#924,0.393700787401575);
#281=VECTOR('',#925,0.393700787401575);
#282=VECTOR('',#928,0.393700787401575);
#283=VECTOR('',#929,0.393700787401575);
#284=VECTOR('',#930,0.393700787401575);
#285=VECTOR('',#933,0.393700787401575);
#286=VECTOR('',#938,0.05);
#287=VECTOR('',#943,0.393700787401575);
#288=VECTOR('',#948,0.393700787401575);
#289=VECTOR('',#951,0.0499999999999999);
#290=VECTOR('',#956,0.841771653543307);
#291=VECTOR('',#961,0.393700787401575);
#292=VECTOR('',#966,0.393700787401575);
#293=VECTOR('',#969,0.393700787401575);
#294=VECTOR('',#970,0.393700787401575);
#295=VECTOR('',#977,0.05);
#296=VERTEX_POINT('',#988);
#297=VERTEX_POINT('',#989);
#298=VERTEX_POINT('',#991);
#299=VERTEX_POINT('',#993);
#300=VERTEX_POINT('',#995);
#301=VERTEX_POINT('',#997);
#302=VERTEX_POINT('',#1002);
#303=VERTEX_POINT('',#1004);
#304=VERTEX_POINT('',#1006);
#305=VERTEX_POINT('',#1008);
#306=VERTEX_POINT('',#1009);
#307=VERTEX_POINT('',#1011);
#308=VERTEX_POINT('',#1013);
#309=VERTEX_POINT('',#1016);
#310=VERTEX_POINT('',#1018);
#311=VERTEX_POINT('',#1019);
#312=VERTEX_POINT('',#1021);
#313=VERTEX_POINT('',#1023);
#314=VERTEX_POINT('',#1026);
#315=VERTEX_POINT('',#1027);
#316=VERTEX_POINT('',#1029);
#317=VERTEX_POINT('',#1031);
#318=VERTEX_POINT('',#1035);
#319=VERTEX_POINT('',#1036);
#320=VERTEX_POINT('',#1038);
#321=VERTEX_POINT('',#1040);
#322=VERTEX_POINT('',#1044);
#323=VERTEX_POINT('',#1046);
#324=VERTEX_POINT('',#1050);
#325=VERTEX_POINT('',#1053);
#326=VERTEX_POINT('',#1055);
#327=VERTEX_POINT('',#1057);
#328=VERTEX_POINT('',#1061);
#329=VERTEX_POINT('',#1063);
#330=VERTEX_POINT('',#1067);
#331=VERTEX_POINT('',#1070);
#332=VERTEX_POINT('',#1073);
#333=VERTEX_POINT('',#1078);
#334=VERTEX_POINT('',#1082);
#335=VERTEX_POINT('',#1088);
#336=VERTEX_POINT('',#1092);
#337=VERTEX_POINT('',#1096);
#338=VERTEX_POINT('',#1099);
#339=VERTEX_POINT('',#1103);
#340=VERTEX_POINT('',#1106);
#341=VERTEX_POINT('',#1110);
#342=VERTEX_POINT('',#1113);
#343=VERTEX_POINT('',#1115);
#344=VERTEX_POINT('',#1119);
#345=VERTEX_POINT('',#1123);
#346=VERTEX_POINT('',#1125);
#347=VERTEX_POINT('',#1129);
#348=VERTEX_POINT('',#1133);
#349=VERTEX_POINT('',#1135);
#350=VERTEX_POINT('',#1139);
#351=VERTEX_POINT('',#1143);
#352=VERTEX_POINT('',#1147);
#353=VERTEX_POINT('',#1153);
#354=VERTEX_POINT('',#1157);
#355=VERTEX_POINT('',#1161);
#356=VERTEX_POINT('',#1167);
#357=VERTEX_POINT('',#1173);
#358=EDGE_CURVE('',#296,#297,#182,.F.);
#359=EDGE_CURVE('',#296,#298,#183,.T.);
#360=EDGE_CURVE('',#299,#298,#184,.F.);
#361=EDGE_CURVE('',#300,#299,#180,.F.);
#362=EDGE_CURVE('',#300,#301,#185,.T.);
#363=EDGE_CURVE('',#297,#301,#181,.F.);
#364=EDGE_CURVE('',#301,#300,#52,.F.);
#365=EDGE_CURVE('',#302,#302,#53,.T.);
#366=EDGE_CURVE('',#303,#303,#54,.T.);
#367=EDGE_CURVE('',#304,#304,#55,.T.);
#368=EDGE_CURVE('',#305,#306,#56,.F.);
#369=EDGE_CURVE('',#307,#305,#186,.F.);
#370=EDGE_CURVE('',#308,#307,#57,.F.);
#371=EDGE_CURVE('',#306,#308,#187,.F.);
#372=EDGE_CURVE('',#309,#309,#58,.F.);
#373=EDGE_CURVE('',#310,#311,#59,.F.);
#374=EDGE_CURVE('',#312,#310,#188,.F.);
#375=EDGE_CURVE('',#313,#312,#60,.F.);
#376=EDGE_CURVE('',#311,#313,#189,.F.);
#377=EDGE_CURVE('',#314,#315,#190,.F.);
#378=EDGE_CURVE('',#316,#314,#61,.F.);
#379=EDGE_CURVE('',#317,#316,#191,.F.);
#380=EDGE_CURVE('',#315,#317,#62,.F.);
#381=EDGE_CURVE('',#318,#319,#192,.T.);
#382=EDGE_CURVE('',#319,#320,#193,.T.);
#383=EDGE_CURVE('',#320,#321,#194,.T.);
#384=EDGE_CURVE('',#321,#318,#195,.T.);
#385=EDGE_CURVE('',#321,#322,#196,.T.);
#386=EDGE_CURVE('',#322,#323,#197,.T.);
#387=EDGE_CURVE('',#318,#323,#198,.T.);
#388=EDGE_CURVE('',#324,#320,#199,.T.);
#389=EDGE_CURVE('',#299,#324,#200,.T.);
#390=EDGE_CURVE('',#298,#325,#201,.T.);
#391=EDGE_CURVE('',#325,#326,#202,.T.);
#392=EDGE_CURVE('',#326,#327,#203,.T.);
#393=EDGE_CURVE('',#322,#327,#204,.T.);
#394=EDGE_CURVE('',#328,#328,#63,.T.);
#395=EDGE_CURVE('',#328,#329,#205,.T.);
#396=EDGE_CURVE('',#329,#329,#64,.T.);
#397=EDGE_CURVE('',#330,#330,#65,.T.);
#398=EDGE_CURVE('',#327,#331,#66,.T.);
#399=EDGE_CURVE('',#331,#323,#206,.T.);
#400=EDGE_CURVE('',#332,#332,#67,.T.);
#401=EDGE_CURVE('',#332,#330,#207,.T.);
#402=EDGE_CURVE('',#326,#333,#68,.T.);
#403=EDGE_CURVE('',#333,#331,#208,.T.);
#404=EDGE_CURVE('',#334,#325,#209,.T.);
#405=EDGE_CURVE('',#334,#333,#210,.T.);
#406=EDGE_CURVE('',#296,#334,#211,.T.);
#407=EDGE_CURVE('',#297,#335,#212,.T.);
#408=EDGE_CURVE('',#335,#319,#213,.T.);
#409=EDGE_CURVE('',#302,#336,#214,.T.);
#410=EDGE_CURVE('',#336,#336,#69,.T.);
#411=EDGE_CURVE('',#337,#337,#70,.T.);
#412=EDGE_CURVE('',#303,#338,#215,.T.);
#413=EDGE_CURVE('',#338,#338,#71,.T.);
#414=EDGE_CURVE('',#339,#339,#72,.T.);
#415=EDGE_CURVE('',#304,#340,#216,.T.);
#416=EDGE_CURVE('',#340,#340,#73,.T.);
#417=EDGE_CURVE('',#341,#341,#74,.T.);
#418=EDGE_CURVE('',#342,#307,#217,.T.);
#419=EDGE_CURVE('',#342,#343,#75,.T.);
#420=EDGE_CURVE('',#343,#308,#218,.T.);
#421=EDGE_CURVE('',#344,#305,#219,.T.);
#422=EDGE_CURVE('',#344,#342,#220,.T.);
#423=EDGE_CURVE('',#345,#312,#221,.T.);
#424=EDGE_CURVE('',#345,#346,#76,.T.);
#425=EDGE_CURVE('',#346,#313,#222,.T.);
#426=EDGE_CURVE('',#347,#310,#223,.T.);
#427=EDGE_CURVE('',#347,#345,#224,.T.);
#428=EDGE_CURVE('',#348,#316,#225,.T.);
#429=EDGE_CURVE('',#348,#349,#226,.T.);
#430=EDGE_CURVE('',#349,#317,#227,.T.);
#431=EDGE_CURVE('',#350,#314,#228,.T.);
#432=EDGE_CURVE('',#350,#348,#77,.T.);
#433=EDGE_CURVE('',#341,#351,#229,.T.);
#434=EDGE_CURVE('',#351,#351,#78,.T.);
#435=EDGE_CURVE('',#352,#306,#230,.T.);
#436=EDGE_CURVE('',#352,#344,#79,.T.);
#437=EDGE_CURVE('',#343,#352,#231,.T.);
#438=EDGE_CURVE('',#337,#353,#232,.T.);
#439=EDGE_CURVE('',#353,#353,#80,.T.);
#440=EDGE_CURVE('',#309,#354,#233,.T.);
#441=EDGE_CURVE('',#354,#354,#81,.T.);
#442=EDGE_CURVE('',#355,#311,#234,.T.);
#443=EDGE_CURVE('',#355,#347,#82,.T.);
#444=EDGE_CURVE('',#346,#355,#235,.T.);
#445=EDGE_CURVE('',#356,#315,#236,.T.);
#446=EDGE_CURVE('',#356,#350,#237,.T.);
#447=EDGE_CURVE('',#349,#356,#83,.T.);
#448=EDGE_CURVE('',#339,#357,#238,.T.);
#449=EDGE_CURVE('',#357,#357,#84,.T.);
#450=EDGE_CURVE('',#324,#335,#85,.T.);
#451=ORIENTED_EDGE('',*,*,#358,.F.);
#452=ORIENTED_EDGE('',*,*,#359,.T.);
#453=ORIENTED_EDGE('',*,*,#360,.F.);
#454=ORIENTED_EDGE('',*,*,#361,.F.);
#455=ORIENTED_EDGE('',*,*,#362,.T.);
#456=ORIENTED_EDGE('',*,*,#363,.F.);
#457=ORIENTED_EDGE('',*,*,#362,.F.);
#458=ORIENTED_EDGE('',*,*,#364,.F.);
#459=ORIENTED_EDGE('',*,*,#365,.T.);
#460=ORIENTED_EDGE('',*,*,#366,.T.);
#461=ORIENTED_EDGE('',*,*,#367,.T.);
#462=ORIENTED_EDGE('',*,*,#368,.F.);
#463=ORIENTED_EDGE('',*,*,#369,.F.);
#464=ORIENTED_EDGE('',*,*,#370,.F.);
#465=ORIENTED_EDGE('',*,*,#371,.F.);
#466=ORIENTED_EDGE('',*,*,#372,.F.);
#467=ORIENTED_EDGE('',*,*,#373,.F.);
#468=ORIENTED_EDGE('',*,*,#374,.F.);
#469=ORIENTED_EDGE('',*,*,#375,.F.);
#470=ORIENTED_EDGE('',*,*,#376,.F.);
#471=ORIENTED_EDGE('',*,*,#377,.F.);
#472=ORIENTED_EDGE('',*,*,#378,.F.);
#473=ORIENTED_EDGE('',*,*,#379,.F.);
#474=ORIENTED_EDGE('',*,*,#380,.F.);
#475=ORIENTED_EDGE('',*,*,#381,.T.);
#476=ORIENTED_EDGE('',*,*,#382,.T.);
#477=ORIENTED_EDGE('',*,*,#383,.T.);
#478=ORIENTED_EDGE('',*,*,#384,.T.);
#479=ORIENTED_EDGE('',*,*,#384,.F.);
#480=ORIENTED_EDGE('',*,*,#385,.T.);
#481=ORIENTED_EDGE('',*,*,#386,.T.);
#482=ORIENTED_EDGE('',*,*,#387,.F.);
#483=ORIENTED_EDGE('',*,*,#383,.F.);
#484=ORIENTED_EDGE('',*,*,#388,.F.);
#485=ORIENTED_EDGE('',*,*,#389,.F.);
#486=ORIENTED_EDGE('',*,*,#360,.T.);
#487=ORIENTED_EDGE('',*,*,#390,.T.);
#488=ORIENTED_EDGE('',*,*,#391,.T.);
#489=ORIENTED_EDGE('',*,*,#392,.T.);
#490=ORIENTED_EDGE('',*,*,#393,.F.);
#491=ORIENTED_EDGE('',*,*,#385,.F.);
#492=ORIENTED_EDGE('',*,*,#394,.F.);
#493=ORIENTED_EDGE('',*,*,#395,.T.);
#494=ORIENTED_EDGE('',*,*,#396,.T.);
#495=ORIENTED_EDGE('',*,*,#395,.F.);
#496=ORIENTED_EDGE('',*,*,#397,.F.);
#497=ORIENTED_EDGE('',*,*,#394,.T.);
#498=ORIENTED_EDGE('',*,*,#386,.F.);
#499=ORIENTED_EDGE('',*,*,#393,.T.);
#500=ORIENTED_EDGE('',*,*,#398,.T.);
#501=ORIENTED_EDGE('',*,*,#399,.T.);
#502=ORIENTED_EDGE('',*,*,#400,.T.);
#503=ORIENTED_EDGE('',*,*,#400,.F.);
#504=ORIENTED_EDGE('',*,*,#401,.T.);
#505=ORIENTED_EDGE('',*,*,#397,.T.);
#506=ORIENTED_EDGE('',*,*,#401,.F.);
#507=ORIENTED_EDGE('',*,*,#402,.T.);
#508=ORIENTED_EDGE('',*,*,#403,.T.);
#509=ORIENTED_EDGE('',*,*,#398,.F.);
#510=ORIENTED_EDGE('',*,*,#392,.F.);
#511=ORIENTED_EDGE('',*,*,#404,.F.);
#512=ORIENTED_EDGE('',*,*,#405,.T.);
#513=ORIENTED_EDGE('',*,*,#402,.F.);
#514=ORIENTED_EDGE('',*,*,#391,.F.);
#515=ORIENTED_EDGE('',*,*,#396,.F.);
#516=ORIENTED_EDGE('',*,*,#359,.F.);
#517=ORIENTED_EDGE('',*,*,#406,.T.);
#518=ORIENTED_EDGE('',*,*,#404,.T.);
#519=ORIENTED_EDGE('',*,*,#390,.F.);
#520=ORIENTED_EDGE('',*,*,#381,.F.);
#521=ORIENTED_EDGE('',*,*,#387,.T.);
#522=ORIENTED_EDGE('',*,*,#399,.F.);
#523=ORIENTED_EDGE('',*,*,#403,.F.);
#524=ORIENTED_EDGE('',*,*,#405,.F.);
#525=ORIENTED_EDGE('',*,*,#406,.F.);
#526=ORIENTED_EDGE('',*,*,#358,.T.);
#527=ORIENTED_EDGE('',*,*,#407,.T.);
#528=ORIENTED_EDGE('',*,*,#408,.T.);
#529=ORIENTED_EDGE('',*,*,#365,.F.);
#530=ORIENTED_EDGE('',*,*,#409,.T.);
#531=ORIENTED_EDGE('',*,*,#410,.T.);
#532=ORIENTED_EDGE('',*,*,#409,.F.);
#533=ORIENTED_EDGE('',*,*,#410,.F.);
#534=ORIENTED_EDGE('',*,*,#411,.F.);
#535=ORIENTED_EDGE('',*,*,#366,.F.);
#536=ORIENTED_EDGE('',*,*,#412,.T.);
#537=ORIENTED_EDGE('',*,*,#413,.T.);
#538=ORIENTED_EDGE('',*,*,#412,.F.);
#539=ORIENTED_EDGE('',*,*,#413,.F.);
#540=ORIENTED_EDGE('',*,*,#414,.F.);
#541=ORIENTED_EDGE('',*,*,#367,.F.);
#542=ORIENTED_EDGE('',*,*,#415,.T.);
#543=ORIENTED_EDGE('',*,*,#416,.T.);
#544=ORIENTED_EDGE('',*,*,#415,.F.);
#545=ORIENTED_EDGE('',*,*,#416,.F.);
#546=ORIENTED_EDGE('',*,*,#417,.F.);
#547=ORIENTED_EDGE('',*,*,#370,.T.);
#548=ORIENTED_EDGE('',*,*,#418,.F.);
#549=ORIENTED_EDGE('',*,*,#419,.T.);
#550=ORIENTED_EDGE('',*,*,#420,.T.);
#551=ORIENTED_EDGE('',*,*,#369,.T.);
#552=ORIENTED_EDGE('',*,*,#421,.F.);
#553=ORIENTED_EDGE('',*,*,#422,.T.);
#554=ORIENTED_EDGE('',*,*,#418,.T.);
#555=ORIENTED_EDGE('',*,*,#375,.T.);
#556=ORIENTED_EDGE('',*,*,#423,.F.);
#557=ORIENTED_EDGE('',*,*,#424,.T.);
#558=ORIENTED_EDGE('',*,*,#425,.T.);
#559=ORIENTED_EDGE('',*,*,#374,.T.);
#560=ORIENTED_EDGE('',*,*,#426,.F.);
#561=ORIENTED_EDGE('',*,*,#427,.T.);
#562=ORIENTED_EDGE('',*,*,#423,.T.);
#563=ORIENTED_EDGE('',*,*,#379,.T.);
#564=ORIENTED_EDGE('',*,*,#428,.F.);
#565=ORIENTED_EDGE('',*,*,#429,.T.);
#566=ORIENTED_EDGE('',*,*,#430,.T.);
#567=ORIENTED_EDGE('',*,*,#378,.T.);
#568=ORIENTED_EDGE('',*,*,#431,.F.);
#569=ORIENTED_EDGE('',*,*,#432,.T.);
#570=ORIENTED_EDGE('',*,*,#428,.T.);
#571=ORIENTED_EDGE('',*,*,#417,.T.);
#572=ORIENTED_EDGE('',*,*,#433,.T.);
#573=ORIENTED_EDGE('',*,*,#434,.T.);
#574=ORIENTED_EDGE('',*,*,#433,.F.);
#575=ORIENTED_EDGE('',*,*,#368,.T.);
#576=ORIENTED_EDGE('',*,*,#435,.F.);
#577=ORIENTED_EDGE('',*,*,#436,.T.);
#578=ORIENTED_EDGE('',*,*,#421,.T.);
#579=ORIENTED_EDGE('',*,*,#371,.T.);
#580=ORIENTED_EDGE('',*,*,#420,.F.);
#581=ORIENTED_EDGE('',*,*,#437,.T.);
#582=ORIENTED_EDGE('',*,*,#435,.T.);
#583=ORIENTED_EDGE('',*,*,#411,.T.);
#584=ORIENTED_EDGE('',*,*,#438,.T.);
#585=ORIENTED_EDGE('',*,*,#439,.T.);
#586=ORIENTED_EDGE('',*,*,#438,.F.);
#587=ORIENTED_EDGE('',*,*,#372,.T.);
#588=ORIENTED_EDGE('',*,*,#440,.T.);
#589=ORIENTED_EDGE('',*,*,#441,.T.);
#590=ORIENTED_EDGE('',*,*,#440,.F.);
#591=ORIENTED_EDGE('',*,*,#373,.T.);
#592=ORIENTED_EDGE('',*,*,#442,.F.);
#593=ORIENTED_EDGE('',*,*,#443,.T.);
#594=ORIENTED_EDGE('',*,*,#426,.T.);
#595=ORIENTED_EDGE('',*,*,#376,.T.);
#596=ORIENTED_EDGE('',*,*,#425,.F.);
#597=ORIENTED_EDGE('',*,*,#444,.T.);
#598=ORIENTED_EDGE('',*,*,#442,.T.);
#599=ORIENTED_EDGE('',*,*,#377,.T.);
#600=ORIENTED_EDGE('',*,*,#445,.F.);
#601=ORIENTED_EDGE('',*,*,#446,.T.);
#602=ORIENTED_EDGE('',*,*,#431,.T.);
#603=ORIENTED_EDGE('',*,*,#380,.T.);
#604=ORIENTED_EDGE('',*,*,#430,.F.);
#605=ORIENTED_EDGE('',*,*,#447,.T.);
#606=ORIENTED_EDGE('',*,*,#445,.T.);
#607=ORIENTED_EDGE('',*,*,#414,.T.);
#608=ORIENTED_EDGE('',*,*,#448,.T.);
#609=ORIENTED_EDGE('',*,*,#449,.T.);
#610=ORIENTED_EDGE('',*,*,#448,.F.);
#611=ORIENTED_EDGE('',*,*,#389,.T.);
#612=ORIENTED_EDGE('',*,*,#450,.T.);
#613=ORIENTED_EDGE('',*,*,#407,.F.);
#614=ORIENTED_EDGE('',*,*,#363,.T.);
#615=ORIENTED_EDGE('',*,*,#364,.T.);
#616=ORIENTED_EDGE('',*,*,#361,.T.);
#617=ORIENTED_EDGE('',*,*,#382,.F.);
#618=ORIENTED_EDGE('',*,*,#408,.F.);
#619=ORIENTED_EDGE('',*,*,#450,.F.);
#620=ORIENTED_EDGE('',*,*,#388,.T.);
#621=ORIENTED_EDGE('',*,*,#449,.F.);
#622=ORIENTED_EDGE('',*,*,#432,.F.);
#623=ORIENTED_EDGE('',*,*,#446,.F.);
#624=ORIENTED_EDGE('',*,*,#447,.F.);
#625=ORIENTED_EDGE('',*,*,#429,.F.);
#626=ORIENTED_EDGE('',*,*,#427,.F.);
#627=ORIENTED_EDGE('',*,*,#443,.F.);
#628=ORIENTED_EDGE('',*,*,#444,.F.);
#629=ORIENTED_EDGE('',*,*,#424,.F.);
#630=ORIENTED_EDGE('',*,*,#441,.F.);
#631=ORIENTED_EDGE('',*,*,#439,.F.);
#632=ORIENTED_EDGE('',*,*,#422,.F.);
#633=ORIENTED_EDGE('',*,*,#436,.F.);
#634=ORIENTED_EDGE('',*,*,#437,.F.);
#635=ORIENTED_EDGE('',*,*,#419,.F.);
#636=ORIENTED_EDGE('',*,*,#434,.F.);
#637=PLANE('',#708);
#638=PLANE('',#711);
#639=PLANE('',#723);
#640=PLANE('',#724);
#641=PLANE('',#725);
#642=PLANE('',#729);
#643=PLANE('',#731);
#644=PLANE('',#737);
#645=PLANE('',#738);
#646=PLANE('',#739);
#647=PLANE('',#742);
#648=PLANE('',#746);
#649=PLANE('',#750);
#650=PLANE('',#754);
#651=PLANE('',#757);
#652=PLANE('',#758);
#653=PLANE('',#765);
#654=PLANE('',#772);
#655=PLANE('',#773);
#656=PLANE('',#780);
#657=ADVANCED_FACE('',(#86),#637,.T.);
#658=ADVANCED_FACE('',(#87,#32,#33,#34,#35,#36,#37,#38),#638,.T.);
#659=ADVANCED_FACE('',(#88),#639,.T.);
#660=ADVANCED_FACE('',(#89),#640,.T.);
#661=ADVANCED_FACE('',(#90),#641,.T.);
#662=ADVANCED_FACE('',(#91),#15,.F.);
#663=ADVANCED_FACE('',(#92,#39),#642,.T.);
#664=ADVANCED_FACE('',(#93,#40),#643,.T.);
#665=ADVANCED_FACE('',(#94),#16,.F.);
#666=ADVANCED_FACE('',(#95),#17,.T.);
#667=ADVANCED_FACE('',(#96,#41),#644,.F.);
#668=ADVANCED_FACE('',(#97),#645,.T.);
#669=ADVANCED_FACE('',(#98),#646,.T.);
#670=ADVANCED_FACE('',(#99),#18,.F.);
#671=ADVANCED_FACE('',(#100,#42),#647,.T.);
#672=ADVANCED_FACE('',(#101),#19,.F.);
#673=ADVANCED_FACE('',(#102,#43),#648,.T.);
#674=ADVANCED_FACE('',(#103),#20,.F.);
#675=ADVANCED_FACE('',(#104,#44),#649,.T.);
#676=ADVANCED_FACE('',(#105),#21,.T.);
#677=ADVANCED_FACE('',(#106),#650,.T.);
#678=ADVANCED_FACE('',(#107),#22,.T.);
#679=ADVANCED_FACE('',(#108),#651,.T.);
#680=ADVANCED_FACE('',(#109),#652,.T.);
#681=ADVANCED_FACE('',(#110),#23,.T.);
#682=ADVANCED_FACE('',(#111),#24,.F.);
#683=ADVANCED_FACE('',(#112),#25,.F.);
#684=ADVANCED_FACE('',(#113),#653,.T.);
#685=ADVANCED_FACE('',(#114),#26,.F.);
#686=ADVANCED_FACE('',(#115),#27,.F.);
#687=ADVANCED_FACE('',(#116),#28,.F.);
#688=ADVANCED_FACE('',(#117),#654,.T.);
#689=ADVANCED_FACE('',(#118),#655,.T.);
#690=ADVANCED_FACE('',(#119),#29,.F.);
#691=ADVANCED_FACE('',(#120),#30,.F.);
#692=ADVANCED_FACE('',(#121),#31,.T.);
#693=ADVANCED_FACE('',(#122,#45,#46,#47,#48,#49,#50,#51),#656,.F.);
#694=CLOSED_SHELL('',(#657,#658,#659,#660,#661,#662,#663,#664,#665,#666,
#667,#668,#669,#670,#671,#672,#673,#674,#675,#676,#677,#678,#679,#680,#681,
#682,#683,#684,#685,#686,#687,#688,#689,#690,#691,#692,#693));
#695=DERIVED_UNIT_ELEMENT(#697,1.);
#696=DERIVED_UNIT_ELEMENT(#1186,-3.);
#697=(
MASS_UNIT()
NAMED_UNIT(*)
SI_UNIT(.KILO.,.GRAM.)
);
#698=DERIVED_UNIT((#695,#696));
#699=MEASURE_REPRESENTATION_ITEM('density measure',
POSITIVE_RATIO_MEASURE(7850.),#698);
#700=PROPERTY_DEFINITION_REPRESENTATION(#705,#702);
#701=PROPERTY_DEFINITION_REPRESENTATION(#706,#703);
#702=REPRESENTATION('material name',(#704),#1181);
#703=REPRESENTATION('density',(#699),#1181);
#704=DESCRIPTIVE_REPRESENTATION_ITEM('Steel','Steel');
#705=PROPERTY_DEFINITION('material property','material name',#1194);
#706=PROPERTY_DEFINITION('material property','density of part',#1194);
#707=AXIS2_PLACEMENT_3D('',#986,#781,#782);
#708=AXIS2_PLACEMENT_3D('',#987,#783,#784);
#709=AXIS2_PLACEMENT_3D('',#996,#788,#789);
#710=AXIS2_PLACEMENT_3D('',#999,#791,#792);
#711=AXIS2_PLACEMENT_3D('',#1000,#793,#794);
#712=AXIS2_PLACEMENT_3D('',#1001,#795,#796);
#713=AXIS2_PLACEMENT_3D('',#1003,#797,#798);
#714=AXIS2_PLACEMENT_3D('',#1005,#799,#800);
#715=AXIS2_PLACEMENT_3D('',#1007,#801,#802);
#716=AXIS2_PLACEMENT_3D('',#1010,#803,#804);
#717=AXIS2_PLACEMENT_3D('',#1014,#806,#807);
#718=AXIS2_PLACEMENT_3D('',#1017,#809,#810);
#719=AXIS2_PLACEMENT_3D('',#1020,#811,#812);
#720=AXIS2_PLACEMENT_3D('',#1024,#814,#815);
#721=AXIS2_PLACEMENT_3D('',#1030,#818,#819);
#722=AXIS2_PLACEMENT_3D('',#1033,#821,#822);
#723=AXIS2_PLACEMENT_3D('',#1034,#823,#824);
#724=AXIS2_PLACEMENT_3D('',#1043,#829,#830);
#725=AXIS2_PLACEMENT_3D('',#1049,#834,#835);
#726=AXIS2_PLACEMENT_3D('',#1060,#842,#843);
#727=AXIS2_PLACEMENT_3D('',#1062,#844,#845);
#728=AXIS2_PLACEMENT_3D('',#1065,#847,#848);
#729=AXIS2_PLACEMENT_3D('',#1066,#849,#850);
#730=AXIS2_PLACEMENT_3D('',#1068,#851,#852);
#731=AXIS2_PLACEMENT_3D('',#1069,#853,#854);
#732=AXIS2_PLACEMENT_3D('',#1071,#855,#856);
#733=AXIS2_PLACEMENT_3D('',#1074,#858,#859);
#734=AXIS2_PLACEMENT_3D('',#1075,#860,#861);
#735=AXIS2_PLACEMENT_3D('',#1077,#863,#864);
#736=AXIS2_PLACEMENT_3D('',#1079,#865,#866);
#737=AXIS2_PLACEMENT_3D('',#1081,#868,#869);
#738=AXIS2_PLACEMENT_3D('',#1085,#872,#873);
#739=AXIS2_PLACEMENT_3D('',#1087,#875,#876);
#740=AXIS2_PLACEMENT_3D('',#1091,#879,#880);
#741=AXIS2_PLACEMENT_3D('',#1094,#882,#883);
#742=AXIS2_PLACEMENT_3D('',#1095,#884,#885);
#743=AXIS2_PLACEMENT_3D('',#1097,#886,#887);
#744=AXIS2_PLACEMENT_3D('',#1098,#888,#889);
#745=AXIS2_PLACEMENT_3D('',#1101,#891,#892);
#746=AXIS2_PLACEMENT_3D('',#1102,#893,#894);
#747=AXIS2_PLACEMENT_3D('',#1104,#895,#896);
#748=AXIS2_PLACEMENT_3D('',#1105,#897,#898);
#749=AXIS2_PLACEMENT_3D('',#1108,#900,#901);
#750=AXIS2_PLACEMENT_3D('',#1109,#902,#903);
#751=AXIS2_PLACEMENT_3D('',#1111,#904,#905);
#752=AXIS2_PLACEMENT_3D('',#1112,#906,#907);
#753=AXIS2_PLACEMENT_3D('',#1116,#909,#910);
#754=AXIS2_PLACEMENT_3D('',#1118,#912,#913);
#755=AXIS2_PLACEMENT_3D('',#1122,#916,#917);
#756=AXIS2_PLACEMENT_3D('',#1126,#919,#920);
#757=AXIS2_PLACEMENT_3D('',#1128,#922,#923);
#758=AXIS2_PLACEMENT_3D('',#1132,#926,#927);
#759=AXIS2_PLACEMENT_3D('',#1138,#931,#932);
#760=AXIS2_PLACEMENT_3D('',#1141,#934,#935);
#761=AXIS2_PLACEMENT_3D('',#1142,#936,#937);
#762=AXIS2_PLACEMENT_3D('',#1145,#939,#940);
#763=AXIS2_PLACEMENT_3D('',#1146,#941,#942);
#764=AXIS2_PLACEMENT_3D('',#1149,#944,#945);
#765=AXIS2_PLACEMENT_3D('',#1150,#946,#947);
#766=AXIS2_PLACEMENT_3D('',#1152,#949,#950);
#767=AXIS2_PLACEMENT_3D('',#1155,#952,#953);
#768=AXIS2_PLACEMENT_3D('',#1156,#954,#955);
#769=AXIS2_PLACEMENT_3D('',#1159,#957,#958);
#770=AXIS2_PLACEMENT_3D('',#1160,#959,#960);
#771=AXIS2_PLACEMENT_3D('',#1163,#962,#963);
#772=AXIS2_PLACEMENT_3D('',#1164,#964,#965);
#773=AXIS2_PLACEMENT_3D('',#1166,#967,#968);
#774=AXIS2_PLACEMENT_3D('',#1170,#971,#972);
#775=AXIS2_PLACEMENT_3D('',#1171,#973,#974);
#776=AXIS2_PLACEMENT_3D('',#1172,#975,#976);
#777=AXIS2_PLACEMENT_3D('',#1175,#978,#979);
#778=AXIS2_PLACEMENT_3D('',#1176,#980,#981);
#779=AXIS2_PLACEMENT_3D('',#1177,#982,#983);
#780=AXIS2_PLACEMENT_3D('',#1178,#984,#985);
#781=DIRECTION('axis',(0.,0.,1.));
#782=DIRECTION('refdir',(1.,0.,0.));
#783=DIRECTION('center_axis',(-0.707106781186548,0.,0.707106781186548));
#784=DIRECTION('ref_axis',(0.707106781186548,0.,0.707106781186548));
#785=DIRECTION('',(0.707106781186548,6.38670339026575E-15,0.707106781186548));
#786=DIRECTION('',(0.,1.,0.));
#787=DIRECTION('',(-0.707106781186548,7.21614538900156E-15,-0.707106781186548));
#788=DIRECTION('center_axis',(-0.707106781186548,0.,0.707106781186548));
#789=DIRECTION('ref_axis',(-0.707106781186547,0.,-0.707106781186547));
#790=DIRECTION('',(0.,-1.,0.));
#791=DIRECTION('center_axis',(-0.707106781186548,0.,0.707106781186548));
#792=DIRECTION('ref_axis',(-0.707106781186547,0.,-0.707106781186547));
#793=DIRECTION('center_axis',(0.,0.,1.));
#794=DIRECTION('ref_axis',(1.,0.,0.));
#795=DIRECTION('center_axis',(0.,0.,1.));
#796=DIRECTION('ref_axis',(-1.,0.,0.));
#797=DIRECTION('center_axis',(0.,0.,-1.));
#798=DIRECTION('ref_axis',(-1.,0.,0.));
#799=DIRECTION('center_axis',(0.,0.,-1.));
#800=DIRECTION('ref_axis',(-1.,0.,0.));
#801=DIRECTION('center_axis',(0.,0.,-1.));
#802=DIRECTION('ref_axis',(-1.,0.,0.));
#803=DIRECTION('center_axis',(0.,0.,-1.));
#804=DIRECTION('ref_axis',(-1.,0.,0.));
#805=DIRECTION('',(1.,2.28550210514653E-16,0.));
#806=DIRECTION('center_axis',(0.,0.,1.));
#807=DIRECTION('ref_axis',(-0.959746434231379,-0.280867908419872,0.));
#808=DIRECTION('',(0.5,-0.866025403784438,0.));
#809=DIRECTION('center_axis',(0.,0.,-1.));
#810=DIRECTION('ref_axis',(-1.,0.,0.));
#811=DIRECTION('center_axis',(0.,0.,-1.));
#812=DIRECTION('ref_axis',(-1.,0.,0.));
#813=DIRECTION('',(-0.5,0.866025403784439,0.));
#814=DIRECTION('center_axis',(0.,0.,1.));
#815=DIRECTION('ref_axis',(0.7231119609151,-0.690730839025969,0.));
#816=DIRECTION('',(0.5,0.866025403784439,0.));
#817=DIRECTION('',(-0.5,-0.866025403784439,0.));
#818=DIRECTION('center_axis',(0.,0.,1.));
#819=DIRECTION('ref_axis',(0.236634473316279,0.971598747445841,0.));
#820=DIRECTION('',(-1.,-3.04733614019538E-16,0.));
#821=DIRECTION('center_axis',(0.,0.,-1.));
#822=DIRECTION('ref_axis',(-1.,0.,0.));
#823=DIRECTION('center_axis',(0.707106781186548,0.,-0.707106781186548));
#824=DIRECTION('ref_axis',(-0.707106781186548,0.,-0.707106781186548));
#825=DIRECTION('',(-0.707106781186547,-6.38670339026575E-15,-0.707106781186547));
#826=DIRECTION('',(0.,1.,0.));
#827=DIRECTION('',(0.707106781186547,-7.21614538900156E-15,0.707106781186547));
#828=DIRECTION('',(0.,-1.,0.));
#829=DIRECTION('center_axis',(1.,0.,0.));
#830=DIRECTION('ref_axis',(0.,1.,0.));
#831=DIRECTION('',(0.,0.,1.));
#832=DIRECTION('',(0.,-1.,0.));
#833=DIRECTION('',(0.,0.,1.));
#834=DIRECTION('center_axis',(1.02051706771821E-14,1.,0.));
#835=DIRECTION('ref_axis',(-1.,1.02051706771821E-14,0.));
#836=DIRECTION('',(1.,-1.02051706771821E-14,0.));
#837=DIRECTION('',(0.,0.,-1.));
#838=DIRECTION('',(0.,0.,1.));
#839=DIRECTION('',(0.642787609686538,-9.53663299606284E-16,0.766044443118979));
#840=DIRECTION('',(0.766044443118979,0.,-0.642787609686538));
#841=DIRECTION('',(0.642787609686538,-9.53663299606284E-16,0.766044443118979));
#842=DIRECTION('center_axis',(0.766044443118978,0.,-0.64278760968654));
#843=DIRECTION('ref_axis',(0.,1.,0.));
#844=DIRECTION('center_axis',(-0.76604444311898,0.,0.642787609686537));
#845=DIRECTION('ref_axis',(0.,1.,0.));
#846=DIRECTION('',(-0.766044443118978,0.,0.64278760968654));
#847=DIRECTION('center_axis',(-0.76604444311898,0.,0.642787609686537));
#848=DIRECTION('ref_axis',(0.,1.,0.));
#849=DIRECTION('center_axis',(0.76604444311898,0.,-0.642787609686537));
#850=DIRECTION('ref_axis',(0.,1.,0.));
#851=DIRECTION('center_axis',(-0.76604444311898,0.,0.642787609686537));
#852=DIRECTION('ref_axis',(0.,1.,0.));
#853=DIRECTION('center_axis',(0.766044443118979,0.,-0.642787609686538));
#854=DIRECTION('ref_axis',(0.,1.,0.));
#855=DIRECTION('center_axis',(0.76604444311898,0.,-0.642787609686537));
#856=DIRECTION('ref_axis',(0.,1.,0.));
#857=DIRECTION('',(-0.642787609686537,-9.53663299606284E-16,-0.76604444311898));
#858=DIRECTION('center_axis',(-0.76604444311898,0.,0.642787609686537));
#859=DIRECTION('ref_axis',(0.,1.,0.));
#860=DIRECTION('center_axis',(0.766044443118979,0.,-0.642787609686538));
#861=DIRECTION('ref_axis',(0.,1.,0.));
#862=DIRECTION('',(-0.766044443118979,0.,0.642787609686538));
#863=DIRECTION('center_axis',(0.766044443118979,0.,-0.642787609686538));
#864=DIRECTION('ref_axis',(0.642787609686538,6.12323399573676E-17,0.766044443118979));
#865=DIRECTION('center_axis',(0.76604444311898,0.,-0.642787609686537));
#866=DIRECTION('ref_axis',(0.,1.,0.));
#867=DIRECTION('',(0.766044443118979,0.,-0.642787609686538));
#868=DIRECTION('center_axis',(0.766044443118979,0.,-0.642787609686538));
#869=DIRECTION('ref_axis',(0.,1.,0.));
#870=DIRECTION('',(0.,1.,-6.66133814775094E-16));
#871=DIRECTION('',(0.642787609686537,9.53663299606284E-16,0.76604444311898));
#872=DIRECTION('center_axis',(-1.,0.,0.));
#873=DIRECTION('ref_axis',(0.,-1.,0.));
#874=DIRECTION('',(0.,0.,1.));
#875=DIRECTION('center_axis',(9.03216255336805E-15,-1.,0.));
#876=DIRECTION('ref_axis',(1.,9.03216255336805E-15,0.));
#877=DIRECTION('',(0.,0.,-1.));
#878=DIRECTION('',(1.,9.03216255336805E-15,0.));
#879=DIRECTION('center_axis',(0.,0.,-1.));
#880=DIRECTION('ref_axis',(-1.,0.,0.));
#881=DIRECTION('',(0.,0.,-1.));
#882=DIRECTION('center_axis',(0.,0.,-1.));
#883=DIRECTION('ref_axis',(-1.,0.,0.));
#884=DIRECTION('center_axis',(0.,0.,1.));
#885=DIRECTION('ref_axis',(1.,0.,0.));
#886=DIRECTION('center_axis',(0.,0.,1.));
#887=DIRECTION('ref_axis',(-1.,0.,0.));
#888=DIRECTION('center_axis',(0.,0.,-1.));
#889=DIRECTION('ref_axis',(-1.,0.,0.));
#890=DIRECTION('',(0.,0.,-1.));
#891=DIRECTION('center_axis',(0.,0.,-1.));
#892=DIRECTION('ref_axis',(-1.,0.,0.));
#893=DIRECTION('center_axis',(0.,0.,1.));
#894=DIRECTION('ref_axis',(1.,0.,0.));
#895=DIRECTION('center_axis',(0.,0.,1.));
#896=DIRECTION('ref_axis',(-1.,0.,0.));
#897=DIRECTION('center_axis',(0.,0.,-1.));
#898=DIRECTION('ref_axis',(-1.,0.,0.));
#899=DIRECTION('',(0.,0.,-1.));
#900=DIRECTION('center_axis',(0.,0.,-1.));
#901=DIRECTION('ref_axis',(-1.,0.,0.));
#902=DIRECTION('center_axis',(0.,0.,1.));
#903=DIRECTION('ref_axis',(1.,0.,0.));
#904=DIRECTION('center_axis',(0.,0.,1.));
#905=DIRECTION('ref_axis',(-1.,0.,0.));
#906=DIRECTION('center_axis',(0.,0.,1.));
#907=DIRECTION('ref_axis',(-0.959746434231379,-0.280867908419872,0.));
#908=DIRECTION('',(0.,0.,1.));
#909=DIRECTION('center_axis',(0.,0.,1.));
#910=DIRECTION('ref_axis',(-0.959746434231379,-0.280867908419872,0.));
#911=DIRECTION('',(0.,0.,1.));
#912=DIRECTION('center_axis',(2.28550210514653E-16,-1.,0.));
#913=DIRECTION('ref_axis',(1.,2.28550210514653E-16,0.));
#914=DIRECTION('',(0.,0.,1.));
#915=DIRECTION('',(1.,2.28550210514653E-16,0.));
#916=DIRECTION('center_axis',(0.,0.,1.));
#917=DIRECTION('ref_axis',(0.7231119609151,-0.690730839025969,0.));
#918=DIRECTION('',(0.,0.,1.));
#919=DIRECTION('center_axis',(0.,0.,1.));
#920=DIRECTION('ref_axis',(0.7231119609151,-0.690730839025969,0.));
#921=DIRECTION('',(0.,0.,1.));
#922=DIRECTION('center_axis',(0.866025403784439,0.5,0.));
#923=DIRECTION('ref_axis',(-0.5,0.866025403784439,0.));
#924=DIRECTION('',(0.,0.,1.));
#925=DIRECTION('',(-0.5,0.866025403784439,0.));
#926=DIRECTION('center_axis',(-3.04733614019538E-16,1.,0.));
#927=DIRECTION('ref_axis',(-1.,-3.04733614019538E-16,0.));
#928=DIRECTION('',(0.,0.,1.));
#929=DIRECTION('',(-1.,-3.04733614019538E-16,0.));
#930=DIRECTION('',(0.,0.,1.));
#931=DIRECTION('center_axis',(0.,0.,1.));
#932=DIRECTION('ref_axis',(0.236634473316279,0.971598747445841,0.));
#933=DIRECTION('',(0.,0.,1.));
#934=DIRECTION('center_axis',(0.,0.,1.));
#935=DIRECTION('ref_axis',(0.236634473316279,0.971598747445841,0.));
#936=DIRECTION('center_axis',(0.,0.,1.));
#937=DIRECTION('ref_axis',(-1.,0.,0.));
#938=DIRECTION('',(0.,0.,-1.));
#939=DIRECTION('center_axis',(0.,0.,-1.));
#940=DIRECTION('ref_axis',(-1.,0.,0.));
#941=DIRECTION('center_axis',(0.,0.,1.));
#942=DIRECTION('ref_axis',(-1.,0.,0.));
#943=DIRECTION('',(0.,0.,1.));
#944=DIRECTION('center_axis',(0.,0.,-1.));
#945=DIRECTION('ref_axis',(-1.,0.,0.));
#946=DIRECTION('center_axis',(-0.866025403784439,-0.5,0.));
#947=DIRECTION('ref_axis',(0.5,-0.866025403784438,0.));
#948=DIRECTION('',(0.5,-0.866025403784439,0.));
#949=DIRECTION('center_axis',(0.,0.,1.));
#950=DIRECTION('ref_axis',(-1.,0.,0.));
#951=DIRECTION('',(0.,0.,-1.));
#952=DIRECTION('center_axis',(0.,0.,-1.));
#953=DIRECTION('ref_axis',(-1.,0.,0.));
#954=DIRECTION('center_axis',(0.,0.,1.));
#955=DIRECTION('ref_axis',(-1.,0.,0.));
#956=DIRECTION('',(0.,0.,-1.));
#957=DIRECTION('center_axis',(0.,0.,-1.));
#958=DIRECTION('ref_axis',(-1.,0.,0.));
#959=DIRECTION('center_axis',(0.,0.,1.));
#960=DIRECTION('ref_axis',(1.,-1.22464679914735E-16,0.));
#961=DIRECTION('',(0.,0.,1.));
#962=DIRECTION('center_axis',(0.,0.,-1.));
#963=DIRECTION('ref_axis',(-1.,0.,0.));
#964=DIRECTION('center_axis',(0.866025403784439,-0.5,0.));
#965=DIRECTION('ref_axis',(0.5,0.866025403784439,0.));
#966=DIRECTION('',(0.5,0.866025403784439,0.));
#967=DIRECTION('center_axis',(-0.866025403784439,0.5,0.));
#968=DIRECTION('ref_axis',(-0.5,-0.866025403784439,0.));
#969=DIRECTION('',(0.,0.,1.));
#970=DIRECTION('',(-0.5,-0.866025403784439,0.));
#971=DIRECTION('center_axis',(0.,0.,1.));
#972=DIRECTION('ref_axis',(-1.,0.,0.));
#973=DIRECTION('center_axis',(0.,0.,-1.));
#974=DIRECTION('ref_axis',(-1.,0.,0.));
#975=DIRECTION('center_axis',(0.,0.,1.));
#976=DIRECTION('ref_axis',(-1.,0.,0.));
#977=DIRECTION('',(0.,0.,-1.));
#978=DIRECTION('center_axis',(0.,0.,-1.));
#979=DIRECTION('ref_axis',(-1.,0.,0.));
#980=DIRECTION('center_axis',(0.,0.,1.));
#981=DIRECTION('ref_axis',(-1.,0.,0.));
#982=DIRECTION('center_axis',(0.,0.,1.));
#983=DIRECTION('ref_axis',(-1.,0.,0.));
#984=DIRECTION('center_axis',(0.,0.,1.));
#985=DIRECTION('ref_axis',(-1.,0.,0.));
#986=CARTESIAN_POINT('',(0.,0.,0.));
#987=CARTESIAN_POINT('Origin',(2.0375,0.150000000000017,0.445570866141733));
#988=CARTESIAN_POINT('',(2.1,-0.300000000000032,0.508070866141732));
#989=CARTESIAN_POINT('',(1.97737199332851,-0.300000000000033,0.385442859470247));
#990=CARTESIAN_POINT('',(1.9110752817967,-0.300000000000034,0.319146147938429));
#991=CARTESIAN_POINT('',(2.1,0.300000000000033,0.508070866141732));
#992=CARTESIAN_POINT('',(2.1,0.150000000000017,0.508070866141732));
#993=CARTESIAN_POINT('',(1.97737199332851,0.300000000000034,0.385442859470247));
#994=CARTESIAN_POINT('',(1.94173228346457,0.300000000000035,0.3498031496063));
#995=CARTESIAN_POINT('',(1.975,0.315238005322963,0.383070866141733));
#996=CARTESIAN_POINT('Origin',(0.,0.,-1.59192913385827));
#997=CARTESIAN_POINT('',(1.975,-0.315238005322963,0.383070866141733));
#998=CARTESIAN_POINT('',(1.975,0.150000000000017,0.383070866141733));
#999=CARTESIAN_POINT('Origin',(0.,0.,-1.59192913385827));
#1000=CARTESIAN_POINT('Origin',(0.,0.,0.383070866141733));
#1001=CARTESIAN_POINT('Origin',(0.,0.,0.383070866141733));
#1002=CARTESIAN_POINT('',(1.14194881889764,1.12420229737286E-15,0.383070866141733));
#1003=CARTESIAN_POINT('Origin',(1.04194881889764,1.13644876536433E-15,0.383070866141733));
#1004=CARTESIAN_POINT('',(-0.42097440944882,0.902354146608545,0.383070866141733));
#1005=CARTESIAN_POINT('Origin',(-0.52097440944882,0.902354146608545,0.383070866141733));
#1006=CARTESIAN_POINT('',(-0.420974409448818,-0.902354146608547,0.383070866141733));
#1007=CARTESIAN_POINT('Origin',(-0.520974409448818,-0.902354146608547,0.383070866141733));
#1008=CARTESIAN_POINT('',(-1.76586732275525,-0.348873327190826,0.383070866141733));
#1009=CARTESIAN_POINT('',(0.580800497327571,-1.70372262481428,0.383070866141733));
#1010=CARTESIAN_POINT('Origin',(0.,0.,0.383070866141733));
#1011=CARTESIAN_POINT('',(-1.19212598425197,-0.348873327190826,0.383070866141733));
#1012=CARTESIAN_POINT('',(-0.882933661377626,-0.348873327190826,0.383070866141733));
#1013=CARTESIAN_POINT('',(0.293929828075929,-1.20684805046915,0.383070866141733));
#1014=CARTESIAN_POINT('Origin',(0.,0.,0.383070866141733));
#1015=CARTESIAN_POINT('',(-0.00410166798706301,-0.690642357032279,0.383070866141733));
#1016=CARTESIAN_POINT('',(0.841771653543307,-1.03087296112479E-16,0.383070866141733));
#1017=CARTESIAN_POINT('Origin',(0.,0.,0.383070866141733));
#1018=CARTESIAN_POINT('',(1.18506682542768,-1.35484929762345,0.383070866141733));
#1019=CARTESIAN_POINT('',(1.18506682542768,1.35484929762345,0.383070866141733));
#1020=CARTESIAN_POINT('Origin',(0.,0.,0.383070866141733));
#1021=CARTESIAN_POINT('',(0.89819615617604,-0.85797472327832,0.383070866141733));
#1022=CARTESIAN_POINT('',(0.743599994738868,-0.590206317014019,0.383070866141733));
#1023=CARTESIAN_POINT('',(0.898196156176039,0.85797472327832,0.383070866141733));
#1024=CARTESIAN_POINT('Origin',(0.,0.,0.383070866141733));
#1025=CARTESIAN_POINT('',(0.600164660113047,0.341769029841454,0.383070866141733));
#1026=CARTESIAN_POINT('',(0.293929828075929,1.20684805046915,0.383070866141733));
#1027=CARTESIAN_POINT('',(0.580800497327571,1.70372262481428,0.383070866141733));
#1028=CARTESIAN_POINT('',(0.139333666638758,0.939079644204844,0.383070866141733));
#1029=CARTESIAN_POINT('',(-1.19212598425197,0.348873327190825,0.383070866141733));
#1030=CARTESIAN_POINT('Origin',(0.,0.,0.383070866141733));
#1031=CARTESIAN_POINT('',(-1.76586732275525,0.348873327190825,0.383070866141733));
#1032=CARTESIAN_POINT('',(-0.596062992125984,0.348873327190825,0.383070866141733));
#1033=CARTESIAN_POINT('Origin',(0.,0.,0.383070866141733));
#1034=CARTESIAN_POINT('Origin',(2.25,-0.150000000000015,0.1));
#1035=CARTESIAN_POINT('',(2.35,-0.30000000000003,0.2));
#1036=CARTESIAN_POINT('',(2.15,-0.300000000000032,0.));
#1037=CARTESIAN_POINT('',(2.15684299833213,-0.300000000000032,0.00684299833212886));
#1038=CARTESIAN_POINT('',(2.15,0.300000000000032,0.));
#1039=CARTESIAN_POINT('',(2.15,-0.150000000000015,0.));
#1040=CARTESIAN_POINT('',(2.35,0.30000000000003,0.2));
#1041=CARTESIAN_POINT('',(2.1875,0.300000000000032,0.0375000000000011));
#1042=CARTESIAN_POINT('',(2.35,-0.150000000000015,0.2));
#1043=CARTESIAN_POINT('Origin',(2.35,-0.30000000000003,0.));
#1044=CARTESIAN_POINT('',(2.35,0.300000000000033,2.15822003985864));
#1045=CARTESIAN_POINT('',(2.35,0.30000000000003,0.));
#1046=CARTESIAN_POINT('',(2.35,-0.300000000000032,2.15822003985864));
#1047=CARTESIAN_POINT('',(2.35,-0.150000000000015,2.15822003985864));
#1048=CARTESIAN_POINT('',(2.35,-0.30000000000003,0.));
#1049=CARTESIAN_POINT('Origin',(2.1,0.300000000000033,0.));
#1050=CARTESIAN_POINT('',(1.97737199332851,0.300000000000034,0.));
#1051=CARTESIAN_POINT('',(1.97737199332851,0.300000000000034,0.));
#1052=CARTESIAN_POINT('',(1.97737199332851,0.300000000000034,0.));
#1053=CARTESIAN_POINT('',(2.1,0.300000000000033,2.24921259842519));
#1054=CARTESIAN_POINT('',(2.1,0.300000000000033,0.));
#1055=CARTESIAN_POINT('',(2.27676659266382,0.300000000000033,2.45987482028294));
#1056=CARTESIAN_POINT('',(2.1,0.300000000000033,2.24921259842519));
#1057=CARTESIAN_POINT('',(2.46827770344357,0.300000000000033,2.29917791786131));
#1058=CARTESIAN_POINT('',(2.27676659266382,0.300000000000033,2.45987482028294));
#1059=CARTESIAN_POINT('',(2.29151111077974,0.300000000000033,2.08851569600356));
#1060=CARTESIAN_POINT('Origin',(2.42139380484327,4.04768764946996E-16,2.63223481998468));
#1061=CARTESIAN_POINT('',(2.45969602699922,-0.2,2.60009543950035));
#1062=CARTESIAN_POINT('Origin',(2.45969602699922,4.04768764946996E-16,2.60009543950035));
#1063=CARTESIAN_POINT('',(2.42139380484327,-0.2,2.63223481998468));
#1064=CARTESIAN_POINT('',(2.42139380484327,-0.2,2.63223481998468));
#1065=CARTESIAN_POINT('Origin',(2.42139380484327,4.04768764946996E-16,2.63223481998468));
#1066=CARTESIAN_POINT('Origin',(2.45969602699922,3.93386111087654E-16,2.60009543950035));
#1067=CARTESIAN_POINT('',(2.45969602699922,-0.25,2.60009543950035));
#1068=CARTESIAN_POINT('Origin',(2.45969602699922,4.04768764946996E-16,2.60009543950035));
#1069=CARTESIAN_POINT('Origin',(2.57273069001761,3.93386111087654E-16,2.42366013986811));
#1070=CARTESIAN_POINT('',(2.46827770344357,-0.300000000000032,2.29917791786131));
#1071=CARTESIAN_POINT('Origin',(2.61290491562301,4.04768764946996E-16,2.47153791756305));
#1072=CARTESIAN_POINT('',(2.29151111077974,-0.300000000000032,2.08851569600356));
#1073=CARTESIAN_POINT('',(2.61290491562301,-0.25,2.47153791756305));
#1074=CARTESIAN_POINT('Origin',(2.61290491562301,4.04768764946996E-16,2.47153791756305));
#1075=CARTESIAN_POINT('Origin',(2.42139380484327,4.04768764946996E-16,2.63223481998468));
#1076=CARTESIAN_POINT('',(2.42139380484327,-0.25,2.63223481998468));
#1077=CARTESIAN_POINT('Origin',(2.42139380484327,4.04768764946996E-16,2.63223481998468));
#1078=CARTESIAN_POINT('',(2.27676659266382,-0.300000000000032,2.45987482028294));
#1079=CARTESIAN_POINT('Origin',(2.42139380484327,4.04768764946996E-16,2.63223481998468));
#1080=CARTESIAN_POINT('',(2.27676659266382,-0.300000000000032,2.45987482028294));
#1081=CARTESIAN_POINT('Origin',(2.38121957923786,3.93386111087654E-16,2.58435704228974));
#1082=CARTESIAN_POINT('',(2.1,-0.300000000000032,2.24921259842519));
#1083=CARTESIAN_POINT('',(2.1,0.150000000000018,2.24921259842519));
#1084=CARTESIAN_POINT('',(2.1,-0.300000000000032,2.24921259842519));
#1085=CARTESIAN_POINT('Origin',(2.1,0.300000000000033,0.));
#1086=CARTESIAN_POINT('',(2.1,-0.300000000000032,0.));
#1087=CARTESIAN_POINT('Origin',(1.97737199332851,-0.300000000000033,0.));
#1088=CARTESIAN_POINT('',(1.97737199332851,-0.300000000000033,0.));
#1089=CARTESIAN_POINT('',(1.97737199332851,-0.300000000000033,0.));
#1090=CARTESIAN_POINT('',(1.97737199332851,-0.300000000000033,0.));
#1091=CARTESIAN_POINT('Origin',(1.04194881889764,1.13644876536433E-15,0.383070866141733));
#1092=CARTESIAN_POINT('',(1.14194881889764,1.12420229737286E-15,0.258070866141733));
#1093=CARTESIAN_POINT('',(1.14194881889764,1.12420229737286E-15,0.383070866141733));
#1094=CARTESIAN_POINT('Origin',(1.04194881889764,1.13644876536433E-15,0.258070866141733));
#1095=CARTESIAN_POINT('Origin',(0.260487204724409,-6.99353086378051E-16,
0.258070866141733));
#1096=CARTESIAN_POINT('',(1.09194881889764,1.14257199936007E-15,0.258070866141733));
#1097=CARTESIAN_POINT('Origin',(1.04194881889764,1.13644876536433E-15,0.258070866141733));
#1098=CARTESIAN_POINT('Origin',(-0.52097440944882,0.902354146608545,0.383070866141733));
#1099=CARTESIAN_POINT('',(-0.42097440944882,0.902354146608545,0.258070866141733));
#1100=CARTESIAN_POINT('',(-0.42097440944882,0.902354146608545,0.383070866141733));
#1101=CARTESIAN_POINT('Origin',(-0.52097440944882,0.902354146608545,0.258070866141733));
#1102=CARTESIAN_POINT('Origin',(0.260487204724409,-6.99353086378051E-16,
0.258070866141733));
#1103=CARTESIAN_POINT('',(-0.47097440944882,0.902354146608545,0.258070866141733));
#1104=CARTESIAN_POINT('Origin',(-0.52097440944882,0.902354146608545,0.258070866141733));
#1105=CARTESIAN_POINT('Origin',(-0.520974409448818,-0.902354146608547,0.383070866141733));
#1106=CARTESIAN_POINT('',(-0.420974409448818,-0.902354146608547,0.258070866141733));
#1107=CARTESIAN_POINT('',(-0.420974409448818,-0.902354146608547,0.383070866141733));
#1108=CARTESIAN_POINT('Origin',(-0.520974409448818,-0.902354146608547,0.258070866141733));
#1109=CARTESIAN_POINT('Origin',(0.260487204724409,-6.99353086378051E-16,
0.258070866141733));
#1110=CARTESIAN_POINT('',(-0.470974409448818,-0.902354146608547,0.258070866141733));
#1111=CARTESIAN_POINT('Origin',(-0.520974409448818,-0.902354146608547,0.258070866141733));
#1112=CARTESIAN_POINT('Origin',(0.,0.,0.));
#1113=CARTESIAN_POINT('',(-1.19212598425197,-0.348873327190826,0.));
#1114=CARTESIAN_POINT('',(-1.19212598425197,-0.348873327190826,0.));
#1115=CARTESIAN_POINT('',(0.293929828075929,-1.20684805046915,0.));
#1116=CARTESIAN_POINT('Origin',(0.,0.,0.));
#1117=CARTESIAN_POINT('',(0.293929828075929,-1.20684805046915,0.));
#1118=CARTESIAN_POINT('Origin',(-1.76586732275525,-0.348873327190826,0.));
#1119=CARTESIAN_POINT('',(-1.76586732275525,-0.348873327190826,0.));
#1120=CARTESIAN_POINT('',(-1.76586732275525,-0.348873327190826,0.));
#1121=CARTESIAN_POINT('',(-1.19212598425197,-0.348873327190826,0.));
#1122=CARTESIAN_POINT('Origin',(0.,0.,0.));
#1123=CARTESIAN_POINT('',(0.89819615617604,-0.85797472327832,0.));
#1124=CARTESIAN_POINT('',(0.89819615617604,-0.85797472327832,0.));
#1125=CARTESIAN_POINT('',(0.898196156176039,0.85797472327832,0.));
#1126=CARTESIAN_POINT('Origin',(0.,0.,0.));
#1127=CARTESIAN_POINT('',(0.898196156176039,0.85797472327832,0.));
#1128=CARTESIAN_POINT('Origin',(1.18506682542768,-1.35484929762345,0.));
#1129=CARTESIAN_POINT('',(1.18506682542768,-1.35484929762345,0.));
#1130=CARTESIAN_POINT('',(1.18506682542768,-1.35484929762345,0.));
#1131=CARTESIAN_POINT('',(0.89819615617604,-0.85797472327832,0.));
#1132=CARTESIAN_POINT('Origin',(-1.19212598425197,0.348873327190825,0.));
#1133=CARTESIAN_POINT('',(-1.19212598425197,0.348873327190825,0.));
#1134=CARTESIAN_POINT('',(-1.19212598425197,0.348873327190825,0.));
#1135=CARTESIAN_POINT('',(-1.76586732275525,0.348873327190825,0.));
#1136=CARTESIAN_POINT('',(-1.19212598425197,0.348873327190825,0.));
#1137=CARTESIAN_POINT('',(-1.76586732275525,0.348873327190825,0.));
#1138=CARTESIAN_POINT('Origin',(0.,0.,0.));
#1139=CARTESIAN_POINT('',(0.293929828075929,1.20684805046915,0.));
#1140=CARTESIAN_POINT('',(0.293929828075929,1.20684805046915,0.));
#1141=CARTESIAN_POINT('Origin',(0.,0.,0.));
#1142=CARTESIAN_POINT('Origin',(-0.520974409448818,-0.902354146608547,0.));
#1143=CARTESIAN_POINT('',(-0.470974409448818,-0.902354146608547,0.));
#1144=CARTESIAN_POINT('',(-0.470974409448818,-0.902354146608547,0.));
#1145=CARTESIAN_POINT('Origin',(-0.520974409448818,-0.902354146608547,0.));
#1146=CARTESIAN_POINT('Origin',(0.,0.,0.));
#1147=CARTESIAN_POINT('',(0.580800497327571,-1.70372262481428,0.));
#1148=CARTESIAN_POINT('',(0.580800497327571,-1.70372262481428,0.));
#1149=CARTESIAN_POINT('Origin',(0.,0.,0.));
#1150=CARTESIAN_POINT('Origin',(0.293929828075929,-1.20684805046915,0.));
#1151=CARTESIAN_POINT('',(0.293929828075929,-1.20684805046915,0.));
#1152=CARTESIAN_POINT('Origin',(1.04194881889764,1.13644876536433E-15,0.));
#1153=CARTESIAN_POINT('',(1.09194881889764,1.14257199936007E-15,0.));
#1154=CARTESIAN_POINT('',(1.09194881889764,1.14257199936007E-15,0.));
#1155=CARTESIAN_POINT('Origin',(1.04194881889764,1.13644876536433E-15,0.));
#1156=CARTESIAN_POINT('Origin',(0.,0.,0.));
#1157=CARTESIAN_POINT('',(0.841771653543307,1.03087296112479E-16,0.));
#1158=CARTESIAN_POINT('',(0.841771653543307,1.03087296112479E-16,0.));
#1159=CARTESIAN_POINT('Origin',(0.,0.,0.));
#1160=CARTESIAN_POINT('Origin',(0.,0.,0.));
#1161=CARTESIAN_POINT('',(1.18506682542768,1.35484929762345,0.));
#1162=CARTESIAN_POINT('',(1.18506682542768,1.35484929762345,0.));
#1163=CARTESIAN_POINT('Origin',(0.,0.,0.));
#1164=CARTESIAN_POINT('Origin',(0.898196156176039,0.85797472327832,0.));
#1165=CARTESIAN_POINT('',(0.898196156176039,0.85797472327832,0.));
#1166=CARTESIAN_POINT('Origin',(0.580800497327571,1.70372262481428,0.));
#1167=CARTESIAN_POINT('',(0.580800497327571,1.70372262481428,0.));
#1168=CARTESIAN_POINT('',(0.580800497327571,1.70372262481428,0.));
#1169=CARTESIAN_POINT('',(0.293929828075929,1.20684805046915,0.));
#1170=CARTESIAN_POINT('Origin',(0.,0.,0.));
#1171=CARTESIAN_POINT('Origin',(0.,0.,0.));
#1172=CARTESIAN_POINT('Origin',(-0.52097440944882,0.902354146608545,0.));
#1173=CARTESIAN_POINT('',(-0.47097440944882,0.902354146608545,0.));
#1174=CARTESIAN_POINT('',(-0.47097440944882,0.902354146608545,0.));
#1175=CARTESIAN_POINT('Origin',(-0.52097440944882,0.902354146608545,0.));
#1176=CARTESIAN_POINT('Origin',(0.,0.,0.));
#1177=CARTESIAN_POINT('Origin',(0.,0.,0.));
#1178=CARTESIAN_POINT('Origin',(0.,0.,0.));
#1179=UNCERTAINTY_MEASURE_WITH_UNIT(LENGTH_MEASURE(0.000393700787401575),
#1184,'DISTANCE_ACCURACY_VALUE',
'Maximum model space distance between geometric entities at asserted c
onnectivities');
#1180=UNCERTAINTY_MEASURE_WITH_UNIT(LENGTH_MEASURE(0.000393700787401575),
#1184,'DISTANCE_ACCURACY_VALUE',
'Maximum model space distance between geometric entities at asserted c
onnectivities');
#1181=(
GEOMETRIC_REPRESENTATION_CONTEXT(3)
GLOBAL_UNCERTAINTY_ASSIGNED_CONTEXT((#1179))
GLOBAL_UNIT_ASSIGNED_CONTEXT((#1184,#1188,#1189))
REPRESENTATION_CONTEXT('','3D')
);
#1182=(
GEOMETRIC_REPRESENTATION_CONTEXT(3)
GLOBAL_UNCERTAINTY_ASSIGNED_CONTEXT((#1180))
GLOBAL_UNIT_ASSIGNED_CONTEXT((#1184,#1188,#1189))
REPRESENTATION_CONTEXT('','3D')
);
#1183=DIMENSIONAL_EXPONENTS(1.,0.,0.,0.,0.,0.,0.);
#1184=(
CONVERSION_BASED_UNIT('inch',#1187)
LENGTH_UNIT()
NAMED_UNIT(#1183)
);
#1185=(
LENGTH_UNIT()
NAMED_UNIT(*)
SI_UNIT(.MILLI.,.METRE.)
);
#1186=(
LENGTH_UNIT()
NAMED_UNIT(*)
SI_UNIT($,.METRE.)
);
#1187=LENGTH_MEASURE_WITH_UNIT(LENGTH_MEASURE(25.4),#1185);
#1188=(
NAMED_UNIT(*)
PLANE_ANGLE_UNIT()
SI_UNIT($,.RADIAN.)
);
#1189=(
NAMED_UNIT(*)
SI_UNIT($,.STERADIAN.)
SOLID_ANGLE_UNIT()
);
#1190=SHAPE_DEFINITION_REPRESENTATION(#1191,#1192);
#1191=PRODUCT_DEFINITION_SHAPE('',$,#1194);
#1192=SHAPE_REPRESENTATION('',(#707),#1181);
#1193=PRODUCT_DEFINITION_CONTEXT('part definition',#1198,'design');
#1194=PRODUCT_DEFINITION('output_disk3','output_disk3 v1',#1195,#1193);
#1195=PRODUCT_DEFINITION_FORMATION('',$,#1200);
#1196=PRODUCT_RELATED_PRODUCT_CATEGORY('output_disk3 v1',
'output_disk3 v1',(#1200));
#1197=APPLICATION_PROTOCOL_DEFINITION('international standard',
'automotive_design',2009,#1198);
#1198=APPLICATION_CONTEXT(
'Core Data for Automotive Mechanical Design Process');
#1199=PRODUCT_CONTEXT('part definition',#1198,'mechanical');
#1200=PRODUCT('output_disk3','output_disk3 v1',$,(#1199));
#1201=PRESENTATION_STYLE_ASSIGNMENT((#1203));
#1202=PRESENTATION_STYLE_ASSIGNMENT((#1204));
#1203=SURFACE_STYLE_USAGE(.BOTH.,#1205);
#1204=SURFACE_STYLE_USAGE(.BOTH.,#1206);
#1205=SURFACE_SIDE_STYLE('',(#1207));
#1206=SURFACE_SIDE_STYLE('',(#1208));
#1207=SURFACE_STYLE_FILL_AREA(#1209);
#1208=SURFACE_STYLE_FILL_AREA(#1210);
#1209=FILL_AREA_STYLE('Steel - Satin',(#1211));
#1210=FILL_AREA_STYLE('Plastic - Glossy (Black)',(#1212));
#1211=FILL_AREA_STYLE_COLOUR('Steel - Satin',#1213);
#1212=FILL_AREA_STYLE_COLOUR('Plastic - Glossy (Black)',#1214);
#1213=COLOUR_RGB('Steel - Satin',0.627450980392157,0.627450980392157,0.627450980392157);
#1214=COLOUR_RGB('Plastic - Glossy (Black)',0.0980392156862745,0.0980392156862745,
0.0980392156862745);
ENDSEC;
END-ISO-10303-21;
